SplineFontDB: 3.2
FontName: Natsume-Regular
FullName: Natsume
FamilyName: Natsume
Weight: Regular
Copyright: SIL Open Font License (OFL)
UComments: "Created for Xymyric 9. Drawn in Inkscape and compiled using FontForge."
FontLog: "Sorazora is a serif font designed for the 9th Edition of the Xymyric alphabet. It includes two styles (Roman, Italic) for one weight (Regular). The design of the serifs is inspired by Han characters and is descended from Xymyric 8. The most noticeable feature compared to V8 is the thin headline and shallow pen angle. This font can be regarded as a transitional style. The direction of the serifs is flipped to reflect the pen angle, which is opposite that of V8.+AAoACgAA-Xymyric 9 specification: https://docs.google.com/document/d/10HuhhSWbcs7u7IWC0UuAK0fY2e_X8Z23sTPiJAIG3fo/edit?usp+AD0A-sharing+AAoACgAA-This font:+AAoA    sorazora_serif_w4.otf+AAoACgAA-Designer:+AAoA    Kegfeng"
Version: 0.3
DefaultBaseFilename: natsume-w4
ItalicAngle: 0
UnderlinePosition: -100
UnderlineWidth: 50
Ascent: 726
Descent: 274
InvalidEm: 0
LayerCount: 2
Layer: 0 0 "Back" 1
Layer: 1 0 "Fore" 0
XUID: [1021 177 139733406 4461]
FSType: 0
OS2Version: 0
OS2_WeightWidthSlopeOnly: 0
OS2_UseTypoMetrics: 1
CreationTime: 1673642421
ModificationTime: 1678224732
PfmFamily: 17
TTFWeight: 400
TTFWidth: 5
LineGap: 72
VLineGap: 0
OS2TypoAscent: 0
OS2TypoAOffset: 1
OS2TypoDescent: 0
OS2TypoDOffset: 1
OS2TypoLinegap: 150
OS2WinAscent: 0
OS2WinAOffset: 1
OS2WinDescent: 0
OS2WinDOffset: 1
HheadAscent: 0
HheadAOffset: 1
HheadDescent: 0
HheadDOffset: 1
OS2CapHeight: 621
OS2XHeight: 483
OS2FamilyClass: 256
OS2Vendor: 'PfEd'
MarkAttachClasses: 1
DEI: 91125
LangName: 1033
GaspTable: 3 9 14 16 5 65535 15 1
OtfFeatName: 'ss01' 1033 "All disconnected"
OtfFeatName: 'ss02' 1033 "Override punctuation substitution"
OtfFeatName: 'ss03' 1033 "Traditional Xymyric figures"
OtfFeatName: 'ss04' 1033 "Double isolate K ligature"
OtfFeatName: 'ss05' 1033 "Use ideographic comma"
Encoding: ISO8859-1

StartChar: a
Encoding: 97 97 26
GlifName: a
Width: 887
Flags: W
HStem: -22.3877 46.5508<383.591 537.119> 440.025 43.0703<208.885 313.938 358.587 405.371 448.018 519.424 630.406 811.977> 479.894 20G<863.715 868.017> 677.423 51.4902<378.15 435.988>
VStem: 177.068 101.977<142.934 331.848> 460.691 100.694<553.737 651.959> 622.558 102.915<138.477 328.835>
LayerCount: 2
Fore
SplineSet
377.3046875 677.422851562 m 0xde
 363.379982036 677.422851562 359.393510637 676.388421807 356.5184323 675.642381944 c 0
 354.896954226 675.221632615 353.628977014 674.892611477 351.131104831 674.892611477 c 0
 347.503031577 674.892611477 343.303710938 676.185512295 343.303710938 682.202148438 c 0
 343.303710938 690.378867049 343.303710938 696.002496245 437.151367188 728.913085938 c 1
 494.318359375 728.913085938 561.385742188 699.971679688 561.385742188 620.271484375 c 0
 561.385742188 552.475585938 505.041992188 506.810546875 448.017578125 487.051757812 c 1
 448.017578125 483.095703125 l 1
 717.091796875 483.095703125 l 2xde
 755.123440552 483.095703125 805.140392202 490.485377792 864.021984778 499.18474468 c 0
 865.614959813 499.420096233 867.214422984 499.656406366 868.8203125 499.893554688 c 1xbe
 858.609375 462.1484375 834.901367188 418.54296875 812.224609375 418.54296875 c 0
 806.977639625 418.54296875 799.132310514 420.413957596 788.072229621 423.051614689 c 0
 761.655353141 429.351628433 716.898711513 440.025390625 645.403320312 440.025390625 c 2
 630.406345926 440.025390625 l 1
 690.486183754 399.69132506 725.47265625 332.755282424 725.47265625 246.603515625 c 0
 725.47265625 107.287109375 625.720703125 -22.3876953125 445.413085938 -22.3876953125 c 0
 296.590820312 -22.3876953125 177.068359375 78.0615234375 177.068359375 230.495117188 c 0
 177.068359375 343.84727981 241.30797246 414.41754364 313.937748868 440.025390625 c 1
 70.384765625 440.025390625 l 2
 34.2783203125 440.025390625 26.3701171875 442.705078125 26.3701171875 449.533203125 c 0
 26.3701171875 463.736328125 82.4130859375 520.692382812 137.068359375 563.428710938 c 1
 208.884765625 483.095703125 l 1
 311.325195312 483.095703125 l 2
 398.141601562 483.095703125 460.69140625 520.596679688 460.69140625 600.161132812 c 0
 460.69140625 645.0078125 422.611328125 677.422851562 377.3046875 677.422851562 c 0xde
435.69140625 440.025390625 m 0
 351.129882812 440.025390625 279.044921875 379.258789062 279.044921875 254.154296875 c 0
 279.044921875 108.8984375 368.740234375 24.1630859375 463.232421875 24.1630859375 c 0
 551.813476562 24.1630859375 622.557617188 106.452148438 622.557617188 219.970703125 c 0
 622.557617188 351.598632812 545.131835938 440.025390625 435.69140625 440.025390625 c 0
EndSplineSet
Validated: 524289
EndChar

StartChar: b
Encoding: 98 98 27
GlifName: b
Width: 533
Flags: W
HStem: -22.3887 74.1455<252.16 392.006> 253 43.4971<173.513 402.928> 253 32.0273<169.85 384.774> 448.224 57.6133<261.283 370.744>
VStem: 45.4043 95.4404<163.87 346.194>
LayerCount: 2
Fore
SplineSet
340.1015625 51.7568359375 m 0x98
 401.720169573 51.7568359375 443.981486132 84.9442991779 469.7079102 105.147047756 c 0
 480.964569532 113.986809463 489.055588513 120.340619918 494.217400394 120.340619918 c 0
 502.965419206 120.340619918 511.566349309 113.823413608 511.566349309 105.025865008 c 0
 511.566349309 85.1692858457 407.21266176 9.52253432073 406.049804688 8.6923828125 c 0
 405.527177597 8.31928176718 404.988425765 7.93191738135 404.431980431 7.53183130839 c 0
 389.768505664 -3.01125654578 362.818124079 -22.388671875 294.873046875 -22.388671875 c 0
 169.04296875 -22.388671875 45.404296875 73.4453125 45.404296875 245.484375 c 0
 45.404296875 386.141601562 145.21484375 435.943359375 166.612304688 445.916015625 c 0
 184.143554688 454.087890625 237.408203125 475.40625 272.836914062 488.532226562 c 0
 300.758789062 498.876953125 326.23046875 505.836914062 354.842773438 505.836914062 c 0
 420.127929688 505.836914062 472.295898438 477.376953125 472.295898438 455.84375 c 0
 472.295898438 439.307617188 448.104492188 423.630859375 399.881835938 402.797851562 c 1
 366.357421875 437.692382812 333.715820312 448.223632812 292.875 448.223632812 c 0
 230.016601562 448.223632812 140.844726562 402.115234375 140.844726562 269.049804688 c 0
 140.844726562 124.415039062 242.1796875 51.7568359375 340.1015625 51.7568359375 c 0x98
402.936901854 236.938979774 m 0
 402.774859471 236.938979774 401.453336853 237.219088591 399.159336616 237.705322941 c 0
 384.082664308 240.900961654 327.000730845 253 281 253 c 2
 212 253 l 2xd8
 189 253 169.724609375 257.977539062 169.724609375 267.67578125 c 0
 169.724609375 272.897460938 173.0546875 276.55859375 192.34765625 285.02734375 c 0xb8
 211.827148438 293.579101562 233.211914062 296.497070312 286.02734375 296.497070312 c 0xd8
 366.881835938 296.497070312 445.040039062 307.161132812 450.91796875 308.08984375 c 1
 437.091912617 266.676668068 419.772734624 236.938979774 402.936901854 236.938979774 c 0
EndSplineSet
Validated: 524289
EndChar

StartChar: c
Encoding: 99 99 28
GlifName: c
Width: 572
Flags: W
HStem: 455.24 50.3496<179.129 322.433>
VStem: 186.469 106.876<-262.222 -46.9225> 431.918 102.645<155.259 343.01>
LayerCount: 2
Fore
SplineSet
20.728515625 363.02734375 m 0
 20.728515625 425.880395803 185.631771355 505.58984375 289.227539062 505.58984375 c 0
 405.212890625 505.58984375 534.5625 416.801757812 534.5625 264.450195312 c 0
 534.5625 114.372070312 430.9140625 13.5263671875 291.509765625 -17.9921875 c 1
 289.2734375 -42.248046875 287.49609375 -69.7392578125 287.49609375 -105.728515625 c 0
 287.49609375 -145.661644843 290.389641558 -193.361792688 292.106227315 -221.659716161 c 0
 292.830133353 -233.593310256 293.344726562 -242.076381478 293.344726562 -245.071289062 c 0
 293.344726562 -263.033203125 245.56640625 -268.899414062 219.712890625 -268.899414062 c 0
 193.380859375 -268.899414062 186.46875 -263.432617188 186.46875 -255.833984375 c 0
 186.46875 -253.935137457 186.633625535 -250.09949608 186.895021132 -244.018425461 c 0
 187.89461424 -220.764031223 190.305664062 -164.673705388 190.305664062 -58.48828125 c 1
 156.94921875 -45.8779296875 138.275390625 -31.1806640625 138.275390625 -19.072265625 c 0
 138.275390625 -9.435546875 148.422851562 -3.07421875 190.823242188 0.7431640625 c 0
 325.196289062 12.8388671875 431.91796875 108.086914062 431.91796875 242.168945312 c 0
 431.91796875 378.65234375 332.989257812 455.240234375 230.971679688 455.240234375 c 0
 187.08203125 455.240234375 144.126953125 439.743164062 119.241210938 369.966796875 c 1
 63.630859375 350.750976562 47.0390625 346.200195312 38.08203125 346.200195312 c 0
 26.4541015625 346.200195312 20.728515625 351.62890625 20.728515625 363.02734375 c 0
EndSplineSet
Validated: 524289
EndChar

StartChar: d
Encoding: 100 100 29
GlifName: d
Width: 632
Flags: W
HStem: -22.5752 53.8008<246.778 399.648> 452.046 44.8945<227.266 391.792>
VStem: 38.0889 102.193<149.888 343.895> 491.742 102.149<150.657 342.405>
LayerCount: 2
Fore
SplineSet
304.930664062 452.045898438 m 0
 230.57421875 452.045898438 140.282226562 393.434570312 140.282226562 265.559570312 c 0
 140.282226562 106.143554688 239.701171875 31.2255859375 323.243164062 31.2255859375 c 0
 407.754882812 31.2255859375 491.7421875 103.087890625 491.7421875 230.688476562 c 0
 491.7421875 379.625 402.361328125 452.045898438 304.930664062 452.045898438 c 0
  Spiro
    304.931 452.046 o
    229.27 432.154 o
    166.397 370.658 o
    140.282 265.56 o
    169.098 134.059 o
    238.76 56.5021 o
    323.243 31.2256 o
    404.414 54.5364 o
    466.884 122.353 o
    491.742 230.688 o
    465.011 354.173 o
    396.583 427.803 o
    0 0 z
  EndSpiro
399.00000314 483.792471774 m 1
 351.621114067 513.623815477 237.670828543 530.169884591 156.131348347 542.009766067 c 0
 104.154745662 549.556991214 65.34765625 555.191946673 65.34765625 561.13671875 c 0
 65.34765625 571.089012648 79.6480607627 574.693567633 102.600740971 580.479012219 c 0
 127.767622976 586.82256774 163.336637052 595.788081051 201.862304688 618.618164062 c 1
 257.744808768 593.804874821 279.476456194 586.142443993 308.022564968 576.077280521 c 0
 320.944966379 571.520929822 335.263813818 566.472201768 354.779296875 559.1171875 c 0
 503.9140625 502.911132812 593.891601562 412.106445312 593.891601562 264.342773438 c 0
 593.891601562 86.0205078125 458.998046875 -22.5751953125 312.938476562 -22.5751953125 c 0
 166.0859375 -22.5751953125 38.0888671875 71.55859375 38.0888671875 231.918945312 c 0
 38.0888671875 398.478515625 153.461914062 496.940429688 311.560546875 496.940429688 c 0
 328.824664305 496.940429688 362.472963809 493.440859515 396.99999852 480.274898249 c 1
 399.00000314 483.792471774 l 1
  Spiro
    201.862 618.618 v
    263.623 592.435 o
    305.381 577.009 o
    354.779 559.117 o
    482.947 490.632 o
    565.097 393.836 o
    593.892 264.343 o
    553.586 110.83 o
    450.569 12.1157 o
    312.938 -22.5752 o
    176.536 7.70951 o
    76.6391 94.7808 o
    38.0889 231.919 o
    73.7871 374.537 o
    170.516 465.307 o
    311.561 496.94 o
    336.972 495.152 o
    371.369 488.471 o
    409.677 475 o
    410 475.747 o
    345.555 506.092 o
    241.986 528.533 o
    107.729 549.649 o
    82.1026 553.779 o
    68.9989 557.077 o
    65.3477 561.137 o
    67.2796 565.669 o
    73.3635 570.847 o
    83.959 575.492 o
    122.511 586.089 o
    159.256 597.632 o
    0 0 z
  EndSpiro
EndSplineSet
Validated: 524289
EndChar

StartChar: e
Encoding: 101 101 30
GlifName: e
Width: 529
Flags: W
HStem: -17.5273 21G<85.3037 108.223> 303.687 29.8438<360.223 468.984>
VStem: 49.4355 110.937<-1.74692 70.1949>
LayerCount: 2
Fore
SplineSet
473.256098842 287.854551545 m 0
 470.860889409 287.854551545 467.103449471 289.384005076 461.924299823 291.492160856 c 0
 450.440271927 296.166696526 431.966158538 303.686523438 405.853515625 303.686523438 c 0
 351.625976562 303.686523438 246.388671875 227.875 160.372070312 27.818359375 c 0
 146.329101562 -4.84375 120.3515625 -17.52734375 96.09375 -17.52734375 c 0
 74.513671875 -17.52734375 49.435546875 -1.884765625 49.435546875 37.732421875 c 0
 49.435546875 152.749023438 223.66015625 274.786132812 337.254882812 317.66796875 c 1
 256.38671875 342.837890625 168.767578125 378.970703125 96.3837890625 442.966796875 c 1
 39.5654296875 443.357421875 31.310546875 453.930664062 31.310546875 463.115234375 c 0
 31.310546875 476.770507812 94.0224609375 499.15234375 186.56640625 531.22265625 c 1
 227.009765625 413.29296875 337.15625 351.779296875 394.653320312 333.530273438 c 1
 416.522460938 333.530273438 466.700195312 339.189453125 519.1640625 354.700195312 c 1
 511.926794098 330.3237349 491.379038575 287.854551545 473.256098842 287.854551545 c 0
EndSplineSet
Validated: 524289
EndChar

StartChar: f
Encoding: 102 102 31
GlifName: f
Width: 853
Flags: W
HStem: -271 21G<90.9805 115.501> -22.5762 53.8008<469.745 627.26> 326.703 35.3929<169.61 219.568> 326.703 27.4234<168.422 215.085> 452.045 53.6045<445.834 606.572>
VStem: 66.1914 106.183<-261.768 326.67 354.126 436.168> 712.645 102.149<139.987 333.44>
LayerCount: 2
Fore
SplineSet
168.144330876 326.670348887 m 0xee
 167.623732231 268.253777768 167.369140625 193.693078546 167.369140625 98.96875 c 0
 167.369140625 -34.5000953089 169.793683634 -130.235482104 171.267737784 -188.439912296 c 0
 171.911534858 -213.860852105 172.374023438 -232.122653571 172.374023438 -243.2421875 c 0
 172.374023438 -259.458007812 127.919921875 -271 103.08203125 -271 c 0
 78.87890625 -271 66.19140625 -268.978515625 66.19140625 -259.91796875 c 0
 66.19140625 -257.949127421 66.2763400929 -253.888665839 66.4203591003 -247.00349938 c 0
 67.2227782463 -208.641969955 69.859375 -82.5932777472 69.859375 257.936523438 c 2
 69.859375 427.383789062 l 1
 67.5100703109 428.25427101 65.2325248266 429.095213001 63.0260051833 429.90993 c 0
 25.447649988 443.785049976 8.4697265625 450.053837507 8.4697265625 465.090820312 c 0
 8.4697265625 479.066547721 8.4697265625 499.078312282 173.380859375 506.55859375 c 1
 171.024069639 483.997048426 169.386278967 438.527556431 168.421979928 354.126445864 c 1xde
 193.813673824 359.602590759 215.928978714 362.095925356 235.554975034 362.095925356 c 0
 257.793480332 362.095925356 276.835840467 358.894610979 293.827148438 353.204101562 c 1
 340.26171875 445.725585938 436.37109375 505.649414062 542.787109375 505.649414062 c 0
 694.857421875 505.649414062 814.793945312 408.33203125 814.793945312 251.94921875 c 0
 814.793945312 73.6279296875 679.900390625 -22.576171875 533.840820312 -22.576171875 c 0
 432.235351562 -22.576171875 317.192382812 43.4970703125 267.951171875 204.030273438 c 0
 239.752036673 295.962485034 221.741841397 326.703029878 171.263484655 326.703029878 c 0
 170.726103156 326.703029878 170.19406495 326.694671062 169.668131407 326.686408156 c 0
 169.154130189 326.678332718 168.645959773 326.670348887 168.144330876 326.670348887 c 0xee
525.834960938 452.044921875 m 0
 451.477539062 452.044921875 361.185546875 397.99609375 361.185546875 270.120117188 c 0
 361.185546875 110.704101562 460.609375 31.224609375 544.151367188 31.224609375 c 0
 628.662109375 31.224609375 712.64453125 90.6953125 712.64453125 218.294921875 c 0
 712.64453125 367.232421875 623.264648438 452.044921875 525.834960938 452.044921875 c 0
EndSplineSet
Validated: 524289
EndChar

StartChar: g
Encoding: 103 103 32
GlifName: g
Width: 572
Flags: W
HStem: 455.24 50.3496<179.129 322.434> 597.069 131.896<199.463 297.078>
VStem: 182.322 131.896<614.211 711.825> 186.469 106.876<-262.222 -46.9225> 431.918 102.645<155.258 343.01>
LayerCount: 2
Fore
SplineSet
314.21875 663.017578125 m 0xe8
 314.21875 626.620117188 284.66796875 597.069335938 248.270507812 597.069335938 c 0
 211.873046875 597.0703125 182.323242188 626.620117188 182.322265625 663.017578125 c 0
 182.322265625 699.415039062 211.873046875 728.965820312 248.270507812 728.965820312 c 0
 284.66796875 728.965820312 314.21875 699.415039062 314.21875 663.017578125 c 0xe8
20.728515625 363.02734375 m 0
 20.728515625 425.880371432 185.631901301 505.58984375 289.227539062 505.58984375 c 0
 405.212890625 505.58984375 534.5625 416.801757812 534.5625 264.450195312 c 0
 534.5625 114.372070312 430.915039062 13.5263671875 291.510742188 -17.9921875 c 1
 289.274414062 -42.248046875 287.49609375 -69.7392578125 287.49609375 -105.728515625 c 0
 287.49609375 -146.803624885 291.766193749 -218.400873497 293.009132646 -239.241370253 c 0
 293.220841817 -242.791121821 293.344726562 -244.868311325 293.344726562 -245.071289062 c 0
 293.344726562 -263.033203125 245.567382812 -268.899414062 219.712890625 -268.899414062 c 0
 193.381835938 -268.899414062 186.46875 -263.432617188 186.46875 -255.833984375 c 0xd8
 186.46875 -255.615009908 186.515972561 -254.575975887 186.599940049 -252.728446364 c 0
 187.272853252 -237.92239415 190.305664062 -171.19171471 190.305664062 -58.48828125 c 1
 156.950195312 -45.8779296875 138.275390625 -31.1806640625 138.275390625 -19.072265625 c 0
 138.275390625 -9.435546875 148.422851562 -3.07421875 190.823242188 0.7431640625 c 0
 325.196289062 12.837890625 431.91796875 108.086914062 431.91796875 242.168945312 c 0
 431.91796875 378.65234375 332.990234375 455.240234375 230.97265625 455.240234375 c 0
 187.08203125 455.240234375 144.127929688 439.743164062 119.241210938 369.966796875 c 1
 63.630859375 350.750976562 47.0390625 346.200195312 38.0830078125 346.200195312 c 0
 26.4541015625 346.200195312 20.728515625 351.62890625 20.728515625 363.02734375 c 0
EndSplineSet
Validated: 524289
EndChar

StartChar: h
Encoding: 104 104 33
GlifName: h
Width: 853
Flags: W
HStem: -271 21G<90.98 115.501> -223.263 131.896<484.249 581.864> -22.5762 53.7998<469.745 627.26> 326.703 35.3929<168.901 246.674> 326.703 27.4236<168.422 215.085> 452.045 53.6045<445.834 606.571>
VStem: 66.1904 106.183<-261.768 326.67 354.127 436.168> 467.108 131.896<-206.122 -108.508> 712.645 102.149<139.987 333.439>
LayerCount: 2
Fore
SplineSet
599.00390625 -157.315429688 m 0xe780
 599.00390625 -193.712890625 569.454101562 -223.262695312 533.056640625 -223.262695312 c 0
 496.659179688 -223.262695312 467.108398438 -193.712890625 467.108398438 -157.315429688 c 0
 467.108398438 -120.91796875 496.659179688 -91.3671875 533.056640625 -91.3671875 c 0
 569.454101562 -91.3671875 599.00390625 -120.91796875 599.00390625 -157.315429688 c 0xe780
525.833984375 452.044921875 m 0
 451.477539062 452.044921875 361.185546875 397.99609375 361.185546875 270.120117188 c 0
 361.185546875 110.704101562 460.609375 31.2236328125 544.151367188 31.2236328125 c 0
 628.662109375 31.2236328125 712.64453125 90.6953125 712.64453125 218.294921875 c 0
 712.64453125 367.231445312 623.264648438 452.044921875 525.833984375 452.044921875 c 0
168.144084372 326.670356861 m 0
 167.623603085 268.253784553 167.369140625 193.693082856 167.369140625 98.96875 c 0
 167.369140625 -34.5000953089 169.793210552 -130.235482104 171.266977082 -188.439912296 c 0
 171.910648537 -213.860852105 172.373046875 -232.122653571 172.373046875 -243.2421875 c 0
 172.373046875 -259.458007812 127.919921875 -271 103.08203125 -271 c 0
 78.8779296875 -271 66.1904296875 -268.978515625 66.1904296875 -259.91796875 c 0
 66.1904296875 -257.949127421 66.2753861433 -253.888665839 66.4194434944 -247.00349938 c 0
 67.222076277 -208.641969955 69.859375 -82.5932777472 69.859375 257.936523438 c 2
 69.859375 427.383789062 l 1
 67.5100703109 428.25427101 65.2325248266 429.095213001 63.0260051833 429.90993 c 0
 25.447649988 443.785049976 8.4697265625 450.053837507 8.4697265625 465.090820312 c 0
 8.4697265625 479.067213127 8.4697265625 499.078312282 173.380859375 506.55859375 c 1
 171.023507788 483.99706087 169.385803973 438.527606589 168.421678755 354.12658552 c 1xef80
 193.813175795 359.60263315 215.928484688 362.095925356 235.554519557 362.095925356 c 0
 257.793257585 362.095925356 276.835840467 358.894610979 293.827148438 353.204101562 c 1
 340.26171875 445.725585938 436.370117188 505.649414062 542.787109375 505.649414062 c 0
 694.857421875 505.649414062 814.793945312 408.33203125 814.793945312 251.94921875 c 0
 814.793945312 73.6279296875 679.900390625 -22.576171875 533.840820312 -22.576171875 c 0
 432.234375 -22.576171875 317.19140625 43.4970703125 267.951171875 204.030273438 c 0
 239.752036673 295.962485034 221.741046504 326.703029878 171.262534286 326.703029878 c 0xf780
 170.200219664 326.703029878 169.158775066 326.691408609 168.144084372 326.670356861 c 0
EndSplineSet
Validated: 524289
EndChar

StartChar: i
Encoding: 105 105 34
GlifName: i
Width: 527
Flags: W
HStem: -270.998 21G<381.193 409.19> -22.3994 70.1416<169.253 264.166> 249.452 52.4098<284.446 363.268> 451.584 54.0635<210.364 328.494>
VStem: 40.2119 96.9385<77.8726 168.29> 363.239 97.6938<-265.672 54.4341 91.4151 249.452 296.785 417.123>
LayerCount: 2
Fore
SplineSet
320.31640625 505.647460938 m 0
 462.28110626 505.647460938 462.28110626 408.888597375 462.28110626 331.780457742 c 0
 462.28110626 318.886329394 462.09705004 303.99599807 461.864935446 285.217696419 c 0
 461.468773397 253.1677925 460.932617188 209.792221716 460.932617188 145.685546875 c 0
 460.932617188 12.2167015661 463.356687115 -106.64953515 464.830453645 -178.916873371 c 0
 465.4741251 -210.479825692 465.936523438 -233.153903571 465.936523438 -244.2734375 c 0
 465.936523438 -264.69140625 421.731445312 -270.998046875 396.6484375 -270.998046875 c 0
 365.737304688 -270.998046875 359.754882812 -267.895507812 359.754882812 -260.952148438 c 0
 359.754882812 -258.983305088 359.839816829 -254.898799689 359.983836106 -247.972864356 c 0
 360.600695779 -218.307875622 362.301508958 -136.515199 363.055149232 54.4340679306 c 1
 361.425819046 53.485439895 359.80822214 52.5434688634 358.202271009 51.6082794861 c 0
 281.308195334 6.83075085141 231.112783005 -22.3994140626 198.010742188 -22.3994140625 c 0
 90.3994140625 -22.3994140625 40.2119140625 38.1806640625 40.2119140625 106.084960938 c 0
 40.2119140625 147.915636768 46.4894422521 195.086686861 238.178710938 264.5390625 c 0
 271.969594263 276.781958023 323.459197032 293.244957719 363.268467835 301.8617273 c 1
 363.025931219 327.723370863 362.433405929 347.064176669 361.06640625 365.685546875 c 0
 355.747070312 438.15234375 299.318359375 451.583984375 256.078125 451.583984375 c 0
 238.163085938 451.583984375 214.173828125 445.303710938 201.646484375 435.955078125 c 0
 182.708782754 421.822615474 181.914098233 411.939155359 179.570534677 382.792347632 c 0
 179.417441672 380.888335945 179.257739073 378.902121009 179.0859375 376.827148438 c 1
 164.930664062 371.08984375 120.186523438 354.396484375 93.2080078125 354.396484375 c 0
 78.6337890625 354.396484375 72.6630859375 356.828125 72.6630859375 368.528320312 c 0
 72.6630859375 422.529296875 204.813476562 505.647460938 320.31640625 505.647460938 c 0
363.422302429 249.451955304 m 1
 206.97590135 228.211533809 137.150390627 196.04504632 137.150390625 134.981445312 c 0
 137.150390625 82.5517578125 176.654296875 47.7421875 234.427734375 47.7421875 c 0
 272.953252924 47.7421875 317.173320973 65.7463554554 363.23883163 110.445949715 c 1
 363.349327498 152.186215436 363.415674275 198.375834055 363.422302429 249.451955304 c 1
EndSplineSet
Validated: 524289
EndChar

StartChar: j
Encoding: 106 106 35
GlifName: j
Width: 620
Flags: W
HStem: -270.974 21G<294.758 319.279> 440.025 43.0703<208.884 257.696 374.588 545.452> 479.894 20G<597.19 601.494>
VStem: 273.638 97.5098<-263.63 421.44>
LayerCount: 2
Fore
SplineSet
137.068359375 563.428710938 m 1xd0
 208.883789062 483.095703125 l 1
 450.567382812 483.095703125 l 2xd0
 488.598935564 483.095703125 538.618189963 490.485711972 597.501562872 499.185334787 c 0
 599.09321867 499.420491239 600.691351089 499.656604569 602.295898438 499.893554688 c 1xb0
 592.083984375 462.147460938 568.375976562 418.54296875 545.700195312 418.54296875 c 0
 540.453225563 418.54296875 532.607896452 420.413957595 521.54781556 423.051614689 c 0
 495.13093908 429.351628433 450.374297452 440.025390625 378.87890625 440.025390625 c 2
 374.588304968 440.025390625 l 1
 372.259229727 389.740387527 371.147460938 296.991587127 371.147460938 98.99609375 c 0
 371.147460938 -34.4722099752 373.571511192 -130.207361412 375.045279455 -188.412189274 c 0
 375.688960258 -213.8336421 376.151367188 -232.09588621 376.151367188 -243.215820312 c 0
 376.151367188 -259.430664062 331.698242188 -270.973632812 306.860351562 -270.973632812 c 0
 282.65625 -270.973632812 269.96875 -268.952148438 269.96875 -259.890625 c 0
 269.96875 -257.921783671 270.053706456 -253.861322089 270.197763807 -246.97615563 c 0
 271.000396589 -208.614626205 273.637695312 -82.5659339972 273.637695312 257.963867188 c 2
 273.637695312 411.897460938 l 1
 251.117435726 421.455684132 232.984295713 429.757028127 227.321031718 440.025390625 c 1
 70.384765625 440.025390625 l 2
 34.2783203125 440.025390625 26.3701171875 442.705078125 26.3701171875 449.532226562 c 0
 26.3701171875 463.736328125 82.4130859375 520.692382812 137.068359375 563.428710938 c 1xd0
EndSplineSet
Validated: 524289
EndChar

StartChar: k
Encoding: 107 107 36
GlifName: k
Width: 530
Flags: W
HStem: -22.4141 21G<244.791 316.446> 31.7522 31.2849<104.39 185.682> 440.02 43.0879<208.113 401.52> 626.896 43.0703<272.114 420.991>
LayerCount: 2
Fore
SplineSet
421.093866015 610.410615395 m 0
 418.971858814 610.410615395 412.363716788 611.659519261 402.785165617 613.469814734 c 0
 377.566865375 618.235940001 331.758949089 626.893393721 293.022460938 626.895507812 c 2
 112.903320312 626.904296875 l 2
 90.193359375 626.904296875 84.4365234375 631.567382812 84.4365234375 635.525492272 c 0
 84.4365234375 651.709960938 180.6875 738.21875 195.791015625 749.01171875 c 1
 272.114282979 669.965820251 l 1
 353.543808583 669.965820251 424.191429848 677.550225714 451.195436724 680.449252371 c 0
 457.575771868 681.134215967 461.519691961 681.557617188 462.59375 681.557617188 c 1
 448.767793836 640.144740941 431.447908287 610.410615395 421.093866015 610.410615395 c 0
130.056640625 557.8046875 m 1
 208.11328125 483.107421875 l 1
 369.957251213 483.096776774 l 1
 372.249302003 494.470781789 417.799386661 514.274233345 504.90234375 541.20703125 c 1
 502.882471147 531.9061953 499.659093815 522.174527978 495.849652457 510.673480422 c 0
 486.945298049 483.79043016 474.838899206 447.240118513 467.415764416 383.927995827 c 0
 447.198242188 211.4921875 371.794921875 63.1796875 261.09765625 -22.4140625 c 1
 228.484375 18.1806640625 204.354492188 29.2978515625 146.778791736 31.7522367723 c 0
 107.94519677 33.4076678027 103.429877008 38.1898520911 103.429877008 43.6124989798 c 0
 103.429877008 49.81022669 109.328231164 56.8445895534 139.429816343 63.0371369059 c 0
 310.107980983 98.1493281831 415.329563411 306.92866621 424.209895779 440.01953125 c 1
 46.06640625 440.01953125 l 2
 31.2900390625 440.01953125 26.0390625 443.5 26.0390625 448.604754322 c 0
 26.0390625 463.733398438 72.1591796875 509.313476562 130.056640625 557.8046875 c 1
EndSplineSet
Validated: 524289
EndChar

StartChar: l
Encoding: 108 108 37
GlifName: l
Width: 511
Flags: W
HStem: -22.4141 21G<225.738 297.393> 33.0039 26.1318<84.7247 144.166> 440.021 43.0703<186.48 382.455> 596.981 131.896<215.206 312.838>
VStem: 198.074 131.896<614.114 711.746>
LayerCount: 2
Fore
SplineSet
329.970703125 662.930664062 m 0
 329.970703125 626.5078125 300.444335938 596.981445312 264.022460938 596.981445312 c 0
 227.600585938 596.981445312 198.07421875 626.5078125 198.07421875 662.930664062 c 0
 198.07421875 699.352539062 227.600585938 728.877929688 264.022460938 728.877929688 c 0
 300.444335938 728.877929688 329.970703125 699.352539062 329.970703125 662.930664062 c 0
130.772460938 542.709960938 m 1
 186.48046875 483.090820312 l 1
 350.903320312 483.090820312 l 1
 353.1796875 494.46484375 398.731445312 514.26953125 485.849609375 541.20703125 c 1
 483.771966757 531.641870385 480.421546799 521.620920768 476.490416874 509.863094762 c 0
 467.664581375 483.465432986 455.911655433 448.312980404 449.063476562 389.908203125 c 0
 428.14453125 211.493164062 352.741210938 63.1806640625 242.044921875 -22.4140625 c 1
 209.430664062 18.1806640625 185.30078125 29.298828125 98.3662109375 33.00390625 c 0
 88.891723829 33.4076576606 84.376605563 38.1896118453 84.376605563 43.6121895742 c 0
 84.376605563 49.8101301364 90.2752520953 56.8449949219 101.409179688 59.1357421875 c 0
 291.0546875 98.1494140625 396.276367188 306.9296875 405.15625 440.020507812 c 1
 61.7392578125 440.020507812 l 2
 46.962890625 440.020507812 41.712890625 443.500976562 41.712890625 448.456054688 c 0
 41.712890625 463.734375 86.69140625 505.790039062 130.772460938 542.709960938 c 1
EndSplineSet
Validated: 524289
EndChar

StartChar: m
Encoding: 109 109 38
GlifName: m
Width: 511
Flags: W
HStem: -223.353 131.896<228.325 325.94> -22.4141 21G<225.738 297.393> 33.0039 26.1318<88.2604 144.166> 440.021 43.0703<186.48 382.455>
VStem: 211.185 131.896<-206.212 -108.598>
LayerCount: 2
Fore
SplineSet
343.080078125 -157.405273438 m 0
 343.080078125 -193.802734375 313.530273438 -223.352539062 277.1328125 -223.352539062 c 0
 240.735351562 -223.352539062 211.184570312 -193.802734375 211.184570312 -157.405273438 c 0
 211.184570312 -121.0078125 240.735351562 -91.45703125 277.1328125 -91.45703125 c 0
 313.530273438 -91.45703125 343.080078125 -121.0078125 343.080078125 -157.405273438 c 0
130.772460938 542.709960938 m 1
 186.48046875 483.090820312 l 1
 350.903320312 483.090820312 l 1
 353.1796875 494.46484375 398.731445312 514.26953125 485.849609375 541.20703125 c 1
 483.771961965 531.641848323 480.421531343 521.620781807 476.490389672 509.86282093 c 0
 467.664557226 483.464944361 455.911648397 448.312244773 449.063476562 389.908203125 c 0
 428.14453125 211.4921875 352.741210938 63.1806640625 242.044921875 -22.4140625 c 1
 209.430664062 18.1806640625 185.30078125 29.298828125 98.3662109375 33.00390625 c 0
 78.0625 33.869140625 80.5341796875 54.8408203125 101.409179688 59.1357421875 c 0
 291.0546875 98.1494140625 396.276367188 306.9296875 405.15625 440.020507812 c 1
 61.7392578125 440.020507812 l 2
 46.962890625 440.020507812 41.712890625 443.500976562 41.712890625 448.456054688 c 0
 41.712890625 463.734375 86.69140625 505.790039062 130.772460938 542.709960938 c 1
EndSplineSet
Validated: 524289
EndChar

StartChar: n
Encoding: 110 110 39
GlifName: n
Width: 233
Flags: W
HStem: -271 21G<90.9795 115.5> 486.559 20G<90.9248 171.337>
VStem: 66.1904 106.183<-261.768 436.474>
LayerCount: 2
Fore
SplineSet
173.380859375 506.55859375 m 1
 169.29296875 467.434570312 167.369140625 359.423828125 167.369140625 98.96875 c 0
 167.369140625 -34.5000953089 169.793210552 -130.235482104 171.266977082 -188.439912296 c 0
 171.910648537 -213.860852105 172.373046875 -232.122653571 172.373046875 -243.2421875 c 0
 172.373046875 -259.458007812 127.919921875 -271 103.081054688 -271 c 0
 78.8779296875 -271 66.1904296875 -268.978515625 66.1904296875 -259.91796875 c 0
 66.1904296875 -257.949127421 66.2753635304 -253.888665839 66.4193825378 -247.00349938 c 0
 67.2218016838 -208.641969955 69.8583984375 -82.5932777472 69.8583984375 257.936523438 c 2
 69.8583984375 427.383789062 l 1
 67.5081024011 428.254658408 65.229623442 429.095961499 63.0222277173 429.911017894 c 0
 25.4466573097 443.785380617 8.46875 450.054284635 8.46875 465.091796875 c 0
 8.46875 479.066215234 8.46875 499.078267986 173.380859375 506.55859375 c 1
EndSplineSet
Validated: 524289
EndChar

StartChar: o
Encoding: 111 111 40
GlifName: o
Width: 511
Flags: W
HStem: -22.4141 21G<225.737 297.392> 33.0039 26.1309<84.7239 144.166> 281.349 43.0703<204.91 360.15> 440.021 43.0703<204.272 382.454>
LayerCount: 2
Fore
SplineSet
149.202148438 384.038085938 m 1
 204.91015625 324.418945312 l 1
 378.618630837 324.418945312 l 1
 393.916126192 365.203158212 402.833143197 405.202008899 405.15625 440.020507812 c 1
 61.73828125 440.020507812 l 2
 46.962890625 440.020507812 41.7119140625 443.500976562 41.7119140625 448.456054688 c 0
 41.7119140625 463.734375 94.9033203125 512.6328125 138.984375 549.552734375 c 1
 204.272460938 483.090820312 l 1
 350.90234375 483.090820312 l 1
 353.1796875 494.463867188 398.73046875 514.26953125 485.848632812 541.20703125 c 1
 483.771097112 531.640977039 480.420360813 521.618956181 476.48877097 509.859607818 c 0
 467.663094378 483.462091869 455.910393989 448.309875186 449.0625 389.908203125 c 0
 428.143554688 211.4921875 352.740234375 63.1796875 242.043945312 -22.4140625 c 1
 209.430664062 18.1806640625 185.30078125 29.2978515625 98.3662109375 33.00390625 c 0
 88.8911321113 33.4076634566 84.3757771696 38.1897491397 84.3757771696 43.6123238701 c 0
 84.3757771696 49.8100941909 90.2744153695 56.8445679846 101.408203125 59.134765625 c 0
 224.015297821 84.3579979108 311.336094277 180.538327284 360.149579076 281.348632812 c 1
 80.16796875 281.348632812 l 2
 65.392578125 281.348632812 60.142578125 284.829101562 60.142578125 289.784179688 c 0
 60.142578125 305.0625 105.12109375 347.118164062 149.202148438 384.038085938 c 1
EndSplineSet
Validated: 524289
EndChar

StartChar: p
Encoding: 112 112 41
GlifName: p
Width: 553
Flags: W
HStem: -271.823 100.885<101.165 230.073> -187.513 20.333<14.3892 39.9678>
VStem: 18.4795 140.026<254.534 485.266> 441.062 50.1592<151.453 416.887>
LayerCount: 2
Fore
SplineSet
518.364257812 519.634765625 m 1xb0
 502.314453125 456.817382812 491.221679688 405.133789062 491.221679688 351.415039062 c 0
 491.221679688 -125.255859375 333.206054688 -271.823242188 113.741210938 -271.823242188 c 1xb0
 98.2470703125 -238.118164062 62.4248046875 -205.344726562 21.02734375 -187.512695312 c 0
 8.4638671875 -182.100585938 13.8466796875 -166.20703125 25.1044921875 -167.1796875 c 0x70
 61.990234375 -170.364257812 81.6533203125 -170.938476562 107.015625 -170.938476562 c 0
 226.201623071 -170.938476562 327.668291051 -125.127252053 386.517678624 9.6823897654 c 1
 188.973378045 21.0244249063 91.7766056762 129.753688167 66.9677734375 328.124023438 c 0
 63.6760934666 354.441313124 62.0305172748 385.063967104 60.7140027979 409.563086309 c 0
 60.2791643115 417.655029163 59.8802247986 425.078925258 59.4697265625 431.458984375 c 1
 30.462890625 451.13671875 18.4794921875 462.079101562 18.4794921875 474.609375 c 0
 18.4794921875 492.806640625 27.4912109375 501.111328125 176.564453125 515.658203125 c 1
 162.526367188 453.30859375 158.505859375 414.6640625 158.505859375 358.831054688 c 0
 158.505859375 150.236938236 220.474038641 52.6704955141 397.324124938 36.7740085303 c 1
 425.283201553 113.621869562 441.0625 215.7491336 441.0625 349.399414062 c 0
 441.0625 377.434570312 439.86328125 402.126953125 437.487304688 417.620117188 c 1
 398.01171875 427.764648438 373.590820312 443.083984375 373.590820312 455.790039062 c 0
 373.590820312 472.630859375 406.618164062 487.524414062 518.364257812 519.634765625 c 1xb0
EndSplineSet
Validated: 524289
EndChar

StartChar: q
Encoding: 113 113 42
GlifName: q
Width: 887
Flags: W
HStem: -22.3887 46.5518<383.591 537.119> 440.024 43.0703<208.885 313.935 358.587 519.425 630.407 811.977> 479.893 20G<863.715 868.009> 627 43<423 599.062>
VStem: 177.069 101.976<142.934 331.847> 622.558 102.915<138.477 328.835>
LayerCount: 2
Fore
SplineSet
435.69140625 440.024414062 m 0xdc
 351.129882812 440.024414062 279.044921875 379.2578125 279.044921875 254.153320312 c 0
 279.044921875 108.897460938 368.740234375 24.1630859375 463.232421875 24.1630859375 c 0
 551.813476562 24.1630859375 622.557617188 106.451171875 622.557617188 219.969726562 c 0
 622.557617188 351.598632812 545.1328125 440.024414062 435.69140625 440.024414062 c 0xdc
599.070262841 610.480927895 m 0
 598.908300757 610.480927895 597.607869747 610.766497154 595.34897159 611.262541826 c 0
 580.427450885 614.539245921 523.683419507 627 477 627 c 2
 264 627 l 2
 241 627 235.270507812 631.620117188 235.270507812 637.322265625 c 0
 235.270507812 651.762695312 331.520507812 738.271484375 346.625 749.064453125 c 1
 423 670 l 1
 457 670 l 2
 538.722394739 670 608.943501271 677.612754388 635.749338354 680.51880734 c 0
 642.072603203 681.204320066 645.980037339 681.627929688 647.052734375 681.627929688 c 1
 633.226778211 640.215053441 615.906892662 610.480927895 599.070262841 610.480927895 c 0
137.069335938 563.427734375 m 1
 208.884765625 483.094726562 l 1
 717.092773438 483.094726562 l 2xdc
 755.111513347 483.094726562 805.108953735 490.480682067 863.967369075 499.175639917 c 0
 865.578722536 499.413679802 867.196717189 499.652700768 868.821289062 499.892578125 c 1xbc
 858.609375 462.147460938 834.901367188 418.541992188 812.224609375 418.541992188 c 0
 806.978011592 418.541992188 799.132967315 420.412921291 788.073214046 423.050511792 c 0
 761.656521755 429.350509175 716.899477613 440.024414062 645.404296875 440.024414062 c 2
 630.407136445 440.024414062 l 1
 690.486183933 399.690352697 725.47265625 332.754372249 725.47265625 246.603515625 c 0
 725.47265625 107.287109375 625.720703125 -22.388671875 445.413085938 -22.388671875 c 0
 296.590820312 -22.388671875 177.069335938 78.0615234375 177.069335938 230.495117188 c 0
 177.069335938 343.845155769 241.306793186 414.415604466 313.935287465 440.024414062 c 1
 70.384765625 440.024414062 l 2
 34.279296875 440.024414062 26.37109375 442.704101562 26.37109375 449.532226562 c 0
 26.37109375 463.736328125 82.4130859375 520.692382812 137.069335938 563.427734375 c 1
EndSplineSet
Validated: 524289
EndChar

StartChar: r
Encoding: 114 114 43
GlifName: r
Width: 533
Flags: W
HStem: -22.3887 74.1455<252.16 392.006> 448.224 57.6133<261.283 370.744>
VStem: 45.4043 95.4404<163.87 346.194>
LayerCount: 2
Fore
SplineSet
340.1015625 51.7568359375 m 0
 401.720169573 51.7568359375 443.981486132 84.9442991779 469.7079102 105.147047756 c 0
 480.964569532 113.986809463 489.055588513 120.340619918 494.217400394 120.340619918 c 0
 502.965419206 120.340619918 511.566349309 113.823413608 511.566349309 105.025865008 c 0
 511.566349309 85.1699631141 407.21266176 9.52253432073 406.049804688 8.6923828125 c 0
 405.527177597 8.31928176718 404.988425765 7.93191738135 404.431980431 7.53183130839 c 0
 389.768505664 -3.01125654578 362.818124079 -22.388671875 294.873046875 -22.388671875 c 0
 169.04296875 -22.388671875 45.404296875 73.4453125 45.404296875 245.484375 c 0
 45.404296875 386.141601562 145.21484375 435.943359375 166.612304688 445.916015625 c 0
 184.143554688 454.087890625 237.408203125 475.40625 272.836914062 488.532226562 c 0
 300.758789062 498.876953125 326.229492188 505.836914062 354.842773438 505.836914062 c 0
 420.127929688 505.836914062 472.295898438 477.376953125 472.295898438 455.84375 c 0
 472.295898438 439.307617188 448.104492188 423.630859375 399.881835938 402.797851562 c 1
 366.357421875 437.692382812 333.715820312 448.223632812 292.875 448.223632812 c 0
 230.016601562 448.223632812 140.844726562 402.115234375 140.844726562 269.049804688 c 0
 140.844726562 124.415039062 242.1796875 51.7568359375 340.1015625 51.7568359375 c 0
EndSplineSet
Validated: 524289
EndChar

StartChar: s
Encoding: 115 115 44
GlifName: s
Width: 511
Flags: W
HStem: -22.4141 21G<225.737 297.392> 33.0039 26.1309<84.7247 144.166> 440.021 43.0703<214.765 382.454>
LayerCount: 2
Fore
SplineSet
143.08984375 565.063476562 m 1
 214.764648438 483.090820312 l 1
 350.90234375 483.090820312 l 1
 353.1796875 494.463867188 398.73046875 514.268554688 485.848632812 541.20703125 c 1
 483.771048953 531.640454322 480.420205468 521.61807512 476.488497558 509.858329328 c 0
 467.662851653 483.46080574 455.910323275 448.30897114 449.0625 389.907226562 c 0
 428.143554688 211.4921875 352.740234375 63.1796875 242.043945312 -22.4140625 c 1
 209.430664062 18.1796875 185.30078125 29.2978515625 98.3662109375 33.00390625 c 0
 88.891723829 33.4076576606 84.376605563 38.1896118453 84.376605563 43.6120903447 c 0
 84.376605563 49.8099174888 90.2752520953 56.8445392205 101.409179688 59.134765625 c 0
 291.053710938 98.1494140625 396.276367188 306.9296875 405.15625 440.020507812 c 1
 61.73828125 440.020507812 l 2
 46.962890625 440.020507812 41.712890625 443.500976562 41.712890625 448.456054688 c 0
 41.712890625 463.734375 99.0087890625 528.143554688 143.08984375 565.063476562 c 1
EndSplineSet
Validated: 524289
EndChar

StartChar: t
Encoding: 116 116 45
GlifName: t
Width: 632
Flags: W
HStem: -22.5752 53.8008<246.778 399.648> 182.122 131.896<267.553 365.167> 452.046 44.8945<227.267 390.458>
VStem: 38.0889 102.194<149.888 343.895> 250.411 131.896<199.262 296.877> 491.742 102.149<150.657 342.405>
LayerCount: 2
Fore
SplineSet
393.000003439 487.330431902 m 1
 343.669820153 514.629308158 235.289155118 530.449307911 156.653211927 541.927560064 c 0
 104.445371861 549.548181479 65.3486328125 555.255014906 65.3486328125 561.13671875 c 0
 65.3486328125 571.088942752 79.6490189013 574.693558186 102.601650588 580.479095017 c 0
 127.768343064 586.82271732 163.337018732 595.788307233 201.862304688 618.618164062 c 1
 257.744808768 593.804874821 279.476456194 586.142443993 308.022564968 576.077280521 c 0
 320.944966379 571.520929822 335.263813818 566.472201768 354.779296875 559.1171875 c 0
 503.915039062 502.911132812 593.891601562 412.106445312 593.891601562 264.342773438 c 0
 593.891601562 86.0205078125 458.998046875 -22.5751953125 312.938476562 -22.5751953125 c 0
 166.086914062 -22.5751953125 38.0888671875 71.55859375 38.0888671875 231.918945312 c 0
 38.0888671875 398.478515625 153.461914062 496.940429688 311.561523438 496.940429688 c 0
 327.822816598 496.940429688 358.622247934 493.835305309 390.999998527 482.470897945 c 1
 393.000003439 487.330431902 l 1
304.931640625 452.045898438 m 0
 230.575195312 452.045898438 140.283203125 393.434570312 140.283203125 265.559570312 c 0
 140.283203125 106.143554688 239.701171875 31.2255859375 323.243164062 31.2255859375 c 0
 407.754882812 31.2255859375 491.7421875 103.087890625 491.7421875 230.688476562 c 0
 491.7421875 379.625 402.361328125 452.045898438 304.931640625 452.045898438 c 0
382.307617188 248.069335938 m 0
 382.307617188 211.671875 352.7578125 182.122070312 316.360351562 182.122070312 c 0
 279.962890625 182.122070312 250.412109375 211.671875 250.411132812 248.069335938 c 0
 250.411132812 284.466796875 279.961914062 314.017578125 316.360351562 314.017578125 c 0
 352.7578125 314.017578125 382.307617188 284.466796875 382.307617188 248.069335938 c 0
EndSplineSet
Validated: 524289
EndChar

StartChar: u
Encoding: 117 117 46
GlifName: u
Width: 233
Flags: W
HStem: -271 21G<90.9795 115.5> 486.559 20G<90.9248 171.337> 596.997 131.896<66.1797 163.794>
VStem: 49.0381 131.896<614.138 711.753> 66.1904 106.183<-261.767 436.477>
LayerCount: 2
Fore
SplineSet
173.380859375 506.55859375 m 1xe8
 169.29296875 467.434570312 167.369140625 359.423828125 167.369140625 98.9697265625 c 0
 167.369140625 -34.4999017576 169.793214304 -130.235540067 171.266980504 -188.440020021 c 0
 171.910650176 -213.860916834 172.373046875 -232.122673277 172.373046875 -243.2421875 c 0
 172.373046875 -259.45703125 127.919921875 -271 103.081054688 -271 c 0
 78.8779296875 -271 66.1904296875 -268.978515625 66.1904296875 -259.916992188 c 0
 66.1904296875 -257.94814883 66.2753637055 -253.887680907 66.4193829832 -247.002504969 c 0
 67.2218026593 -208.640969367 69.8583984375 -82.5923867911 69.8583984375 257.936523438 c 2
 69.8583984375 427.383789062 l 1
 67.5049119388 428.255894849 65.2234376292 429.098348025 63.0132386731 429.914482191 c 0
 25.4439495976 443.787251565 8.46875 450.055483807 8.46875 465.091796875 c 0
 8.46875 479.057975736 8.46875 499.083195736 173.380859375 506.55859375 c 1xe8
180.934570312 662.9453125 m 0xf0
 180.934570312 626.547851562 151.384765625 596.998046875 114.987304688 596.997070312 c 0
 78.58984375 596.997070312 49.0390625 626.547851562 49.0380859375 662.9453125 c 0
 49.0380859375 699.342773438 78.5888671875 728.893554688 114.987304688 728.893554688 c 0
 151.384765625 728.893554688 180.934570312 699.342773438 180.934570312 662.9453125 c 0xf0
EndSplineSet
Validated: 524289
EndChar

StartChar: v
Encoding: 118 118 47
GlifName: v
Width: 853
Flags: W
HStem: -271 21G<90.9795 115.5> -22.5762 53.7998<469.744 627.259> 326.703 35.3929<168.902 246.674> 326.703 27.4235<168.421 215.085> 452.045 53.6045<445.833 606.571>
VStem: 66.1904 106.182<-261.768 326.642 354.127 436.168> 712.644 102.149<139.987 333.439>
LayerCount: 2
Fore
SplineSet
541.333007812 632.782226562 m 0xce
 516.185546875 632.782226562 485.975585938 620.874023438 455.655273438 580.896484375 c 0
 454.032591269 578.757230288 452.760634424 576.879274074 451.670995016 575.270496932 c 0
 448.546021631 570.656690096 446.920578556 568.256835938 442.822265625 568.256835938 c 0
 437.770507812 568.256835938 434.58203125 575.141601562 434.58203125 581.87890625 c 0
 434.58203125 599.364257812 452.266601562 633.022460938 541.333007812 747.309570312 c 1
 630.399414062 633.022460938 648.083984375 599.364257812 648.083984375 581.87890625 c 0
 648.083984375 575.141601562 644.895507812 568.256835938 639.84375 568.256835938 c 0
 635.745229995 568.256835938 634.119829744 570.656932615 630.994945051 575.271196309 c 0
 629.905549502 576.87981833 628.633913342 578.757540277 627.01171875 580.896484375 c 0
 596.690429688 620.874023438 566.48046875 632.782226562 541.333007812 632.782226562 c 0xce
525.833984375 452.044921875 m 0
 451.477539062 452.044921875 361.184570312 397.99609375 361.184570312 270.120117188 c 0
 361.184570312 110.704101562 460.609375 31.2236328125 544.150390625 31.2236328125 c 0
 628.661132812 31.2236328125 712.643554688 90.6953125 712.643554688 218.294921875 c 0
 712.643554688 367.231445312 623.263671875 452.044921875 525.833984375 452.044921875 c 0
168.420701536 354.126528045 m 1xde
 193.812638852 359.602615704 215.928188861 362.095925356 235.554273945 362.095925356 c 0
 257.79299107 362.095925356 276.835330301 358.894610979 293.826171875 353.204101562 c 1
 340.26171875 445.725585938 436.370117188 505.649414062 542.786132812 505.649414062 c 0
 694.856445312 505.649414062 814.79296875 408.33203125 814.79296875 251.94921875 c 0
 814.79296875 73.6279296875 679.899414062 -22.576171875 533.83984375 -22.576171875 c 0
 432.234375 -22.576171875 317.19140625 43.4970703125 267.950195312 204.030273438 c 0
 239.751941168 295.962485034 221.741037164 326.703029878 171.262533372 326.703029878 c 0xee
 170.324779077 326.703029878 169.26834801 326.680706384 168.142854225 326.641892013 c 0
 167.622543871 268.229564138 167.368164062 193.677697994 167.368164062 98.96875 c 0
 167.368164062 -34.5000953089 169.792233989 -130.235482104 171.266000519 -188.439912296 c 0
 171.909671974 -213.860852105 172.372070312 -232.122653571 172.372070312 -243.2421875 c 0
 172.372070312 -259.458007812 127.919921875 -271 103.081054688 -271 c 0
 78.8779296875 -271 66.1904296875 -268.978515625 66.1904296875 -259.91796875 c 0
 66.1904296875 -257.949127421 66.2753635304 -253.888665839 66.4193825378 -247.00349938 c 0
 67.2218016838 -208.641969955 69.8583984375 -82.5932777472 69.8583984375 257.936523438 c 2
 69.8583984375 427.383789062 l 1
 67.5090937484 428.25427101 65.2315482641 429.095213001 63.0250286208 429.90993 c 0
 25.4466734255 443.785049976 8.46875 450.053837507 8.46875 465.090820312 c 0
 8.46875 479.067213127 8.46875 499.078312282 173.379882812 506.55859375 c 1
 171.02253069 483.997055749 169.384826667 438.527585947 168.420701536 354.126528045 c 1xde
EndSplineSet
Validated: 524289
EndChar

StartChar: w
Encoding: 119 119 48
GlifName: w
Width: 631
Flags: W
HStem: -277.739 20.2754<92.4598 115.29> 452.048 53.6025<227.921 384.964>
VStem: 37.3848 102.193<152.123 341.412> 491.037 102.149<139.052 333.443>
LayerCount: 2
Fore
SplineSet
304.227539062 452.047851562 m 0
 229.870117188 452.047851562 139.578125 393.434570312 139.578125 265.55859375 c 0
 139.578125 106.142578125 239 31.224609375 322.541992188 31.224609375 c 0
 407.052734375 31.224609375 491.037109375 90.6982421875 491.037109375 218.298828125 c 0
 491.037109375 367.235351562 401.658203125 452.047851562 304.227539062 452.047851562 c 0
37.384765625 231.918945312 m 0
 37.384765625 398.478515625 163.079101562 505.650390625 321.178710938 505.650390625 c 0
 473.25 505.650390625 593.186523438 408.3359375 593.186523438 251.953125 c 0
 593.186523438 108.463658672 505.845766938 18.1443716921 395.626117931 -11.6658671383 c 1
 318.310432871 -218.859199327 109.589022068 -277.73928062 105.603427263 -277.739280187 c 0
 97.3060292524 -277.739280187 92.4562193037 -272.865259129 92.4562193037 -267.575184996 c 0
 92.4562193037 -263.910349391 94.7838292281 -260.045833948 99.9052734375 -257.463867188 c 0
 211.887610014 -201.005579795 268.571929708 -114.315622506 286.578142575 -21.6048997295 c 1
 150.789066359 -11.2884139463 37.384765625 80.9754535393 37.384765625 231.918945312 c 0
EndSplineSet
Validated: 524289
EndChar

StartChar: x
Encoding: 120 120 49
GlifName: x
Width: 587
Flags: W
HStem: 38.2373 66.0127<174.711 288.558> 454.474 51.1748<206.49 340.573> 597.009 131.896<234.553 332.183>
VStem: 217.419 131.896<614.141 711.773> 442.268 98.5049<147.109 336.466>
LayerCount: 2
Fore
SplineSet
58.7109375 366.278320312 m 0
 58.7109375 428.18734896 221.238112105 505.6484375 306.465820312 505.6484375 c 0
 447.662109375 505.6484375 540.772460938 408.305664062 540.772460938 256.923828125 c 0
 540.772460938 149.38671875 489.874023438 89.615234375 458.567382812 70.4892578125 c 0
 383.56640625 24.669921875 304.8828125 -22.4150390625 277.333984375 -22.4150390625 c 0
 268.007459948 -22.4150390625 261.749147024 -12.7944341523 254.217515478 -1.21641747321 c 0
 242.838270033 16.2763518916 228.552420442 38.2373046875 196.38671875 38.2373046875 c 0
 149.906928871 38.2373046875 105.7295489 9.02100678076 77.6545348672 -9.54614170716 c 0
 64.5787263834 -18.1937056027 54.9958233517 -24.5312690791 50.300020415 -24.5312690791 c 0
 43.650132388 -24.5312690791 39.3436823442 -19.8715220599 39.3436823442 -14.1337974277 c 0
 39.3436823442 -11.1993981756 40.4700454514 -7.98305110069 42.9853515625 -4.9638671875 c 0
 98.078125 61.15625 211.68359375 104.25 266.814453125 104.25 c 0
 310.30078125 104.25 336.15625 92.3056640625 360.59375 62.88671875 c 1
 404.408203125 84.15625 442.267578125 134.625 442.267578125 224.599609375 c 0
 442.267578125 357.578125 364.916015625 454.473632812 264.350585938 454.473632812 c 0
 227.749023438 454.473632812 184.116210938 445.092773438 155.291015625 386.423828125 c 1
 126.461914062 375.017578125 96.6171875 364.8046875 68.5107421875 355.67578125 c 0
 64.521484375 354.380859375 58.7109375 355.928710938 58.7109375 366.278320312 c 0
349.315429688 662.958007812 m 0
 349.315429688 626.53515625 319.7890625 597.008789062 283.366210938 597.008789062 c 0
 246.944938235 597.008789062 217.418945288 626.534179722 217.418945288 662.956200879 c 0
 217.419433687 699.387775987 246.950580002 728.905273438 283.366210938 728.905273438 c 0
 319.7890625 728.905273438 349.314453125 699.379882812 349.315429688 662.958007812 c 0
EndSplineSet
Validated: 524289
EndChar

StartChar: y
Encoding: 121 121 50
GlifName: y
Width: 700
Flags: W
HStem: -271.001 21G<90.98 115.501> -22.374 21G<374.314 411.639> 442.803 62.8896<213.555 280.397 483.847 592.706> 486.559 20G<90.9253 172.944>
VStem: 66.1914 106.183<-261.768 436.473> 309.177 170.369<56.5387 314.149>
LayerCount: 2
Fore
SplineSet
410.720623421 432.912865144 m 1xdc
 486.717592518 502.62720441 549.076923585 505.692382812 579.31640625 505.692382812 c 0
 649.389648438 505.692382812 704.439453125 463.165039062 704.439453125 440.974609375 c 0
 704.439453125 425.8046875 691.404296875 415.676757812 617.916015625 395.286132812 c 1
 600.16015625 429.14453125 548.592773438 442.802734375 521.46484375 442.802734375 c 0xec
 489.904195451 442.802734375 461.347845234 428.54501921 431.30735953 402.099688779 c 1
 461.400393573 349.160283552 479.545898438 276.327194822 479.545898438 187.9453125 c 0
 479.545898438 63.5654296875 431.408203125 -22.3740234375 391.869140625 -22.3740234375 c 0
 356.758789062 -22.3740234375 309.176757812 50.62890625 309.176757812 185.96875 c 0
 309.176757812 247.730824328 321.361804265 298.683146029 341.820537127 341.044479727 c 1
 317.839871723 407.868142872 261.023897718 443.740234376 216.493164062 443.740234375 c 0
 198.381786496 443.740234375 184.4187543 441.773334485 169.908575194 437.882062762 c 1
 168.193170739 374.591540499 167.369140625 269.428260199 167.369140625 98.96875 c 0
 167.369140625 -34.5000953089 169.793683634 -130.235482104 171.267737784 -188.439912296 c 0
 171.911534858 -213.860852105 172.374023438 -232.122653571 172.374023438 -243.2421875 c 0
 172.374023438 -259.458007812 127.919921875 -271.000976562 103.08203125 -271.000976562 c 0
 78.8779296875 -271.000976562 66.19140625 -268.978515625 66.19140625 -259.91796875 c 0
 66.19140625 -257.949127421 66.2763400929 -253.888665839 66.4203591003 -247.00349938 c 0
 67.2227782463 -208.641969955 69.859375 -82.5932777472 69.859375 257.936523438 c 2
 69.859375 427.383789062 l 1
 67.5100703109 428.25427101 65.2325248266 429.095213001 63.0260051833 429.90993 c 0
 25.447649988 443.785049976 8.4697265625 450.053837507 8.4697265625 465.090820312 c 0
 8.4697265625 479.067213127 8.4697265625 499.078312282 173.380859375 506.55859375 c 1
 172.507259 498.197616246 171.732490466 486.690610712 171.054209137 471.22207205 c 1
 217.132260394 485.990757233 263.393817129 499.266601562 285.231445312 499.266601562 c 0
 333.281260152 499.266601562 376.983804362 475.83581096 410.720623421 432.912865144 c 1xdc
EndSplineSet
Validated: 524289
EndChar

StartChar: z
Encoding: 122 122 51
GlifName: z
Width: 587
Flags: W
HStem: 38.2373 66.0137<174.712 288.558> 454.475 51.1738<206.49 340.574>
VStem: 442.269 98.5049<147.109 336.466>
LayerCount: 2
Fore
SplineSet
58.7119140625 366.278320312 m 0
 58.7119140625 428.188787739 221.237647104 505.6484375 306.465820312 505.6484375 c 0
 447.662109375 505.6484375 540.7734375 408.305664062 540.7734375 256.923828125 c 0
 540.7734375 149.38671875 489.875 89.615234375 458.567382812 70.4892578125 c 0
 383.56640625 24.669921875 304.8828125 -22.4150390625 277.333984375 -22.4150390625 c 0
 268.007708536 -22.4150390625 261.749426434 -12.7944601815 254.217825239 -1.2164644609 c 0
 242.838600067 16.276312565 228.552756602 38.2373046875 196.387695312 38.2373046875 c 0
 149.908113622 38.2373046875 105.730168775 9.02099986598 77.6548028935 -9.54614829875 c 0
 64.5788354074 -18.1937088232 54.9958169814 -24.5312690791 50.3000403242 -24.5312690791 c 0
 43.6503935047 -24.5312690791 39.344101055 -19.8718109817 39.344101055 -14.1343310736 c 0
 39.344101055 -11.1997881256 40.4706293512 -7.98323412332 42.986328125 -4.9638671875 c 0
 98.0791015625 61.15625 211.68359375 104.250976562 266.814453125 104.250976562 c 0
 310.30078125 104.250976562 336.15625 92.3056640625 360.594726562 62.8876953125 c 1
 404.409179688 84.15625 442.268554688 134.625 442.268554688 224.600585938 c 0
 442.268554688 357.578125 364.916992188 454.474609375 264.3515625 454.474609375 c 0
 227.749023438 454.474609375 184.116210938 445.092773438 155.291992188 386.423828125 c 1
 126.461914062 375.017578125 96.6171875 364.8046875 68.5107421875 355.67578125 c 0
 64.5224609375 354.380859375 58.7119140625 355.928710938 58.7119140625 366.278320312 c 0
EndSplineSet
Validated: 524289
EndChar

StartChar: zero
Encoding: 48 48 52
GlifName: zero
Width: 473
VWidth: 800
Flags: W
HStem: 93.9199 15.2246<209.947 263.322> 292.895 15.2256<209.453 263.817>
VStem: 133.063 34.8232<141.404 261.724> 305.38 34.8232<141.404 261.724>
LayerCount: 2
Fore
SplineSet
236.634765625 292.89453125 m 0
 201.05078125 292.89453125 167.88671875 259.923828125 167.88671875 201.01953125 c 0
 167.88671875 142.115234375 201.348632812 109.14453125 236.634765625 109.14453125 c 0
 271.921875 109.14453125 305.379882812 142.115234375 305.379882812 201.01953125 c 0
 305.379882812 259.923828125 272.219726562 292.89453125 236.634765625 292.89453125 c 0
236.634765625 308.120117188 m 0
 290.280273438 308.120117188 340.203125 268.094726562 340.203125 201.01953125 c 0
 340.203125 133.9453125 287.845703125 93.919921875 236.634765625 93.919921875 c 0
 185.424804688 93.919921875 133.063476562 133.9453125 133.063476562 201.01953125 c 0
 133.063476562 268.094726562 182.989257812 308.120117188 236.634765625 308.120117188 c 0
EndSplineSet
Validated: 524289
EndChar

StartChar: one
Encoding: 49 49 53
GlifName: one
Width: 270
VWidth: 800
Flags: W
HStem: 100.5 12<79.75 114.634 156.427 191.25> 289.5 12<79.75 114.802 156.244 191.25>
VStem: 115.25 40.5<112.5 289.5>
LayerCount: 2
Fore
SplineSet
79.75 100.5 m 1
 79.75 112.5 l 1
 99.25 112.5 l 2
 111.25 112.5 115.25 114.5 115.25 123 c 2
 115.25 279.5 l 2
 115.25 288 111.25 289.5 99.25 289.5 c 2
 79.75 289.5 l 1
 79.75 301.5 l 1
 191.25 301.5 l 1
 191.25 289.5 l 1
 172.25 289.5 l 2
 160.25 289.5 155.75 288 155.75 279.5 c 2
 155.75 123 l 2
 155.75 114.5 160.25 112.5 172.25 112.5 c 2
 191.25 112.5 l 1
 191.25 100.5 l 1
 79.75 100.5 l 1
EndSplineSet
Validated: 524289
EndChar

StartChar: two
Encoding: 50 50 54
GlifName: two
Width: 335
VWidth: 800
Flags: W
HStem: 103.5 32.5<131.25 239.087> 284.5 26<123.666 182.467>
VStem: 97.75 12<260 269.589> 193.75 39<215.121 278.65>
LayerCount: 2
Fore
SplineSet
94.75 112 m 1
 103.60546875 141.728515625 127.413085938 161.989257812 149.461914062 180.752929688 c 0
 172.572265625 200.420898438 193.75 218.443359375 193.75 244 c 0
 193.75 268.5 175.25 284.5 151.75 284.5 c 0
 133.25 284.5 115.25 275 109.75 260 c 1
 97.75 260 l 1
 105.25 290.5 132.75 310.5 167.25 310.5 c 0
 203.25 310.5 232.75 288 232.75 254.5 c 0
 232.75 228.577148438 215.353515625 215.080078125 186.5078125 192.700195312 c 0
 186.46484375 192.666992187 186.421875 192.633544922 186.37890625 192.600097656 c 0
 186.3359375 192.566650391 186.29296875 192.533203125 186.25 192.5 c 0
 184.526958429 191.207718822 182.897832031 189.730511889 181.240187454 188.227446157 c 0
 181.233042169 188.220967185 181.225896355 188.214487732 181.21875 188.208007812 c 0
 179.03515625 186.2265625 176.803710938 184.202148438 174.25 182.5 c 0
 149.25 162.5 137.75 151.5 131.25 136 c 1
 224.25 136 l 2
 233.75 136 235.75 139 239.25 148 c 1
 248.25 148 l 1
 239.25 113.5 l 2
 239.096679688 112.8125 238.956054688 112.182617188 238.82421875 111.59765625 c 0
 238.096679688 108.353515625 237.673828125 106.46484375 237.25 103.5 c 1
 94.75 103.5 l 1
 94.75 112 l 1
EndSplineSet
Validated: 524289
EndChar

StartChar: three
Encoding: 51 51 55
GlifName: three
Width: 325
VWidth: 800
Flags: W
HStem: -78.75 9.5<75.3158 86.198> 123.25 8.5<109 120.606> 225.25 24.5<106.35 155.899>
VStem: 165.5 40.5<154.082 220.885> 177 41<-6.84382 99.2125>
LayerCount: 2
Fore
SplineSet
80.5 214.25 m 1xf0
 96 234.25 120 249.75 148 249.75 c 0
 182 249.75 206 227.75 206 197.25 c 0xf0
 206 171.25 188 151.25 164.5 137.75 c 1
 195 128.75 218 103.25 218 59.25 c 0
 218 -9.75 162 -61.75 79 -78.75 c 1
 74 -69.25 l 1
 141 -48.25 177 -5.75 177 44.75 c 0xe8
 177 89.75 148 117.75 109 123.25 c 1
 109 131.75 l 1
 136.5 139.25 165.5 158.25 165.5 187.75 c 0
 165.5 212.25 146 225.25 127.5 225.25 c 0
 112.5 225.25 98.5 216.25 90 207.75 c 1
 80.5 214.25 l 1xf0
EndSplineSet
Validated: 524289
EndChar

StartChar: four
Encoding: 52 52 56
GlifName: four
Width: 478
VWidth: 800
Flags: W
HStem: 53.75 27<162 250.5 291 354.531>
VStem: 250.5 40.5<-54.7158 53.75 80.75 186.75>
DStem2: 115 52.75 162 80.75 0.63828 0.769804<51.5537 189.641>
LayerCount: 2
Fore
SplineSet
291 -35.75 m 2
 291 -42.9951171875 293.924804688 -52.099609375 294 -52.25 c 2
 254.5 -74.75 l 1
 249.5 -71.75 l 1
 250.5 -64.75 250.5 -57.75 250.5 -50.25 c 2
 250.5 53.75 l 1
 143 53.75 l 2
 130 53.75 128.5 53.25 121 48.25 c 1
 115 52.75 l 1
 280 251.75 l 1
 291 251.75 l 1
 291 80.75 l 1
 327.5 80.75 l 2
 338.5 80.75 352 80.75 361 81.75 c 1
 365 78.25 l 1
 351.5 52.25 l 1
 344 53.25 336 53.75 323 53.75 c 2
 291 53.75 l 1
 291 -35.75 l 2
250.5 80.75 m 1
 250.5 186.75 l 1
 162 80.75 l 1
 250.5 80.75 l 1
EndSplineSet
Validated: 524289
EndChar

StartChar: five
Encoding: 53 53 57
GlifName: five
Width: 350
VWidth: 800
Flags: W
HStem: -77.5 9.5<96.3158 104.143> 213 32<142.5 228.477>
VStem: 196.5 42.5<-3.83353 102.948>
DStem2: 103 136 130 168.5 0.285734 0.958309<38.8599 85.0763>
LayerCount: 2
Fore
SplineSet
135.5 245 m 1
 210.5 245 l 2
 222.5 245 226 247 229 253.5 c 1
 238 253.5 l 1
 226.5 223.5 l 2
 226.188410294 222.564269185 225.827573621 221.677785336 225.449199753 220.748217062 c 0
 225.443350862 220.733847825 225.43749778 220.719468293 225.431640625 220.705078125 c 0
 224.600585938 218.666015625 223.68359375 216.416992188 223 213 c 1
 142.5 213 l 1
 130 168.5 l 1
 205.5 161.5 239 115 239 63.5 c 0
 239 0.5 189 -59.5 100 -77.5 c 1
 95 -68 l 1
 154 -48 196.5 -10 196.5 45 c 0
 196.5 86 172 128.5 103 136 c 1
 135.5 245 l 1
EndSplineSet
Validated: 524289
EndChar

StartChar: six
Encoding: 54 54 58
GlifName: six
Width: 450
VWidth: 800
Flags: W
HStem: 142 18<210.116 261.342> 288 25.5<207.182 267.26> 436 10<295.88 307.65>
VStem: 133.25 43<185.478 275.402> 286.25 39.5<179.616 276.404>
LayerCount: 2
Fore
SplineSet
176.25 258 m 1
 177.25 192.5 204.75 160 235.75 160 c 0
 264.25 160 286.25 187.5 286.25 224 c 0
 286.25 253.5 271.75 288 236.25 288 c 0
 215.25 288 193.75 276 176.25 258 c 1
177.25 278 m 1
 197.75 299 224.75 313.5 253.75 313.5 c 0
 302.75 313.5 325.75 272 325.75 236 c 0
 325.75 188.5 285.75 142 231.75 142 c 0
 180.75 142 133.25 184 133.25 263.5 c 0
 133.25 335 171.75 419 306.25 446 c 1
 308.25 436 l 1
 217.75 411.5 181.75 349 177.25 278 c 1
EndSplineSet
Validated: 524289
EndChar

StartChar: seven
Encoding: 55 55 59
GlifName: seven
Width: 398
VWidth: 800
Flags: W
HStem: 216.5 32<127.984 270.75>
VStem: 153.75 31<-58.5 -10.742>
DStem2: 228.25 126.5 248.25 130 0.43088 0.902409<-102.902 99.5292>
LayerCount: 2
Fore
SplineSet
131.25 248.5 m 1
 301.25 248.5 l 1
 301.25 241 l 1
 248.25 130 l 2
 216.75 63 191.25 -17 184.75 -58.5 c 1
 153.75 -58.5 l 1
 162.75 -17.5 190.75 47.5 228.25 126.5 c 2
 270.75 216.5 l 1
 155.75 216.5 l 2
 142.75 216.5 136.25 215 131.75 207 c 2
 127.75 200.5 l 1
 119.75 200.5 l 1
 128.25 234 l 1
 128.25 234.5 l 1
 128.633789062 236.420898438 129.091796875 238.268554688 129.5390625 240.0703125 c 0
 129.539979234 240.074010703 129.540895922 240.077708715 129.541812562 240.081406536 c 0
 130.256643119 242.965106558 130.94277677 245.733040311 131.25 248.5 c 1
EndSplineSet
Validated: 524289
EndChar

StartChar: eight
Encoding: 56 56 60
GlifName: eight
Width: 433
VWidth: 800
Flags: W
HStem: 143 17<195.005 250.288> 430 15<188.083 238.043>
VStem: 126 36<181.036 271.904> 135 32<355.843 414.584> 262.5 33.5<342.537 416.126> 276 34<181.23 258.396>
DStem2: 232 322 206.5 294 0.856758 -0.515718<-86.3542 -22.2424 -16.7434 5.45523 15.692 82.7766>
LayerCount: 2
Fore
SplineSet
221 445 m 0xd0
 264 445 296 416.5 296 383.5 c 0xd8
 296 358.5 278.5 334.5 245.5 314 c 1
 257.5 306 l 1
 287.5 287.5 310 269.5 310 232 c 0
 310 181 268 143 215.5 143 c 0
 166 143 126 177 126 224.5 c 0xe4
 126 265 155 290 194 302 c 1
 186 306.5 l 1
 155.5 325 135 348.5 135 375.5 c 0
 135 413.5 175 445 221 445 c 0xd0
206.5 294 m 1
 177.5 280 162 258.5 162 230 c 0
 162 192.5 189 160 222 160 c 0
 250 160 276 183 276 218.5 c 0xe4
 276 242 264.5 258.5 237.5 275.5 c 1
 206.5 294 l 1
232 322 m 1
 247.5 335 262.5 348 262.5 374 c 0
 262.5 404 242 430 214 430 c 0
 193 430 167 415.5 167 388 c 0xd8
 167 366.5 183 353 210 336 c 2
 232 322 l 1
EndSplineSet
Validated: 524289
EndChar

StartChar: nine
Encoding: 57 57 61
GlifName: nine
Width: 450
VWidth: 800
Flags: W
HStem: -73.5 10<132.25 144.195> 79 27<187.63 246.769> 232 17.5<182.777 234.974>
VStem: 122.5 40<125.13 216.25>
LayerCount: 2
Fore
SplineSet
273 139 m 1
 269.5 200 240 232 208.5 232 c 0
 181.5 232 162.5 208.5 162.5 177 c 0
 162.5 142 185.5 106 222.5 106 c 0
 244.5 106 259.5 118.5 273 139 c 1
273 115.5 m 1
 257.5 95 230 79 199.5 79 c 0
 148.5 79 122.5 123.5 122.5 161.5 c 0
 122.5 207 160 249.5 212.5 249.5 c 0
 265.5 249.5 315.5 206 315.5 129.5 c 0
 315.5 54.5 268.5 -46.5 134 -73.5 c 1
 131.5 -63.5 l 1
 224 -38.5 269 37.5 273 115.5 c 1
EndSplineSet
Validated: 524289
EndChar

StartChar: period
Encoding: 46 46 62
GlifName: period
Width: 178
VWidth: 800
Flags: W
HStem: 10.75 59.5<61.1431 118.857>
VStem: 60 60<11.8931 69.1461>
LayerCount: 2
Fore
SplineSet
120 40.75 m 0
 120 24.25 106.5 10.75 90 10.75 c 0
 73.5 10.75 60 24.25 60 40.75 c 0
 60 57.25 73.5 70.25 90 70.25 c 0
 106.5 70.25 120 57.25 120 40.75 c 0
EndSplineSet
Validated: 524289
EndChar

StartChar: comma
Encoding: 44 44 63
GlifName: comma
Width: 173
VWidth: 800
Flags: W
HStem: -9.5 51<60.2539 94.5045>
VStem: 95.25 29<-43.0107 11.5>
LayerCount: 2
Fore
SplineSet
86.75 41.5 m 0
 111.75 41.5 124.25 25 124.25 -2 c 0
 124.25 -31 104.25 -58 69.75 -75.5 c 1
 58.75 -63.5 l 1
 85.25 -48 95.25 -31.5 95.25 -18.5 c 0
 95.25 -13 93.25 -10.5 88.25 -9.5 c 0
 68.75 -6 59.75 3 59.75 17.5 c 0
 59.75 29 70.75 41.5 86.75 41.5 c 0
EndSplineSet
Validated: 524289
EndChar

StartChar: colon
Encoding: 58 58 64
GlifName: colon
Width: 179
VWidth: 800
Flags: W
HStem: 81.5 59.5<61.1431 118.857> 223 59.5<61.1431 118.857>
VStem: 60 60<82.6431 139.896 224.104 281.357>
LayerCount: 2
Fore
SplineSet
120 111.5 m 0
 120 95 106.5 81.5 90 81.5 c 0
 73.5 81.5 60 95 60 111.5 c 0
 60 128 73.5 141 90 141 c 0
 106.5 141 120 128 120 111.5 c 0
120 252.5 m 0
 120 236 106.5 223 90 223 c 0
 73.5 223 60 236 60 252.5 c 0
 60 269 73.5 282.5 90 282.5 c 0
 106.5 282.5 120 269 120 252.5 c 0
EndSplineSet
Validated: 524289
EndChar

StartChar: semicolon
Encoding: 59 59 65
GlifName: semicolon
Width: 178
VWidth: 800
Flags: W
HStem: -4.75 21G<60.75 89> 61.25 51<62.1533 97.5391> 194.25 59.5<62.8931 120.607>
VStem: 61.75 64.5<63.3378 109.584 197.124 250.78> 97.75 28.5<28.3303 82.25>
LayerCount: 2
Fore
SplineSet
121.75 223.75 m 0xf0
 121.75 207.25 108.25 194.25 91.75 194.25 c 0
 75.25 194.25 61.75 207.25 61.75 223.75 c 0
 61.75 240.25 75.25 253.75 91.75 253.75 c 0
 108.25 253.75 121.75 240.25 121.75 223.75 c 0xf0
88.75 112.25 m 0
 113.75 112.25 126.25 95.75 126.25 68.75 c 0xf0
 126.25 39.75 106.25 12.75 71.75 -4.75 c 1
 60.75 7.25 l 1
 87.25 22.75 97.75 39.25 97.75 52.25 c 0xe8
 97.75 57.75 94.75 60.25 89.75 61.25 c 0
 70.25 64.75 61.75 73.75 61.75 88.25 c 0
 61.75 99.75 72.75 112.25 88.75 112.25 c 0
EndSplineSet
Validated: 524289
EndChar

StartChar: exclam
Encoding: 33 33 66
GlifName: exclam
Width: 236
VWidth: 800
Flags: W
HStem: 139.25 59.5<89.1431 146.857>
VStem: 88 60<140.393 197.646 260.219 454.494>
LayerCount: 2
Fore
SplineSet
118 455.75 m 0
 133.5 455.75 146 443.25 146 427.75 c 0
 146 420.75 144.5 406.25 143.5 397.75 c 2
 123 234.75 l 1
 113 234.75 l 1
 92.5 397.75 l 2
 91 408.75 90 419.75 90 427.75 c 0
 90 443.25 102.5 455.75 118 455.75 c 0
148 169.25 m 0
 148 152.75 134.5 139.25 118 139.25 c 0
 101.5 139.25 88 152.75 88 169.25 c 0
 88 185.75 101.5 198.75 118 198.75 c 0
 134.5 198.75 148 185.75 148 169.25 c 0
EndSplineSet
Validated: 524289
EndChar

StartChar: question
Encoding: 63 63 67
GlifName: question
Width: 280
VWidth: 800
Flags: W
HStem: 144.75 59.5<76.8931 134.607>
VStem: 75.75 60<145.893 203.146> 98.75 10.5<235.25 253.25> 168.25 19.5<332.989 385.071>
LayerCount: 2
Fore
SplineSet
135.75 174.75 m 0xd0
 135.75 158.25 122.25 144.75 105.75 144.75 c 0
 89.25 144.75 75.75 158.25 75.75 174.75 c 0
 75.75 191.25 89.25 204.25 105.75 204.25 c 0
 122.25 204.25 135.75 191.25 135.75 174.75 c 0xd0
72.75 472.25 m 1
 116.102539062 462.766601562 187.75 407.171875 187.75 345.75 c 0
 187.75 320.227539062 175.913085938 309.831054688 146.75 295.25 c 0
 130.75 287.25 115.25 279.25 113.75 267.25 c 2
 109.25 235.25 l 1
 98.75 235.25 l 1xb0
 96.25 253.25 l 2
 91.25 292.75 89.25 301.75 86.75 308.75 c 1
 112.25 321.75 141.75 338.75 159.25 350.75 c 0
 165.25 354.75 168.25 357.75 168.25 368.25 c 0
 168.25 390.75 128.25 409.25 80.75 424.25 c 1
 74.25 433.75 71.25 446.75 71.25 458.75 c 0
 71.25 463.75 71.75 468.25 72.75 472.25 c 1
EndSplineSet
Validated: 524289
EndChar

StartChar: quotesingle
Encoding: 39 39 68
GlifName: quotesingle
Width: 149
VWidth: 800
Flags: W
HStem: 508.163 99.4521<65.6464 78.7539>
VStem: 51.5117 47.3174<511.746 607.106> 68.7627 9.99121<508.163 525.159>
LayerCount: 2
Fore
SplineSet
68.7626953125 508.163085938 m 1xa0
 57.00390625 585.59375 52.603515625 598.719726562 51.697265625 601.421875 c 0
 51.5693359375 601.802734375 51.51171875 601.9765625 51.51171875 602.09375 c 0
 51.51171875 605.09375 59.8544921875 607.615234375 70.8115234375 607.615234375 c 0
 81.8857421875 607.615234375 98.8291015625 601.86328125 98.8291015625 590.450195312 c 0xc0
 98.8291015625 589.470703125 98.7041015625 588.44921875 98.4404296875 587.38671875 c 2
 78.75390625 508.163085938 l 1
 68.7626953125 508.163085938 l 1xa0
EndSplineSet
Validated: 524289
EndChar

StartChar: quotedbl
Encoding: 34 34 69
GlifName: quotedbl
Width: 268
VWidth: 800
Flags: W
HStem: 508.163 99.4521<95.1727 108.28 154.315 167.421>
VStem: 81.0381 47.3174<511.746 607.106> 98.2891 9.99121<508.163 525.159> 140.179 47.3174<511.745 607.106> 157.431 9.99023<508.163 525.155>
LayerCount: 2
Fore
SplineSet
157.430664062 508.163085938 m 1x88
 145.673828125 585.57421875 141.271484375 598.713867188 140.365234375 601.420898438 c 0
 140.237304688 601.801757812 140.178710938 601.9765625 140.178710938 602.09375 c 0
 140.178710938 605.09375 148.521484375 607.615234375 159.479492188 607.615234375 c 0
 170.552734375 607.615234375 187.49609375 601.86328125 187.49609375 590.450195312 c 0x90
 187.49609375 589.470703125 187.37109375 588.44921875 187.107421875 587.38671875 c 2
 167.420898438 508.163085938 l 1
 157.430664062 508.163085938 l 1x88
98.2890625 508.163085938 m 1xa0
 86.5302734375 585.59375 82.1298828125 598.719726562 81.2236328125 601.421875 c 0
 81.095703125 601.802734375 81.0380859375 601.9765625 81.0380859375 602.09375 c 0
 81.0380859375 605.09375 89.380859375 607.615234375 100.337890625 607.615234375 c 0
 111.412109375 607.615234375 128.35546875 601.86328125 128.35546875 590.450195312 c 0xc0
 128.35546875 589.470703125 128.23046875 588.44921875 127.966796875 587.38671875 c 2
 108.280273438 508.163085938 l 1
 98.2890625 508.163085938 l 1xa0
EndSplineSet
Validated: 524289
EndChar

StartChar: quoteleft
Encoding: 256 8216 70
GlifName: quoteleft
Width: 172
VWidth: 800
Flags: W
HStem: 497 52<78.4955 112.614>
VStem: 48.75 29<527.5 581.653>
LayerCount: 2
Fore
SplineSet
86.25 497 m 0
 61.25 497 48.75 514 48.75 541 c 0
 48.75 570 69.25 597.5 103.75 615 c 1
 114.25 602 l 1
 87.75 586.5 77.75 570 77.75 557 c 0
 77.75 551.5 80.25 550 85.25 549 c 0
 104.75 545.5 113.25 535.5 113.25 521 c 0
 113.25 509.5 102.25 497 86.25 497 c 0
EndSplineSet
Validated: 524289
EndChar

StartChar: quoteright
Encoding: 257 8217 71
GlifName: quoteright
Width: 172
VWidth: 800
Flags: W
HStem: 497 21G<58.75 87> 563 52<60.2881 94.5045>
VStem: 95.25 29<529.654 584.5>
LayerCount: 2
Fore
SplineSet
86.75 615 m 0
 111.75 615 124.25 598 124.25 571 c 0
 124.25 542 104.25 514.5 69.75 497 c 1
 58.75 510 l 1
 85.25 525.5 95.25 541.5 95.25 554.5 c 0
 95.25 560 93.25 562 88.25 563 c 0
 68.75 566.5 59.75 576 59.75 590.5 c 0
 59.75 602 70.75 615 86.75 615 c 0
EndSplineSet
Validated: 524289
EndChar

StartChar: quotedblleft
Encoding: 258 8220 72
GlifName: quotedblleft
Width: 315
VWidth: 800
Flags: W
HStem: 497 52<114.245 148.364 184.689 219.835>
VStem: 84.5 29<527.5 581.653> 155.5 29<527.5 581.653>
LayerCount: 2
Fore
SplineSet
122 497 m 0
 97 497 84.5 514 84.5 541 c 0
 84.5 570 105 597.5 139.5 615 c 1
 150 602 l 1
 123.5 586.5 113.5 570 113.5 557 c 0
 113.5 551.5 116 550 121 549 c 0
 140.5 545.5 149 535.5 149 521 c 0
 149 509.5 138 497 122 497 c 0
193.5 497 m 0
 168.5 497 155.5 514 155.5 541 c 0
 155.5 570 176 597.5 210.5 615 c 1
 221.5 602 l 1
 195 586.5 184.5 570 184.5 557 c 0
 184.5 551.5 187 550 192 549 c 0
 211.5 545.5 220.5 535.5 220.5 521 c 0
 220.5 509.5 209.5 497 193.5 497 c 0
EndSplineSet
Validated: 524289
EndChar

StartChar: quotedblright
Encoding: 259 8221 73
GlifName: quotedblright
Width: 315
VWidth: 800
Flags: W
HStem: 497 21G<94.25 122.5 165.75 193.5> 563 52<95.7881 130.005 166.788 202.039>
VStem: 130.75 29<529.654 584.5> 202.25 28.5<530.609 584.5>
LayerCount: 2
Fore
SplineSet
193.25 615 m 0
 218.25 615 230.75 598 230.75 571 c 0
 230.75 542 210.75 514.5 176.25 497 c 1
 165.75 510 l 1
 192.25 525.5 202.25 541.5 202.25 554.5 c 0
 202.25 560 199.75 562 194.75 563 c 0
 175.25 566.5 166.25 576 166.25 590.5 c 0
 166.25 602 177.25 615 193.25 615 c 0
122.25 615 m 0
 147.25 615 159.75 598 159.75 571 c 0
 159.75 542 139.75 514.5 105.25 497 c 1
 94.25 510 l 1
 120.75 525.5 130.75 541.5 130.75 554.5 c 0
 130.75 560 128.75 562 123.75 563 c 0
 104.25 566.5 95.25 576 95.25 590.5 c 0
 95.25 602 106.25 615 122.25 615 c 0
EndSplineSet
Validated: 524289
EndChar

StartChar: hyphen
Encoding: 45 45 74
GlifName: hyphen
Width: 493
VWidth: 800
Flags: W
HStem: 161.5 31<170.75 324.25>
VStem: 170.75 153.5<161.5 192.5>
LayerCount: 2
Fore
SplineSet
170.75 192.5 m 1
 324.25 192.5 l 1
 324.25 161.5 l 1
 170.75 161.5 l 1
 170.75 192.5 l 1
EndSplineSet
Validated: 524289
EndChar

StartChar: endash
Encoding: 260 8211 75
GlifName: endash
Width: 392
VWidth: 800
Flags: W
HStem: 161.5 31<98.25 294.75>
VStem: 98.25 196.5<161.5 192.5>
LayerCount: 2
Fore
SplineSet
98.25 192.5 m 1
 294.75 192.5 l 1
 294.75 161.5 l 1
 98.25 161.5 l 1
 98.25 192.5 l 1
EndSplineSet
Validated: 524289
EndChar

StartChar: emdash
Encoding: 261 8212 76
GlifName: emdash
Width: 780
VWidth: 800
Flags: W
HStem: 161.5 31<195.25 585.75>
LayerCount: 2
Fore
SplineSet
195.25 192.5 m 1
 585.75 192.5 l 1
 585.75 161.5 l 1
 195.25 161.5 l 1
 195.25 192.5 l 1
EndSplineSet
Validated: 524289
EndChar

StartChar: ellipsis
Encoding: 262 8230 77
GlifName: ellipsis
Width: 626
Flags: W
HStem: 10.6982 59.7529<172.455 229.939 284.065 341.545 395.674 453.153>
VStem: 171.321 59.752<11.8325 69.3166> 282.931 59.748<11.8332 69.3158> 394.54 59.7471<11.8332 69.3158>
LayerCount: 2
Fore
SplineSet
454.287109375 40.57421875 m 0
 454.287109375 24.0859375 440.900390625 10.6982421875 424.412109375 10.6982421875 c 0
 407.924804688 10.7001953125 394.540039062 24.0869140625 394.540039062 40.57421875 c 0
 394.540039062 57.0625 407.924804688 70.4482421875 424.412109375 70.451171875 c 0
 440.900390625 70.4501953125 454.287109375 57.0634765625 454.287109375 40.57421875 c 0
342.678710938 40.57421875 m 0
 342.678710938 24.0869140625 329.293945312 10.7001953125 312.806640625 10.6982421875 c 0
 296.318359375 10.6982421875 282.930664062 24.0859375 282.930664062 40.57421875 c 0
 282.930664062 57.0634765625 296.318359375 70.4501953125 312.806640625 70.451171875 c 0
 329.293945312 70.4482421875 342.678710938 57.0625 342.678710938 40.57421875 c 0
231.073242188 40.57421875 m 0
 231.073242188 24.0859375 217.686523438 10.6982421875 201.197265625 10.6982421875 c 0
 184.708007812 10.6982421875 171.321289062 24.0859375 171.321289062 40.57421875 c 0
 171.321289062 57.0634765625 184.708007812 70.4501953125 201.197265625 70.451171875 c 0
 217.686523438 70.4501953125 231.073242188 57.0634765625 231.073242188 40.57421875 c 0
EndSplineSet
Validated: 524289
EndChar

StartChar: at
Encoding: 64 64 78
GlifName: at
Width: 784
Flags: W
HStem: 22.9688 14.6309<346.38 437.688> 97.4014 19.751<369.893 432.444> 224.646 23.2471<346.67 399.004> 281.921 17.9463<297.847 305.109 372.33 507.393> 356.669 14.7275<346.595 438.394>
VStem: 216.04 19.0098<142.544 250.732> 295.184 42.46<135.372 221.649> 454.479 41.6201<134.091 227.351> 548.712 19.0127<140.489 240.18>
LayerCount: 2
Fore
SplineSet
392.874023438 371.396484375 m 0
 432.372070312 371.396484375 469.77734375 360.42578125 507.182617188 329.791992188 c 1
 493.330078125 317.897460938 l 1
 460.283203125 345.897460938 426.409179688 356.668945312 392.259765625 356.668945312 c 0
 315.032226562 356.668945312 235.049804688 295.895507812 235.049804688 196.41015625 c 0
 235.049804688 96.9248046875 315.381835938 37.599609375 391.880859375 37.599609375 c 0
 468.383789062 37.599609375 548.711914062 96.1767578125 548.711914062 196.41015625 c 0
 548.711914062 251.420898438 517.110351562 281.920898438 465.282226562 281.920898438 c 2
 372.330078125 281.920898438 l 1
 389.743164062 279.240234375 406.803710938 274.74609375 429.973632812 268.538085938 c 0
 474.595703125 256.583007812 496.099609375 227.530273438 496.099609375 191.8515625 c 0
 496.099609375 142.0234375 457.634765625 97.4013671875 393.193359375 97.4013671875 c 0
 334.09375 97.4013671875 295.18359375 137.123046875 295.18359375 180.31640625 c 0
 295.18359375 225.46484375 329.188476562 247.893554688 361.856445312 247.893554688 c 0
 384.291992188 247.893554688 406.095703125 237.315429688 415.823242188 216.25390625 c 1
 403.853515625 208.8828125 l 1
 397.448242188 218.798828125 384.989257812 224.646484375 372.58984375 224.646484375 c 0
 355.055664062 224.646484375 337.643554688 212.952148438 337.643554688 184.528320312 c 0
 337.643554688 138.291015625 376.666992188 117.15234375 401.05859375 117.15234375 c 0
 435.880859375 117.15234375 454.479492188 141.348632812 454.479492188 176.580078125 c 0
 454.479492188 233.1953125 414.744140625 243.64453125 355.404296875 259.25 c 0
 331.204101562 265.61328125 304.901367188 272.530273438 276.725585938 281.920898438 c 1
 276.725585938 287.760742188 l 1
 313.71875 301.672851562 l 1
 321.2265625 300.706054688 334.177734375 299.8671875 345.2578125 299.8671875 c 2
 460.456054688 299.8671875 l 2
 526.196289062 299.8671875 567.724609375 266.26953125 567.724609375 196.748046875 c 0
 567.724609375 99.0625 492.249023438 22.96875 392.208007812 22.96875 c 0
 292.166992188 22.96875 216.040039062 98.34375 216.040039062 196.748046875 c 0
 216.040039062 295.15234375 292.08984375 371.396484375 392.874023438 371.396484375 c 0
EndSplineSet
Validated: 524289
EndChar

StartChar: numbersign
Encoding: 35 35 79
GlifName: numbersign
Width: 590
Flags: W
HStem: 208.793 34.3057<189.722 238.386 263.385 340.026 365.025 418.019> 353.405 34.3057<216.228 269.016 294.016 370.656 395.656 444.536>
VStem: 182.449 269.349
DStem2: 225.335 147.18 243.068 147.18 0.207215 0.978295<3.67462 62.9803 101.722 210.801 249.542 300.889> 326.976 147.18 344.709 147.18 0.207215 0.978295<3.67462 62.9803 101.722 210.801 249.542 300.889>
LayerCount: 2
Fore
SplineSet
389.32421875 441.538085938 m 1
 407.057617188 441.538085938 l 1
 395.65625 387.7109375 l 1
 451.797851562 387.7109375 l 1
 444.536132812 353.405273438 l 1
 388.389648438 353.405273438 l 1
 365.025390625 243.098632812 l 1
 425.291015625 243.098632812 l 1
 418.018554688 208.79296875 l 1
 357.759765625 208.79296875 l 1
 344.708984375 147.1796875 l 1
 326.975585938 147.1796875 l 1
 340.026367188 208.79296875 l 1
 256.119140625 208.79296875 l 1
 243.068359375 147.1796875 l 1
 225.334960938 147.1796875 l 1
 238.385742188 208.79296875 l 1
 182.44921875 208.79296875 l 1
 189.721679688 243.098632812 l 1
 245.651367188 243.098632812 l 1
 269.015625 353.405273438 l 1
 208.965820312 353.405273438 l 1
 216.227539062 387.7109375 l 1
 276.282226562 387.7109375 l 1
 287.682617188 441.538085938 l 1
 305.416992188 441.538085938 l 1
 294.015625 387.7109375 l 1
 377.922851562 387.7109375 l 1
 389.32421875 441.538085938 l 1
370.65625 353.405273438 m 1
 286.749023438 353.405273438 l 1
 263.384765625 243.098632812 l 1
 347.291992188 243.098632812 l 1
 370.65625 353.405273438 l 1
EndSplineSet
Validated: 524289
EndChar

StartChar: percent
Encoding: 37 37 80
GlifName: percent
Width: 615
Flags: W
HStem: 141.453 10.3125<368.153 400.333> 261.691 10.3115<368.191 400.326> 316.714 10.3135<214.307 246.454> 436.953 10.3135<214.301 246.483>
VStem: 165.113 27.6758<340.661 422.71> 267.979 27.6914<340.58 423.4> 318.965 27.6943<165.316 248.15> 421.841 27.6797<166.009 248.057>
DStem2: 192.281 147.18 216.427 147.18 0.57323 0.819394<13.8409 359.239>
LayerCount: 2
Fore
SplineSet
398.208007812 441.538085938 m 5
 422.352539062 441.538085938 l 5
 216.426757812 147.1796875 l 5
 192.28125 147.1796875 l 5
 398.208007812 441.538085938 l 5
230.393554688 447.266601562 m 4
 269.740234375 447.266601562 295.669921875 418.040039062 295.669921875 381.991210938 c 4
 295.658203125 345.930664062 269.936523438 316.71484375 230.380859375 316.713867188 c 4
 190.828125 316.713867188 165.11328125 345.94140625 165.11328125 381.989257812 c 4
 165.124023438 418.041992188 191.052734375 447.266601562 230.393554688 447.266601562 c 4
230.393554688 436.953125 m 4
 209.360351562 436.953125 192.7890625 416.071289062 192.7890625 381.98828125 c 4
 192.799804688 347.912109375 209.576171875 327.02734375 230.379882812 327.02734375 c 4
 251.172851562 327.02734375 267.978515625 347.473632812 267.978515625 381.9921875 c 4
 267.978515625 416.510742188 251.415039062 436.953125 230.393554688 436.953125 c 4
384.241210938 141.453125 m 4
 344.893554688 141.453125 318.96484375 170.6796875 318.96484375 206.725585938 c 4
 318.975585938 242.780273438 344.694335938 272.000976562 384.251953125 272.002929688 c 4
 423.801757812 272.002929688 449.520507812 242.776367188 449.520507812 206.73046875 c 4
 449.509765625 170.67578125 423.581054688 141.453125 384.241210938 141.453125 c 4
384.241210938 151.765625 m 4
 405.2734375 151.765625 421.840820312 172.6484375 421.840820312 206.73046875 c 4
 421.830078125 240.805664062 405.05859375 261.69140625 384.258789062 261.69140625 c 4
 363.509765625 261.690429688 346.659179688 241.330078125 346.659179688 206.702148438 c 4
 346.659179688 172.19921875 363.223632812 151.765625 384.241210938 151.765625 c 4
EndSplineSet
Validated: 524289
EndChar

StartChar: ampersand
Encoding: 38 38 81
GlifName: ampersand
Width: 705
Flags: W
HStem: 141.963 6.80566<357.815 368.915> 312.072 43.1377<210.936 254.366> 334.14 20.9561<359.533 427.601>
VStem: 295.261 46.3262<386.575 436.465> 463.098 44.4053<193.44 313.224>
LayerCount: 2
Fore
SplineSet
282.265625 352.653320312 m 1xb8
 256.025390625 336.634765625 245.578125 325.467773438 239.489257812 318.958984375 c 0
 235.171875 314.344726562 233.045898438 312.072265625 229.036132812 312.072265625 c 0
 221.693359375 312.072265625 201.6796875 347.290039062 201.6796875 355.3125 c 0
 201.6796875 358.786132812 202.478515625 361.918945312 204.140625 364.736328125 c 1
 208.984375 357.990234375 213.513671875 355.209960938 221.749023438 355.209960938 c 0xd8
 236.788085938 355.209960938 260.33203125 361.564453125 286.39453125 371.643554688 c 1
 290.829101562 391.967773438 295.260742188 414.344726562 295.260742188 423.005859375 c 0
 295.260742188 433.0234375 292.188476562 441.224609375 282.453125 447.860351562 c 1
 284.629882812 449.009765625 287.127929688 449.529296875 289.840820312 449.529296875 c 0
 309.874023438 449.529296875 341.586914062 421.197265625 341.586914062 409.159179688 c 0
 341.586914062 406.727539062 339.791015625 405.392578125 336.595703125 403.017578125 c 0
 331.346679688 399.115234375 322.319335938 392.405273438 311.276367188 373.41015625 c 1
 319.366210938 363.956054688 326.556640625 350.912109375 326.556640625 346.0234375 c 0
 326.556640625 343.282226562 324.9453125 342.336914062 321.529296875 340.333007812 c 0
 315.97265625 337.073242188 305.639648438 331.01171875 289.700195312 309.853515625 c 1
 289.150390625 305.1015625 288.852539062 300.327148438 288.846679688 295.571289062 c 1
 328.946289062 332.9609375 363.92578125 355.095703125 410.422851562 355.095703125 c 0
 463.391601562 355.095703125 507.502929688 325.536132812 507.502929688 259.323242188 c 0
 507.502929688 186.319335938 449.407226562 146.921875 360.688476562 141.962890625 c 1
 357.815429688 148.768554688 l 1
 423.209960938 163.493164062 463.09765625 198.14453125 463.09765625 256.5078125 c 0
 463.09765625 301.673828125 433.512695312 334.139648438 389.942382812 334.139648438 c 0
 352.927734375 334.139648438 324.356445312 310.102539062 290.560546875 257.884765625 c 1
 291.122070312 251.2265625 295.502929688 216.017578125 298.431640625 192.481445312 c 0
 299.952148438 180.263671875 301.080078125 171.19140625 301.081054688 170.892578125 c 0
 301.081054688 155.213867188 289.578125 132.892578125 283.3359375 132.892578125 c 0
 275.301757812 132.892578125 268.639648438 146.161132812 264.046875 159.129882812 c 0
 261.434570312 166.506835938 255.8359375 182.318359375 237.23046875 204.61328125 c 1
 234.438519438 196.188691183 232.480538939 189.226709198 230.895106557 183.589394789 c 0
 230.892309463 183.579449174 230.889513528 183.569507682 230.88671875 183.559570312 c 0
 227.028320312 169.837890625 225.37890625 163.975585938 219.288085938 163.975585938 c 0
 211.681640625 163.975585938 192.836914062 195.067382812 192.836914062 214.125976562 c 0
 192.836914062 219.284179688 199.017578125 227.36328125 210.813476562 242.780273438 c 0
 225.604492188 262.112304688 249.223632812 292.984375 280.5546875 344.107421875 c 0
 281.109375 347.015625 281.681640625 349.85546875 282.265625 352.653320312 c 1xb8
269.876953125 200.056640625 m 1
 269.879321431 200.12295321 269.921255997 200.671718883 269.993986836 201.6234919 c 0
 270.011226877 201.849099176 270.030197283 202.097350411 270.05078125 202.3671875 c 0
 270.815429688 212.361328125 273.842773438 251.923828125 273.842773438 266.491210938 c 0
 273.842773438 273.625976562 273.965820312 280.262695312 274.193359375 286.4765625 c 1
 269.2890625 278.171875 254.40234375 251.547851562 241.41015625 216.516601562 c 1
 266.290039062 201.581054688 266.290039062 201.581054688 269.876953125 200.056640625 c 1
EndSplineSet
Validated: 524289
EndChar

StartChar: asciicircum
Encoding: 94 94 82
GlifName: asciicircum
Width: 395
Flags: W
HStem: 409.219 119.666
VStem: 113.188 168.51
DStem2: 113.188 409.219 144.539 409.219 0.502499 0.864578<15.7536 123.296> 212.147 528.885 197.441 502.858 0.502499 -0.864578<15.112 122.654>
LayerCount: 2
Fore
SplineSet
182.739257812 528.884765625 m 1
 212.147460938 528.884765625 l 1
 281.698242188 409.21875 l 1
 250.34375 409.21875 l 1
 197.44140625 502.858398438 l 1
 144.5390625 409.21875 l 1
 113.188476562 409.21875 l 1
 182.739257812 528.884765625 l 1
EndSplineSet
Validated: 524289
EndChar

StartChar: asterisk
Encoding: 42 42 83
GlifName: asterisk
Width: 351
Flags: W
HStem: 421.96 65.5166<157.785 176.41> 472.375 39.6133<104.446 136.141> 497.883 15.3066G<159.878 180.682 182.021 198.626>
VStem: 137.011 39.5801<426.43 463.855>
LayerCount: 2
Fore
SplineSet
102.288085938 504.346679688 m 0x50
 102.288085938 509.059570312 102.288085938 511.98828125 108.705078125 511.98828125 c 0
 116.465820312 511.98828125 133.612304688 507.705078125 171.4921875 497.1171875 c 1
 171.30859375 489.599609375 l 1
 112.064453125 472.375 l 1
 108.515625 478.870117188 102.288085938 494.678710938 102.288085938 504.346679688 c 0x50
138.512695312 426.393554688 m 0
 137.708007812 427.166992188 137.010742188 427.836914062 137.010742188 429.296875 c 0
 137.010742188 433.662109375 143.239257812 445.091796875 171.4296875 487.4765625 c 1
 178.522460938 484.978515625 l 1
 176.590820312 423.310546875 l 1
 172.766601562 422.58984375 166.263671875 421.959960938 159.620117188 421.959960938 c 0x90
 150.932617188 421.959960938 142.005859375 423.037109375 138.512695312 426.393554688 c 0
219.506835938 437.600585938 m 0
 211.921875 445.893554688 196.9140625 463.80859375 180.578125 484.431640625 c 1
 185.143554688 490.404296875 l 1
 243.19921875 469.515625 l 2
 243.15625 469.180664062 237.46484375 433.896484375 226.083984375 433.896484375 c 0
 224.069335938 433.896484375 221.876953125 435.000976562 219.506835938 437.600585938 c 0
242.868164062 514.748046875 m 0
 232.626953125 510.099609375 210.954101562 501.354492188 186.297851562 492.189453125 c 1
 182.020507812 498.379882812 l 1
 219.826171875 547.134765625 l 1
 227.948242188 543.291992188 247.322265625 530.673828125 248.827148438 522.2578125 c 0
 249.400390625 519.166015625 248.569335938 517.338867188 242.868164062 514.748046875 c 0
170.400390625 568.861328125 m 0
 175.116210938 568.861328125 176.140625 565.860351562 176.708984375 560.801757812 c 0
 177.955078125 549.634765625 179.592773438 526.31640625 180.681640625 500.029296875 c 1
 173.478515625 497.8828125 l 1x30
 138.784179688 548.901367188 l 1
 144.727539062 555.189453125 161.577148438 568.861328125 170.400390625 568.861328125 c 0
EndSplineSet
Validated: 524289
EndChar

StartChar: less
Encoding: 60 60 84
GlifName: less
Width: 424
Flags: W
HStem: 87.123 223.792
VStem: 111.98 181.498
DStem2: 111.98 203.983 156.919 199.02 0.861585 0.507613<36.1986 194.154> 156.919 199.02 111.98 194.048 0.8616 -0.507589<0 157.955>
LayerCount: 2
Fore
SplineSet
111.98046875 203.983398438 m 5
 293.478515625 310.915039062 l 5
 293.478515625 278.405273438 l 5
 156.918945312 199.01953125 l 5
 293.478515625 119.6328125 l 5
 293.478515625 87.123046875 l 5
 111.98046875 194.047851562 l 5
 111.98046875 203.983398438 l 5
EndSplineSet
Validated: 524289
EndChar

StartChar: asciitilde
Encoding: 126 126 85
GlifName: asciitilde
Width: 685
Flags: W
HStem: 248.669 35.3545<359.886 452.565> 288.603 35.3516<232.015 323.835>
VStem: 194.886 294.81
LayerCount: 2
Fore
SplineSet
399.384765625 248.668945312 m 0
 371.435546875 248.668945312 349.159179688 259.278320312 327.571289062 269.560546875 c 0
 307.276367188 279.2265625 287.590820312 288.602539062 264.373046875 288.602539062 c 0
 242.880859375 288.602539062 221.965820312 276.89453125 206.329101562 255.844726562 c 1
 194.885742188 261.469726562 l 1
 210.654296875 295.724609375 243.572265625 323.954101562 285.193359375 323.954101562 c 0
 312.592773438 323.954101562 334.52734375 313.500976562 355.950195312 303.291015625 c 0
 376.3984375 293.545898438 396.380859375 284.0234375 420.208007812 284.0234375 c 0
 441.700195312 284.0234375 462.615234375 295.731445312 478.251953125 316.778320312 c 1
 489.6953125 311.154296875 l 1
 473.926757812 276.897460938 441.004882812 248.668945312 399.384765625 248.668945312 c 0
EndSplineSet
Validated: 524289
EndChar

StartChar: greater
Encoding: 62 62 86
GlifName: greater
Width: 424
Flags: W
HStem: 87.123 223.792
VStem: 130.932 181.498
DStem2: 130.932 310.915 130.932 278.405 0.861585 -0.507613<16.5024 174.457> 130.932 119.633 130.932 87.123 0.8616 0.507589<0 157.955>
LayerCount: 2
Fore
SplineSet
312.4296875 203.983398438 m 5
 312.4296875 194.047851562 l 5
 130.931640625 87.123046875 l 5
 130.931640625 119.6328125 l 5
 267.491210938 199.01953125 l 5
 130.931640625 278.405273438 l 5
 130.931640625 310.915039062 l 5
 312.4296875 203.983398438 l 5
EndSplineSet
Validated: 524289
EndChar

StartChar: equal
Encoding: 61 61 87
GlifName: equal
Width: 471
Flags: W
HStem: 137.227 26.915<137.145 333.569> 220.931 26.915<137.145 333.569>
VStem: 137.145 196.425<137.227 164.142 220.931 247.846>
LayerCount: 2
Fore
SplineSet
137.14453125 247.845703125 m 1
 333.569335938 247.845703125 l 1
 333.569335938 220.930664062 l 1
 137.14453125 220.930664062 l 1
 137.14453125 247.845703125 l 1
137.14453125 164.141601562 m 1
 333.569335938 164.141601562 l 1
 333.569335938 137.2265625 l 1
 137.14453125 137.2265625 l 1
 137.14453125 164.141601562 l 1
EndSplineSet
Validated: 524289
EndChar

StartChar: plus
Encoding: 43 43 88
GlifName: plus
Width: 471
Flags: W
HStem: 181.882 26.915<137.145 220.922 249.791 333.568>
VStem: 220.922 28.8691<90.5488 181.882 208.797 290.866>
LayerCount: 2
Fore
SplineSet
220.921875 208.796875 m 1
 220.921875 290.866210938 l 1
 249.791015625 290.866210938 l 1
 249.791015625 208.796875 l 1
 333.568359375 208.796875 l 1
 333.568359375 181.881835938 l 1
 249.791015625 181.881835938 l 1
 249.791015625 90.548828125 l 1
 220.921875 90.548828125 l 1
 220.921875 181.881835938 l 1
 137.14453125 181.881835938 l 1
 137.14453125 208.796875 l 1
 220.921875 208.796875 l 1
EndSplineSet
Validated: 524289
EndChar

StartChar: dollar
Encoding: 36 36 89
GlifName: dollar
Width: 413
Flags: W
HStem: 137.672 17.6602<172.68 197.545 221.808 242.399> 431.607 16.084<186.18 197.545 221.808 247.052> 464.072 20G<197.545 221.808>
VStem: 130.985 9.8916<215.938 221.396> 131.982 33.7637<353.728 414.62> 197.545 24.2627<102.194 138.778 155.582 272.734 341.362 429.672 447.687 484.072> 267.42 32.8848<175.416 248.279> 276.344 9.63281<379.504 386.437>
LayerCount: 2
Fore
SplineSet
197.544921875 484.072265625 m 1xec
 221.807617188 484.072265625 l 1
 221.807617188 447.686523438 l 1
 222.197265625 447.690429688 222.588867188 447.69140625 222.981445312 447.69140625 c 0
 253.662109375 447.69140625 276.633789062 438.53125 292.465820312 426.20703125 c 1
 289.787109375 422.21875 288.139648438 410.534179688 287.529296875 401.75 c 2
 285.9765625 379.50390625 l 1
 276.34375 379.50390625 l 1xed
 275.497070312 386.436523438 l 2
 272.178710938 413.622070312 245.725585938 428.826171875 221.807617188 431.607421875 c 1
 221.807617188 324.278320312 l 1
 251.158203125 303.661132812 l 2
 276.744140625 285.69140625 300.3046875 268.71875 300.3046875 226.725585938 c 0
 300.3046875 188.75390625 275.421875 145.796875 221.807617188 138.51171875 c 1
 221.807617188 102.194335938 l 1
 197.544921875 102.194335938 l 1
 197.544921875 137.671875 l 1
 163.885742188 139.702148438 139.744140625 154.495117188 122.040039062 168.295898438 c 1
 125.478515625 179.258789062 127.454101562 191.427734375 130.985351562 221.396484375 c 1
 140.876953125 221.396484375 l 1xf6
 141.443359375 215.9375 l 2
 143.920898438 191.997070312 158.497070312 160.797851562 197.544921875 155.33203125 c 1
 197.544921875 289.670898438 l 1
 171.9765625 307.51953125 l 2
 150.859375 322.259765625 131.982421875 341.522460938 131.982421875 370.330078125 c 0
 131.982421875 401.373046875 155.360351562 435.075195312 197.544921875 444.875 c 1
 197.544921875 484.072265625 l 1xec
221.807617188 272.734375 m 1
 221.807617188 155.58203125 l 1
 248.872070312 160.657226562 267.419921875 182.830078125 267.419921875 207.092773438 c 0xe6
 267.419921875 240.711914062 247.040039062 255.12109375 221.807617188 272.734375 c 1
197.544921875 341.362304688 m 1
 197.544921875 429.671875 l 1
 176.557617188 423.067382812 165.74609375 403.9296875 165.74609375 385.890625 c 0xec
 165.74609375 369.013671875 174.890625 357.758789062 197.544921875 341.362304688 c 1
EndSplineSet
Validated: 524289
EndChar

StartChar: parenleft
Encoding: 40 40 90
GlifName: parenleft
Width: 353
Flags: W
HStem: -13.1748 21G<228.729 257.404>
VStem: 119.789 43.0957<66.8614 308.046>
LayerCount: 2
Fore
SplineSet
162.884765625 187.456054688 m 0
 162.884765625 59.015625 201.03515625 21.2900390625 257.404296875 0.65625 c 1
 257.404296875 -13.1748046875 l 1
 200.0546875 -5.1103515625 152.301757812 27.630859375 132.64453125 86.9033203125 c 0
 123.739257812 113.751953125 119.7890625 146.008789062 119.7890625 187.456054688 c 0
 119.7890625 228.904296875 123.739257812 261.161132812 132.64453125 288.009765625 c 0
 152.301757812 347.282226562 200.0546875 380.022460938 257.404296875 388.086914062 c 1
 257.404296875 374.256835938 l 1
 201.018554688 353.616210938 162.884765625 315.874023438 162.884765625 187.456054688 c 0
EndSplineSet
Validated: 524289
EndChar

StartChar: parenright
Encoding: 41 41 91
GlifName: parenright
Width: 353
Flags: W
HStem: -13.1748 21G<95.918 124.592>
VStem: 190.437 43.0957<66.867 308.051>
LayerCount: 2
Fore
SplineSet
190.436523438 187.456054688 m 0
 190.436523438 315.896484375 152.286132812 353.622070312 95.91796875 374.256835938 c 1
 95.91796875 388.086914062 l 1
 153.266601562 380.022460938 201.01953125 347.282226562 220.676757812 288.009765625 c 0
 229.58203125 261.161132812 233.532226562 228.904296875 233.532226562 187.456054688 c 0
 233.532226562 146.008789062 229.58203125 113.751953125 220.676757812 86.9033203125 c 0
 201.01953125 27.630859375 153.266601562 -5.1103515625 95.91796875 -13.1748046875 c 1
 95.91796875 0.65625 l 1
 152.302734375 21.2958984375 190.436523438 59.0380859375 190.436523438 187.456054688 c 0
EndSplineSet
Validated: 524289
EndChar

StartChar: bracketleft
Encoding: 91 91 92
GlifName: bracketleft
Width: 310
Flags: W
HStem: -11.6689 17.8242<170.792 232.283> 372.589 16<170.792 232.283>
VStem: 130.161 40.6309<6.15527 370.764>
LayerCount: 2
Fore
SplineSet
130.161132812 390.53515625 m 1
 144.392578125 389.561523438 171.09765625 388.588867188 203.103515625 388.588867188 c 2
 232.283203125 388.588867188 l 1
 232.283203125 372.588867188 l 1
 170.791992188 370.763671875 l 1
 170.791992188 6.1552734375 l 1
 232.283203125 4.330078125 l 1
 232.283203125 -11.6689453125 l 1
 203.103515625 -11.6689453125 l 2
 171.09765625 -11.6689453125 144.396484375 -12.642578125 130.161132812 -13.6162109375 c 1
 130.161132812 390.53515625 l 1
EndSplineSet
Validated: 524289
EndChar

StartChar: bracketright
Encoding: 93 93 93
GlifName: bracketright
Width: 310
Flags: W
HStem: -11.6689 15.999<78.1641 139.655> 370.764 17.8252<78.1641 139.655>
VStem: 139.655 40.6309<6.15527 370.764>
LayerCount: 2
Fore
SplineSet
180.286132812 390.53515625 m 1
 180.286132812 -13.6162109375 l 1
 166.05078125 -12.642578125 139.349609375 -11.6689453125 107.34375 -11.6689453125 c 2
 78.1640625 -11.6689453125 l 1
 78.1640625 4.330078125 l 1
 139.655273438 6.1552734375 l 1
 139.655273438 370.763671875 l 1
 78.1640625 372.588867188 l 1
 78.1640625 388.588867188 l 1
 107.34375 388.588867188 l 2
 139.349609375 388.588867188 166.0546875 389.561523438 180.286132812 390.53515625 c 1
EndSplineSet
Validated: 524289
EndChar

StartChar: braceleft
Encoding: 123 123 94
GlifName: braceleft
Width: 248
Flags: W
HStem: -13.1748 14.2031<158.283 173.576> 181.617 11.6787<78.6191 94.0401> 373.884 14.2031<158.285 173.576>
VStem: 104.457 41.333<3.30496 180.331 194.581 371.609>
LayerCount: 2
Fore
SplineSet
101.706054688 65.2216796875 m 0
 101.706054688 81.3984375 103.608398438 125.27734375 104.249023438 140.05859375 c 0
 104.250147015 140.084495148 104.251266718 140.110307168 104.252382531 140.136029506 c 0
 104.380252075 143.083748896 104.45703125 144.853704878 104.45703125 144.987304688 c 0
 104.45703125 167.46484375 99.896484375 177.853515625 78.619140625 181.6171875 c 1
 78.619140625 193.295898438 l 1
 99.896484375 197.05859375 104.45703125 207.447265625 104.45703125 229.924804688 c 0
 104.45703125 236.134765625 104.01171875 244.73828125 103.479492188 255.024414062 c 0
 103.478519164 255.043239492 103.477545847 255.062070559 103.476572238 255.080907257 c 0
 102.68703228 270.356376185 101.706054688 289.335647048 101.706054688 309.690429688 c 0
 101.706054688 373.254882812 115.06640625 388.086914062 173.576171875 388.086914062 c 1
 173.576171875 373.883789062 l 1
 148.674804688 369.470703125 143.775390625 354.108398438 143.775390625 320.662109375 c 0
 143.775390625 311.200815021 144.22723243 298.403066479 144.701939356 284.957697336 c 0
 144.703636368 284.90963198 144.705333673 284.861558348 144.70703125 284.813476562 c 0
 145.235351562 269.890625 145.790039062 254.181640625 145.790039062 241.352539062 c 0
 145.790039062 211.375976562 143.306640625 197.137695312 125.06640625 187.456054688 c 1
 143.307617188 177.774414062 145.790039062 163.53515625 145.790039062 133.559570312 c 0
 145.790039062 129.79296875 144.747070312 90.7724609375 144.162109375 68.90234375 c 0
 143.93359375 60.3876953125 143.775390625 54.4716796875 143.775390625 54.25 c 0
 143.775390625 20.8037109375 148.674804688 5.44140625 173.576171875 1.0283203125 c 1
 173.576171875 -13.1748046875 l 1
 115.061523438 -13.1748046875 101.706054688 1.6630859375 101.706054688 65.2216796875 c 0
EndSplineSet
Validated: 524289
EndChar

StartChar: braceright
Encoding: 125 125 95
GlifName: braceright
Width: 248
Flags: W
HStem: -13.1748 14.2031<74.5801 90.2895> 181.617 11.6787<154.116 169.537> 373.884 14.2031<74.5801 90.2902>
VStem: 104.381 42.0459<4.01332 181.037 193.875 370.897>
LayerCount: 2
Fore
SplineSet
104.380859375 54.2509765625 m 0
 104.380859375 63.8821730575 103.915198142 76.9757548451 103.430595498 90.6019360807 c 0
 103.428990951 90.6470531461 103.427386196 90.6921760505 103.42578125 90.7373046875 c 0
 102.897460938 105.553710938 102.34765625 120.98828125 102.34765625 133.278320312 c 0
 102.34765625 166.909179688 106.418945312 178.599609375 123.08984375 187.456054688 c 1
 106.418945312 196.3125 102.34765625 208.002929688 102.34765625 241.6328125 c 0
 102.34765625 253.923828125 102.897460938 269.357421875 103.42578125 284.173828125 c 0
 103.427432949 284.2202747 103.429084445 284.266715192 103.430735721 284.313149486 c 0
 103.915287966 297.938880325 104.380859375 311.030865274 104.380859375 320.661132812 c 0
 104.380859375 354.107421875 99.4814453125 369.470703125 74.580078125 373.883789062 c 1
 74.580078125 388.086914062 l 1
 134.904296875 388.086914062 146.426757812 371.665039062 146.426757812 308.974609375 c 0
 146.426757812 288.5859375 145.45703125 269.979492188 144.673828125 254.956054688 c 0
 144.143554688 244.783203125 143.69921875 236.252929688 143.69921875 229.924804688 c 0
 143.69921875 207.447265625 148.259765625 197.05859375 169.537109375 193.295898438 c 1
 169.537109375 181.6171875 l 1
 148.259765625 177.853515625 143.69921875 167.46484375 143.69921875 144.987304688 c 0
 143.69921875 138.658203125 144.143554688 130.12890625 144.673828125 119.95703125 c 0
 145.45703125 104.93359375 146.426757812 86.3291015625 146.426757812 65.94140625 c 0
 146.426757812 3.2412109375 134.901367188 -13.1748046875 74.580078125 -13.1748046875 c 1
 74.580078125 1.0283203125 l 1
 99.4814453125 5.44140625 104.380859375 20.8046875 104.380859375 54.2509765625 c 0
EndSplineSet
Validated: 524289
EndChar

StartChar: bar
Encoding: 124 124 96
GlifName: bar
Width: 213
Flags: W
HStem: -11.6689 21G<92.7734 120.107>
VStem: 92.7734 27.334<-11.6689 388.589>
LayerCount: 2
Fore
SplineSet
92.7734375 388.588867188 m 1
 120.107421875 388.588867188 l 1
 120.107421875 -11.6689453125 l 1
 92.7734375 -11.6689453125 l 1
 92.7734375 388.588867188 l 1
EndSplineSet
Validated: 524289
EndChar

StartChar: slash
Encoding: 47 47 97
GlifName: slash
Width: 217
Flags: W
HStem: 147.18 294.358
VStem: 54.1602 108.321
DStem2: 54.1602 147.18 81.8848 147.18 0.264084 0.9645<7.32164 305.193>
LayerCount: 2
Fore
SplineSet
134.756835938 441.538085938 m 1
 162.481445312 441.538085938 l 1
 81.884765625 147.1796875 l 1
 54.16015625 147.1796875 l 1
 134.756835938 441.538085938 l 1
EndSplineSet
Validated: 524289
EndChar

StartChar: backslash
Encoding: 92 92 98
GlifName: backslash
Width: 217
Flags: W
HStem: 147.18 294.358
VStem: 54.1602 108.321
DStem2: 81.8848 441.538 54.1602 441.538 0.264087 -0.964499<0 297.871>
LayerCount: 2
Fore
SplineSet
81.884765625 441.538085938 m 1
 162.481445312 147.1796875 l 1
 134.7578125 147.1796875 l 1
 54.16015625 441.538085938 l 1
 81.884765625 441.538085938 l 1
EndSplineSet
Validated: 524289
EndChar

StartChar: underscore
Encoding: 95 95 100
GlifName: underscore
Width: 781
Flags: W
HStem: -188.631 30.8066<195.21 585.613>
LayerCount: 2
Fore
SplineSet
195.209960938 -157.82421875 m 1
 585.61328125 -157.82421875 l 1
 585.61328125 -188.630859375 l 1
 195.209960938 -188.630859375 l 1
 195.209960938 -157.82421875 l 1
EndSplineSet
Validated: 524289
EndChar

StartChar: grave
Encoding: 96 96 101
GlifName: grave
Width: 309
Flags: W
HStem: 505.947 88.1914
VStem: 110.407 91.4336
LayerCount: 2
Fore
SplineSet
186.26953125 505.947265625 m 1
 110.407226562 583.12109375 l 2
 110.131835938 583.828125 110 584.498046875 110 585.133789062 c 0
 110 591.313476562 122.443359375 594.138671875 135.623046875 594.138671875 c 0
 149.145507812 594.138671875 163.442382812 591.1640625 165.866210938 585.787109375 c 2
 201.840820312 505.947265625 l 1
 186.26953125 505.947265625 l 1
EndSplineSet
Validated: 524289
EndChar

StartChar: placeholder
Encoding: 263 57424 103
GlifName: placeholder
Width: 422
VWidth: 800
Flags: W
HStem: 6 43<130.5 139 283 291.5> 6 8.5<139 165.5 172 207.5 214 249.5 255.5 283> 57.5 38.5<130.5 139 283 291.5> 105 40<130.5 139 283 291.5> 154 39.5<130.5 139 283 291.5> 162.5 4.5<161.281 163.5 185.867 196.453 233.412 235.5 259.427 270.936> 185.947 3.05273<153.516 155.5 160.5 169.5 174 179.5 184.5 196.5 201.5 207 211.5 217 222 227.5 232.5 241.5 259.084 271.747> 202 43<130.5 139 283 291.5> 214 7.5<180.5 188.998> 223.5 5<264.5 275> 237 4<162 167.997 181.5 187.743 204 209.469 223.5 228.479 243.5 249.5 254 259.497> 253 38.5<130.5 139 283 291.5> 300 40.5<130.5 139 283 291.5> 349 45<130.5 139 283 291.5> 385 9<139 165.5 172 207.5 214 249.5 255.5 283>
VStem: 130.5 35<6 14.5 385 394> 130.5 8.5<14.5 49 57.5 96 105 145 154 193.5 202 245 253 291.5 300.5 340.5 349 385> 157 4.5<167.302 185 214.564 236.5> 168 5<167.208 185 201.348 236.963> 179.5 5<167.509 185> 189 5<225.091 236.219> 196.5 18<238 240.974> 196.5 5<168.5 185 189 196.5 236.502 237> 199 4.5<214.564 218 221.833 236.5> 207 4.5<163.014 185> 209.5 4.5<202.008 214.5 219 234.901> 217 5<149.523 157 158.5 185 189 196.5 199 200> 227.5 5<167.428 185 231 236.735> 238.5 5<201.023 236.5> 241.5 4.5<167.436 185> 249.5 4.5<176.5 180.774 214.508 237> 259.5 5<201.023 224.5 228 237> 283 8.5<14.5 51 59.5 98 107 147.5 156 195.5 204.5 247 255.5 293.5 302.5 343 351 385>
LayerCount: 2
Fore
SplineSet
130.5 340.5 m 1x3018b83380
 139 341 l 1
 139 300.5 l 1
 130.5 300 l 1
 130.5 340.5 l 1x3018b83380
130.5 291.5 m 1
 139 291.5 l 1
 139 253 l 1
 130.5 253 l 1
 130.5 291.5 l 1
130.5 245 m 1x3118b83380
 139 245 l 1
 139 202 l 1
 130.5 202 l 1
 130.5 245 l 1x3118b83380
130.5 193.5 m 1x3818b83380
 139 193.5 l 1
 139 154 l 1
 130.5 154 l 1
 130.5 193.5 l 1x3818b83380
130.5 145 m 1
 139 145.5 l 1
 139 105 l 1
 130.5 105 l 1
 130.5 145 l 1
130.5 96 m 1
 139 96 l 1
 139 57.5 l 1
 130.5 57.5 l 1
 130.5 96 l 1
130.5 49 m 1xb018b83380
 139 49 l 1xb018b83380
 139 14.5 l 1x7018b83380
 165.5 14.5 l 1
 165.5 6 l 1x7019383380
 130.5 6 l 1xb019383380
 130.5 49 l 1xb018b83380
130.5 394 m 1x301d383380
 165.5 394 l 1
 165.5 385 l 1x301b383380
 139 385 l 1x301ab83380
 139 349 l 1
 130.5 349 l 1x301cb83380
 130.5 364 130.5 379 130.5 394 c 1x301d383380
172 394 m 1
 207.5 394 l 1
 207.5 385 l 1
 172 385 l 1
 172 394 l 1
214 394 m 1x301a387380
 249.5 394 l 1
 249.5 385 l 1
 214 385 l 1
 214 394 l 1x301a387380
255.5 394 m 1
 291.5 394 l 1x301c383380
 291.5 351 l 1
 283 351 l 1
 283 385 l 1
 255.5 385 l 1
 255.5 394 l 1
291.5 343 m 1
 291.5 302.5 l 1
 283 302.5 l 1
 283 343 l 1
 291.5 343 l 1
291.5 293.5 m 1
 291.5 255.5 l 1
 283 255 l 1
 283 293.5 l 1
 291.5 293.5 l 1
291.5 247 m 1
 291.5 204.5 l 1
 283 204 l 1
 283 247 l 1
 291.5 247 l 1
199 218 m 1x30b8397380
 197 217 197 217 189.5 214 c 0
 186.5 214 179 214 176 220 c 1
 176 221.5 l 1
 180 222.5 180.5 223 180.5 223 c 1
 186.5 223 189 227 189 231 c 0
 189 233.5 188 237.5 181.5 237.5 c 1
 181.5 240 l 1
 185.5 241 l 2
 186.5 241 194 241 194 231 c 0
 194 223.5 187.5 221 183.5 219.5 c 1
 187 218.5 187 218.5 187.5 218.5 c 0
 192 217.5 197.5 221 199 225 c 1
 199 236.5 l 1x30b8397380
 199 236.5 196.5 239 196.5 239.5 c 2
 196.5 240 l 1
 196.687790287 240.187790287 196.804809718 240.234038862 197.169816449 240.378297306 c 0
 197.171150357 240.378824495 197.172487577 240.379352993 197.173828125 240.379882812 c 0
 197.78125 240.620117188 199.073242188 241.130859375 202.5 243 c 1
 204 241 l 1
 208.5 241 l 1
 209.5 241.5 209.5 241.5 214.5 242.5 c 1
 214.5 238 l 1x30b83c3380
 217.5 239 220.5 240 223.5 241 c 1
 226 241 l 2
 231.15234375 241 234.37890625 237.02734375 234.37890625 232.153320312 c 0
 234.37890625 227.094726562 230.903320312 221.065429688 222.5 217.5 c 0
 220.5 217 214 214.5 214 214.5 c 1
 214 203 l 1
 212.25 202.25 211.5 201.875 211 201.625 c 0
 210.5 201.375 210.25 201.25 209.5 201 c 1
 209.5 237 l 1
 203.5 237 l 1
 203.5 215.5 l 1
 202.502188185 214.834467314 201.50437637 214.61230041 200.506564555 214.390133505 c 0
 200.50437637 214.389646296 200.502188185 214.389159088 200.5 214.388671875 c 0
 200.49152542 214.386784957 200.483050839 214.384898319 200.474576259 214.383011681 c 0
 199.983050839 214.273586746 199.49152542 214.164161811 199 214 c 1
 199 218 l 1x30b8397380
154.5 239.5 m 1
 160.5 243 l 1
 162 241 l 1
 167.5 241 l 1
 168.5 241.5 168.5 241.5 173.5 242.5 c 1
 173 241 173 239 173 236.5 c 2
 173 203 l 1
 169.5 201.5 169.5 201.5 168 201 c 1
 168 237 l 1
 161.5 237 l 1
 161.5 215.5 l 1
 160.502188185 214.834467314 159.50437637 214.61230041 158.506564555 214.390133505 c 0
 158.50437637 214.389646296 158.502188185 214.389159088 158.5 214.388671875 c 0
 158.49152542 214.386784957 158.483050839 214.384898319 158.474576259 214.383011681 c 0
 157.983050839 214.273586746 157.49152542 214.164161811 157 214 c 1
 157 236.5 l 1x30b8783380
 154.5 239.5 l 1
236 240.5 m 1
 237.5 241.5 241.5 243 241.5 243 c 1x3078383780
 241.878729792 242.621270208 242.114309485 242.457745933 242.314419441 242.318842468 c 0
 242.316060639 242.317703254 242.317699452 242.316565695 242.319335938 242.315429688 c 0
 242.645507812 242.08984375 242.881835938 241.926757812 243.5 241 c 1
 259 241 l 1
 260 241.5 260 241.5 265 242.5 c 1
 265 242.08654265 264.914313511 241.587398811 264.813917485 241.002568483 c 0
 264.813770542 241.001712505 264.813623568 241.000856344 264.813476562 241 c 0
 264.812857592 240.996380093 264.812238044 240.992756902 264.811617934 240.989130427 c 0
 264.670375681 240.1631293 264.5 239.16675249 264.5 238 c 2
 264.5 228 l 1
 265.5 228 l 2
 266.809999857 228 268.120962503 228.137679029 269.359277683 228.267728525 c 0
 269.368102883 228.268655359 269.376924394 228.269581805 269.385742188 228.270507812 c 0
 270.5 228.388671875 271.555664062 228.5 272.5 228.5 c 2
 275 228.5 l 1
 275 228 274.5 226.5 273.5 223.5 c 0
 273.492249759 223.5 273.460511462 223.507996018 273.404785111 223.522035489 c 0
 273.390293953 223.525686333 273.374180687 223.529745844 273.356445312 223.534179688 c 0
 272.67578125 223.709960938 269.616210938 224.5 264.5 224.5 c 1
 264.5 203 l 1
 261 201.5 261 201.5 259.5 201 c 1
 259.5 237 l 1
 254 237 l 1
 254 215.5 l 1
 252.25 214.75 251.5 214.375 251 214.125 c 0
 250.5 213.875 250.25 213.75 249.5 213.5 c 1
 249.5 237 l 1
 243.5 237 l 1
 243.5 203 l 1
 240 201.5 240 201.5 238.5 201 c 1
 238.5 236.5 l 1x3078383b80
 236 240.5 l 1
215.5 219 m 0
 228 221 229 231 229 231 c 2
 229.5 232 230.5 237 223 237 c 0
 220 237 215 234.5 214 233.5 c 1
 214 219 l 1x3038387380
 214.5 219 215 219 215.5 219 c 0
189.5 210.5 m 2
 190 210.5 190.5 210.5 190.5 210 c 2
 190.5 209 l 2
 190.5 208.899414062 189.915039062 205.219726562 186 200 c 1
 185 203 182 209.5 182 209.5 c 1
 182 210 l 2
 182 210.5 183 210.5 183.5 210.5 c 2
 183.5 210.5 184 210 186.5 208.5 c 1
 189.5 210.5 l 2
217 196.5 m 1
 215 199 l 1
 215 200 l 1
 215.5 200 l 1
 218 201 220 201.5 222 202 c 1
 222 189 l 1
 269.5 189 l 1
 269.5 189 270.5 189.5 271.5 189.5 c 0
 272.5 189.5 272.5 189 272.5 189 c 2
 272.5 188.776367188 272.400390625 188.552734375 272.200195312 188.10546875 c 0
 272.199494882 188.103901779 272.198793219 188.102332062 272.198090324 188.100759587 c 0
 271.950853606 187.547656346 271.551167404 186.653502213 271 185 c 0
 270.928710938 185.0234375 268.098632812 185.947265625 264.875976562 185.947265625 c 0
 260.54296875 185.947265625 255.5 184.27734375 255.5 176.5 c 1
 255.5 176.5 256.3203125 166.657226562 267.24609375 166.657226562 c 0
 268.384765625 166.657226562 269.631835938 166.763671875 271 167 c 1
 271 164.5 l 1
 262 163 l 1
 254.3671875 163 250.258789062 169.827148438 250.258789062 176.3203125 c 0
 250.258789062 179.610351562 251.314453125 182.814453125 253.5 185 c 1
 246 185 l 1
 246 170.5 l 1
 244 163.5 235.5 163 235.5 163 c 1
 228.5 163 227.5 169 227.5 171 c 2
 227.5 185 l 1
 222 185 l 1
 222 151.5 l 1
 220.5 150.5 219 150 217 149.5 c 1
 217 185 l 1
 211.5 185 l 1
 211.5 164 l 1
 210.364086171 163.242399103 209.515356775 163.059167072 208.301611778 162.797131892 c 0
 208.29970823 162.796720935 208.297803784 162.796309785 208.295898438 162.795898438 c 0
 207.908203125 162.712890625 207.483398438 162.62109375 207 162.5 c 1
 207 185 l 1
 201.5 185 l 1
 201.5 168.5 l 1
 203 164 l 1
 201.97265625 163.315429688 200.711914062 163.099609375 199.375976562 162.87109375 c 0
 198.76171875 162.765625 198.130859375 162.657226562 197.5 162.5 c 1
 197 164.5 l 1
 195.5 163.5 190 162.5 187.5 162.5 c 0
 180 162.5 179.5 171 179.5 172 c 2
 179.5 185 l 1
 174 185 l 1
 174 170.5 l 1
 172 163.5 163.5 163 163.5 163 c 1
 159 162 155.5 166 155.5 171 c 2
 155.5 185 l 1
 146 185 l 1
 145 185.5 l 1
 145 187 145 187.5 151.5 193 c 1
 152.5 192 153.5 190.5 154.5 189 c 1
 196.5 189 l 1
 196.5 196.5 l 1
 196.5 196.5 194 198.5 194 199 c 0
 194.021484375 199.04296875 194.041992188 199.083984375 194.061523438 199.125 c 0
 194.510742188 200.04296875 194.754882812 200.54296875 200.5 201.5 c 0
 201 201.5 201 202 201 202 c 1
 201.5 202 l 1
 201.5 189 l 1
 217 189 l 1x37183ab780
 217 196.5 l 1
291.5 195.5 m 1
 291.5 156 l 1
 283 156 l 1
 283 195.5 l 1
 291.5 195.5 l 1
165 167 m 0
 167.5 167 169.5 168 169.5 171.5 c 2
 169.5 185 l 1
 160.5 185 l 1
 160.5 180.5 160.5 177 160.5 172.5 c 0
 160.5 167 164.5 167 165 167 c 0
184.5 185 m 1
 184.5 173 l 2
 184.5 172 186 168 187.5 167 c 1
 193.5 167 l 1
 194.5 167.5 195.5 168 196.5 169 c 1
 196.5 185 l 1
 184.5 185 l 1
237 167 m 0
 238.5 167 241.5 167 241.5 171.5 c 2
 241.5 185 l 1
 232.5 185 l 1
 232.5 173.5 l 2
 232.5 171.5 232.5 167 237 167 c 0
206 159 m 2
 206 159 206.5 158.5 209.5 157 c 1x3018387380
 213.5 158.5 l 1
 213.5 157 l 1
 209 149 l 1
 208.5 150 208 151 205 158 c 1
 205 158.5 l 2
 205 159 205.5 159 206 159 c 2
291.5 147.5 m 1
 291.5 107 l 1
 283 107 l 1
 283 147.5 l 1
 291.5 147.5 l 1
291.5 98 m 1
 291.5 59.5 l 1
 283 59.5 l 1
 283 98 l 1
 291.5 98 l 1
291.5 51 m 1
 291.5 6 l 1xb018383380
 255.5 6 l 1
 255.5 14.5 l 1
 283 14.5 l 1x7018383380
 283 51 l 1
 291.5 51 l 1
172 14.5 m 1x7018383380
 207.5 14.5 l 1
 207.5 6 l 1
 172 6 l 1
 172 14.5 l 1x7018383380
214 14.5 m 1x7018387380
 249.5 14.5 l 1
 249.5 6 l 1
 214 6 l 1
 214 14.5 l 1x7018387380
EndSplineSet
Validated: 524289
EndChar

StartChar: a.init
Encoding: 264 57344 104
GlifName: a.init
Width: 615
VWidth: 800
Flags: W
HStem: -22.584 81.1318<209.03 333.444> 439.992 43.0712<229.389 431.101 528.696 614.959>
VStem: 33.876 99.2656<146.748 349.159> 431.102 97.5156<107.7 439.989 483.064 666.464>
LayerCount: 2
Fore
SplineSet
614.958984375 483.065429688 m 5
 614.958984375 439.995117188 l 5
 528.622718606 439.992365726 l 5
 528.619028883 434.581514599 528.6171875 429.091160723 528.6171875 423.520507812 c 0
 528.6171875 222.138671875 529.201171875 144.560546875 532.705078125 90.25390625 c 1
 576.30859375 66.4443359375 l 2
 585.635742188 61.3515625 588.838867188 54.51171875 588.838867188 47.693359375 c 0
 588.838867188 17.8359375 515.963867188 -18.0205078125 493.6484375 -24.001953125 c 1
 470.346695141 6.35362182132 448.974336991 38.9231164268 428.703020764 70.4943925616 c 1
 390.289502602 40.1821216679 348.799980464 9.46898079248 328.064453125 -4.541015625 c 0
 314.751953125 -13.5361328125 298.1640625 -22.583984375 254.537109375 -22.583984375 c 0
 164.876953125 -22.583984375 33.8759765625 22.0849609375 33.8759765625 235.4453125 c 0
 33.8759765625 397.450646716 118.428760947 430.198788647 231.7421875 463.4765625 c 0
 281.217773438 478.0078125 331.76171875 483.059570312 429.685546875 483.061523438 c 0
 429.921456573 483.061523438 430.157366272 483.061530899 430.39327597 483.061538359 c 0
 430.629185669 483.06154582 430.865095367 483.061553281 431.101005066 483.061553281 c 1
 431.101005066 512.517602995 431.100656143 541.973652708 431.10030722 571.429702421 c 0
 431.099958298 600.885752135 431.099609375 630.341801849 431.099609375 659.797851562 c 1
 428.743367972 660.670901809 426.459309591 661.514226434 424.246695625 662.33117221 c 0
 386.689335852 676.198176061 369.716796875 682.46481101 369.716796875 697.499023438 c 0
 369.716796875 711.478989137 369.716796875 731.487403377 534.629882812 738.967773438 c 1
 531.018730201 704.398213803 529.094838057 625.289704905 528.695850473 483.063610941 c 5
 614.958984375 483.065429688 l 5
431.101345208 439.989257808 m 1
 237.207418177 439.989257808 133.141601562 439.989257808 133.141601562 271.037109375 c 0
 133.141601562 89.8173828125 222.83984375 58.5478515625 291.112304688 58.5478515625 c 0
 353.154121547 58.5478515625 391.674940212 83.7784801278 429.822222143 129.384898614 c 1
 430.890201929 208.153769558 431.10156452 322.759825623 431.10156452 411.995674805 c 2
 431.101345208 439.989257808 l 1
EndSplineSet
Validated: 524289
EndChar

StartChar: a.fina
Encoding: 265 57346 105
GlifName: a.fina
Width: 591
VWidth: 800
Flags: W
HStem: -270.999 21G<81.6992 109.697> -20.1996 73.0511<162.365 275.576> 439.994 43.0703<0.000976562 62.5233> 449.414 56.2314<245.399 389.3>
VStem: 63.9297 97.5088<-265.674 -18.1279 55.0465 412.049> 459.462 97.3359<205.757 376.371>
LayerCount: 2
Fore
SplineSet
351.918945312 505.645507812 m 0xdc
 451.453125 505.645507812 556.797851562 462.545898438 556.797851562 310.728515625 c 0
 556.797851562 159.860351562 434.370117188 75.2587890625 418.0625 65.84375 c 0
 396.041992188 53.130859375 318.1796875 17.1279296875 284.927734375 4.6552734375 c 0
 254.864045405 -6.62075651482 207.742180296 -15.9942102859 162.100439935 -20.1995657905 c 1
 162.925036994 -93.505391808 164.345925437 -149.904188103 165.337077144 -189.245604018 c 0
 165.980872435 -214.799530924 166.443359375 -233.156852964 166.443359375 -244.276367188 c 0
 166.443359375 -264.6953125 122.23828125 -270.999023438 97.1552734375 -270.999023438 c 0
 66.2431640625 -270.999023438 60.26171875 -267.8984375 60.26171875 -260.955078125 c 0
 60.26171875 -258.986232737 60.3466529431 -254.901675695 60.490672491 -247.975654065 c 0
 61.2930926973 -209.386588988 63.9296875 -82.5905192742 63.9296875 257.9375 c 2
 63.9296875 439.995117188 l 1
 0.0009765625 439.994140625 l 1
 -9.341796875 461.529296875 l 1
 0.0009765625 483.064453125 l 1xec
 51.658203125 483.065429688 l 1
 72.0595703125 500.393554688 133.373046875 530.810546875 174.876953125 544.670898438 c 1
 174.726729401 543.134441952 174.575640106 541.594328196 174.423821852 540.046783873 c 0
 172.395823867 519.374587464 170.237752039 497.376496236 168.275235459 465.058532168 c 1
 246.021334196 484.713633468 334.572606183 505.645507813 351.918945312 505.645507812 c 0xdc
161.515862041 57.8668888712 m 1
 179.559252047 54.832229293 202.552320906 52.8515625 224.837890625 52.8515625 c 0
 366.446289062 52.8515625 459.461914062 142.046875 459.461914062 278.145507812 c 0
 459.461914062 415.112304688 373.900390625 449.4140625 304.89453125 449.4140625 c 0xdc
 258.038398551 449.4140625 208.813531976 433.787154656 165.249729021 400.336624004 c 1
 162.989810164 336.482954791 161.438476562 243.786313873 161.438476562 98.9697265625 c 0
 161.438476562 84.8520118341 161.465603106 71.1508708405 161.515862041 57.8668888712 c 1
EndSplineSet
Validated: 524289
EndChar

StartChar: b.init
Encoding: 266 57347 106
GlifName: b.init
Width: 550
VWidth: 800
Flags: W
HStem: -270.995 21G<408.644 433.166> -24.3027 21G<146.074 185.639> 46.5518 24.8809<259.956 323.765> 439.998 43.0703<166.122 371.584 488.474 550.222> 597.002 131.896<224.203 321.817>
VStem: 64.6016 97.1523<74.5206 421.029> 207.062 131.896<614.143 711.758> 387.523 97.5098<-263.652 421.415>
LayerCount: 2
Fore
SplineSet
338.958007812 662.950195312 m 0
 338.958007812 626.552734375 309.407226562 597.001953125 273.009765625 597.001953125 c 0
 236.612304688 597.002929688 207.0625 626.552734375 207.061523438 662.950195312 c 0
 207.061523438 699.34765625 236.612304688 728.8984375 273.009765625 728.8984375 c 0
 309.407226562 728.8984375 338.958007812 699.34765625 338.958007812 662.950195312 c 0
161.577690972 406.511284722 m 0
 161.577690972 406.313771611 161.581757101 404.111194393 161.588654038 400.375199923 c 0
 161.627160405 379.51672758 161.75390625 310.859906753 161.75390625 276.486328125 c 0
 161.75390625 134.744854906 161.921573271 118.788346563 162.345703125 100.89453125 c 0
 162.990234375 73.51171875 168.631835938 71.4326171875 201.265625 71.4326171875 c 2
 309.3203125 71.4326171875 l 2
 319.875 71.4326171875 323.890625 67.509765625 323.890625 60.732421875 c 0
 323.890625 52.0888671875 317.048828125 49.1484375 301.6015625 46.5517578125 c 2
 245.965820312 37.2001953125 l 2
 199.1640625 29.333984375 190.959960938 24.4560546875 180.318359375 -24.302734375 c 1
 111.830078125 -24.302734375 64.2578125 4.6708984375 64.2578125 77.921875 c 0
 64.2578125 78.0740050125 64.2628949833 79.0736039666 64.2718239382 80.8297088954 c 0
 64.3363267544 93.5158199103 64.6015625 145.681140944 64.6015625 203.033203125 c 0
 64.6015625 281.534179688 64.5048828125 391.469726562 64.2490234375 408.504882812 c 1
 33.2998046875 425.147460938 17.525390625 438.006835938 17.525390625 450.421875 c 0
 17.525390625 465.102539062 45.423828125 486.009765625 123.379882812 534.768554688 c 1
 166.122070312 483.068359375 l 1
 550.221679688 483.068359375 l 1
 550.221679688 440 l 1
 488.473915889 439.999689547 l 1
 486.144930142 389.713877318 485.033203125 296.965406489 485.033203125 98.9736328125 c 0
 485.033203125 -39.317927249 488.837381393 -194.013429327 489.811871791 -233.640720888 c 0
 489.955020826 -239.461823442 490.037109375 -242.799923936 490.037109375 -243.23828125 c 0
 490.037109375 -259.453125 445.584960938 -270.995117188 420.74609375 -270.995117188 c 0
 396.541992188 -270.995117188 383.85546875 -268.973632812 383.85546875 -259.912109375 c 0
 383.85546875 -257.943266017 383.940402768 -253.882820707 384.084422046 -246.997683113 c 0
 384.886841722 -208.63636115 387.5234375 -82.5884805431 387.5234375 257.940429688 c 2
 387.5234375 411.874023438 l 1
 365.006029851 421.431036191 346.874630687 429.732152207 341.208926071 439.998949133 c 1
 161.75390625 439.998046875 l 1
 161.621744792 430.237304688 161.577690972 419.775499132 161.577690972 406.511284722 c 0
EndSplineSet
Validated: 524289
EndChar

StartChar: b.medi
Encoding: 267 57348 107
GlifName: b.medi
Width: 626
VWidth: 800
Flags: W
HStem: -22.5811 77.0146<226.007 324.291> 439.992 43.0654<-0.000976562 69.9492 542.921 625.837> 596.999 131.896<258.922 356.537>
VStem: 70.2148 96.9297<121.663 439.996> 241.781 131.896<614.14 711.755> 441.981 97.5146<100.767 420.321>
LayerCount: 2
Fore
SplineSet
180.373046875 543.94921875 m 1
 172.940429688 483.251953125 167.14453125 396.10546875 167.14453125 324.490234375 c 0
 167.14453125 188.344726562 176.844726562 132.494140625 200.391601562 100.251953125 c 0
 225.774414062 65.4970703125 269.866210938 54.43359375 310.133789062 54.43359375 c 0
 352.127847432 54.43359375 404.762514666 85.6263963953 440.661126624 116.596336692 c 1
 441.765111573 164.537306632 441.981445312 209.923257038 441.981445312 300.357421875 c 0
 441.981445312 342.7421875 441.796875 379.965820312 441.046875 408.497070312 c 1
 410.09765625 425.137695312 394.326171875 437.99609375 394.326171875 450.412109375 c 0
 394.326171875 465.09375 422.223632812 485.999023438 500.1796875 534.760742188 c 1
 542.920898438 483.057617188 l 1
 625.836914062 483.063476562 l 1
 625.836914062 439.9921875 l 1
 541.767578125 439.9921875 l 1
 540.599609375 418.677734375 539.49609375 380.92578125 539.49609375 306.990234375 c 0
 539.49609375 184.98828125 540.080078125 135.215820312 543.583007812 80.9091796875 c 1
 588.62109375 66.4443359375 l 2
 598.7421875 63.1943359375 601.153320312 54.5126953125 601.153320312 47.693359375 c 0
 601.153320312 17.8359375 532.532226562 -18.0234375 510.216796875 -24.00390625 c 1
 490.148257695 0.737698875004 462.765902916 38.0878932696 447.492036774 61.8083440163 c 1
 420.487174982 48.2872770155 384.654113171 30.046084591 353.39718733 14.1344217289 c 0
 327.904690924 1.15720156362 305.456099763 -10.2704870103 293.323242188 -16.32421875 c 0
 283.849609375 -21.05078125 276.266601562 -22.5810546875 250.584960938 -22.5810546875 c 0
 197.77734375 -22.5810546875 150.196289062 -1.9013671875 121.950195312 34.1806640625 c 0
 81.978515625 85.2412109375 70.21484375 134.53125 70.21484375 309.918945312 c 0
 70.21484375 325.503213915 70.2207119608 338.759153465 70.2258373988 350.337213544 c 0
 70.2298111064 359.313582882 70.2333383506 367.281418112 70.2333383506 374.5438349 c 0
 70.2333383506 400.80829105 70.1872055288 417.846580529 69.94921875 439.99609375 c 1
 -0.0009765625 439.99609375 l 1
 -9.34375 461.534179688 l 1
 -0.0009765625 483.071289062 l 1
 55.123046875 483.06640625 l 1
 67.548828125 497.825195312 132.788085938 531.3828125 180.373046875 543.94921875 c 1
373.677734375 662.947265625 m 0
 373.677734375 626.549804688 344.126953125 597 307.729492188 596.999023438 c 0
 271.33203125 596.999023438 241.78125 626.549804688 241.78125 662.947265625 c 0
 241.78125 699.344726562 271.33203125 728.895507812 307.729492188 728.895507812 c 0
 344.127929688 728.895507812 373.677734375 699.344726562 373.677734375 662.947265625 c 0
EndSplineSet
Validated: 524289
EndChar

StartChar: b.fina
Encoding: 268 57349 108
GlifName: b.fina
Width: 557
VWidth: 800
Flags: W
HStem: -22.5742 52.5283<278.683 432.348> 439.995 43.0693<0.00292969 181.436 211.051 464.732> 475.46 20G<520.067 520.482> 597.011 131.896<219.565 317.195>
VStem: 29.5293 99.6084<173.019 346.146> 202.431 131.896<614.143 711.775>
LayerCount: 2
Fore
SplineSet
334.327148438 662.959960938 m 0x9c
 334.327148438 626.537109375 304.80078125 597.010742188 268.377929688 597.010742188 c 0
 231.956656985 597.010742188 202.430664038 626.536132847 202.430664038 662.958154004 c 0
 202.431152437 699.389729112 231.962298752 728.907226562 268.377929688 728.907226562 c 0
 304.80078125 728.907226562 334.327148438 699.381835938 334.327148438 662.959960938 c 0x9c
486.231629756 32.7371494091 m 0
 486.231629756 16.6604682742 396.914889973 -22.57421875 319.975585938 -22.57421875 c 0
 154.98046875 -22.57421875 29.529296875 92.203125 29.529296875 249.100585938 c 0
 29.529296875 384.506835938 118.3359375 421.981445312 181.435546875 437.2578125 c 1
 181.435546875 439.995117188 l 1
 0.0029296875 439.995117188 l 1
 -9.33984375 461.532226562 l 1
 0.0029296875 483.064453125 l 1
 286.63671875 483.064453125 l 6xdc
 405.600585938 483.064453125 516.290039062 494.510742188 524.674804688 495.459960938 c 1xbc
 515.458383959 453.742777048 489.283629169 418.206783038 467.255144521 418.206783038 c 0
 464.311858342 418.206783038 458.606576076 420.01259941 450.248853658 422.657957039 c 0
 427.368035927 429.900114978 384.607382508 443.434570312 324.21484375 443.434570312 c 0
 215.934570312 443.434570312 129.137695312 392.553710938 129.137695312 274.1875 c 0
 129.137695312 126.536132812 246.315429688 29.9541015625 385.21484375 29.9541015625 c 0
 421.467651192 29.9541015625 441.277483599 33.7963002822 455.63702652 36.5813928713 c 0
 463.799951219 38.1646257924 470.201589775 39.40625 476.861328125 39.40625 c 0
 483.301520768 39.40625 486.231629756 36.4865978007 486.231629756 32.7371494091 c 0
EndSplineSet
Validated: 524289
EndChar

StartChar: c.init
Encoding: 269 57350 109
GlifName: c.init
Width: 511
VWidth: 800
Flags: W
HStem: -271.192 25.4795<396.896 453.293> -15.2744 21G<365.193 391.286> 440 43.0693<166.29 327.234 446.15 511.08>
VStem: 62.9912 97.5098<6.38925 423.824> 345.116 106.878<-8.59506 421.503>
LayerCount: 2
Fore
SplineSet
116.9921875 534.770507812 m 1
 166.290039062 483.069335938 l 1
 511.080078125 483.069335938 l 1
 511.080078125 440 l 1
 446.149794526 440 l 1
 446.301947058 172.264340422 449.713621916 78.1249200876 451.252683563 35.6571066743 c 0
 451.703884228 23.2069844251 451.994140625 15.1978481168 451.994140625 8.5576171875 c 0
 451.994140625 -9.404296875 404.212890625 -15.2744140625 378.359375 -15.2744140625 c 0
 352.02734375 -15.2744140625 345.116210938 -9.8046875 345.116210938 -2.2041015625 c 0
 345.116210938 8.13620777613 345.435065446 17.9869054979 345.889196431 32.0168375124 c 0
 347.012614915 66.7237513086 348.963867188 127.005779208 348.963867188 283.541992188 c 0
 348.963867188 362.043945312 348.866210938 388.787109375 348.610351562 405.82421875 c 1
 325.813709363 418.081792922 311.249666909 429.744852264 305.159042727 440 c 1
 162.831054688 440 l 1
 160.862304688 390.399414062 160.500976562 319.184570312 160.500976562 243.908203125 c 0
 160.500976562 39.1181640625 176.623046875 -41.1689453125 220.2265625 -103.916015625 c 0
 276.552734375 -184.967773438 366.51953125 -230.55859375 439.323242188 -245.712890625 c 0
 448.824763919 -247.69109454 453.297271084 -253.159882987 453.297271084 -258.526051281 c 0
 453.297271084 -264.93234575 446.922915858 -271.192382812 435.12109375 -271.192382812 c 0
 334.926757812 -271.192382812 208.625 -216.66015625 145.504882812 -136.073242188 c 0
 89.73828125 -64.8740234375 62.9912109375 6.62109375 62.9912109375 270.0859375 c 0
 62.9912109375 309.704101562 62.6728515625 381.90625 61.8779296875 415.6640625 c 1
 30.8310546875 427.890625 9.4921875 436.79296875 9.4921875 451.01171875 c 0
 9.4921875 468.741210938 59.3740234375 503.356445312 116.9921875 534.770507812 c 1
EndSplineSet
Validated: 524289
EndChar

StartChar: c.medi
Encoding: 270 57351 110
GlifName: c.medi
Width: 516
VWidth: 800
Flags: W
HStem: -271.19 25.4785<400.854 457.808> -15.2764 21G<369.864 395.957> 440 43.0664<-0.000976562 41.1365 166.767 331.903 450.82 515.75>
VStem: 66.9492 97.5098<6.38863 416.108> 349.787 106.878<-8.59684 421.502>
LayerCount: 2
Fore
SplineSet
-0.0009765625 483.06640625 m 1
 515.75 483.06640625 l 1
 515.75 440 l 1
 450.819716169 440 l 1
 450.971879185 172.261846049 454.384161361 78.1223777697 455.923475453 35.655136569 c 0
 456.3747416 23.20541732 456.665039062 15.1965694832 456.665039062 8.556640625 c 0
 456.665039062 -9.40625 408.883789062 -15.2763671875 383.030273438 -15.2763671875 c 0
 356.697265625 -15.2763671875 349.787109375 -9.8056640625 349.787109375 -2.2060546875 c 0
 349.787109375 8.13500074459 350.10589429 17.9861843593 350.559922894 32.0167075755 c 0
 351.68306007 66.7242173838 353.633789062 127.006208767 353.633789062 283.541992188 c 0
 353.633789062 362.04296875 353.537109375 388.787109375 353.28125 405.822265625 c 1
 330.482841352 418.081122174 315.91884857 429.744349441 309.828952287 440 c 1
 166.767284203 440 l 1
 164.806358225 390.407259603 164.458984375 319.087794818 164.458984375 243.907226562 c 0
 164.458984375 39.1162109375 180.581054688 -41.166015625 224.184570312 -103.913085938 c 0
 280.510742188 -184.96484375 370.477539062 -230.557617188 443.282226562 -245.711914062 c 0
 453.008553432 -247.736561283 457.826073583 -253.419476246 457.826073583 -258.905686661 c 0
 457.826073583 -265.176555755 451.531967056 -271.190429688 439.080078125 -271.190429688 c 0
 338.884765625 -271.190429688 212.58203125 -216.658203125 149.462890625 -136.0703125 c 0
 93.6953125 -64.8720703125 66.94921875 6.6181640625 66.94921875 270.083007812 c 0
 66.94921875 326.219726562 66.7529296875 367.379882812 65.9404296875 405.99609375 c 1
 42.4569584219 415.244114014 26.37978784 428.121534493 19.9402652195 440 c 1
 -0.0009765625 440 l 1
 -9.34375 461.534179688 l 1
 -0.0009765625 483.06640625 l 1
EndSplineSet
Validated: 524289
EndChar

StartChar: c.fina
Encoding: 271 57352 111
GlifName: c.fina
Width: 516
VWidth: 800
Flags: W
HStem: -271.19 25.4785<400.853 457.666> -15.2744 21G<369.868 395.961> 439.999 43.0654<-0.00292969 41.136 166.767 352.073>
VStem: 66.9482 97.5098<6.38955 416.109> 353.637 97.1807<-10.0945 439.999>
LayerCount: 2
Fore
SplineSet
-0.0029296875 483.064453125 m 1
 336.040039062 483.064453125 l 1
 351.206054688 495.751953125 400.737304688 519.50390625 461.831054688 540.291992188 c 1
 455.1484375 487.193359375 450.817382812 396.743164062 450.817382812 301.025390625 c 0
 450.817382812 144.331547303 453.922447897 76.5308222596 455.607301363 39.7411629547 c 0
 456.234606915 26.0436171349 456.665039062 16.6449053966 456.665039062 8.5576171875 c 0
 456.665039062 -9.4052734375 408.887695312 -15.2744140625 383.034179688 -15.2744140625 c 0
 356.701171875 -15.2744140625 349.791015625 -9.8037109375 349.791015625 -2.2041015625 c 0
 349.791015625 8.13657264271 350.109713439 17.987546372 350.563619767 32.0178255612 c 0
 351.68646973 66.7252034922 353.63671875 127.00754935 353.63671875 283.543945312 c 0
 353.63671875 356.323242188 353.5390625 417.616210938 353.327148438 439.999023438 c 1
 166.766934203 439.999023438 l 1
 164.80537268 390.40619944 164.458007813 319.086822754 164.458007812 243.907226562 c 0
 164.458007812 39.1171875 180.580078125 -41.166015625 224.18359375 -103.912109375 c 0
 280.509765625 -184.96484375 370.4765625 -230.557617188 443.28125 -245.711914062 c 0
 452.953730246 -247.725352487 457.684333886 -253.356665173 457.684333886 -258.814551406 c 0
 457.684333886 -265.118158945 451.374093025 -271.190429688 439.079101562 -271.190429688 c 0
 338.883789062 -271.190429688 212.58203125 -216.657226562 149.461914062 -136.0703125 c 0
 93.6953125 -64.8720703125 66.9482421875 6.6201171875 66.9482421875 270.083984375 c 0
 66.9482421875 316.250479199 66.5288226712 353.370722535 66.1636568544 385.689304415 c 0
 66.0848025171 392.668217119 66.0084780619 399.4232255 65.939453125 405.997070312 c 1
 42.455982755 415.244799342 26.3800226373 428.12114132 19.9405964313 439.999023438 c 1
 -0.0029296875 439.999023438 l 1
 -9.3427734375 461.534179688 l 1
 -0.0029296875 483.064453125 l 1
EndSplineSet
Validated: 524289
EndChar

StartChar: d.init
Encoding: 272 57353 112
GlifName: d.init
Width: 540
VWidth: 800
Flags: W
HStem: -22.3877 21G<138.739 245.431> 68.5176 22.7217<12.6309 45.5745> 439.993 43.0697<483.801 553.658>
VStem: 439.878 42.9875<374.157 439.993 483.063 565.834>
LayerCount: 2
Fore
SplineSet
68.617601933 452.160506343 m 0
 49.5285164915 452.160506343 45.1638161477 457.199350755 45.1638161477 464.7030886 c 0
 45.1638161477 479.837632582 70.4240481061 497.561148905 124.897803069 535.781957281 c 0
 136.450955414 543.888077784 149.318152973 552.91618118 163.537109375 563.037109375 c 1
 210.094092867 503.594724845 325.513443815 419.50867778 430.047874026 372.545915361 c 1
 436.531127098 406.861190035 439.877929688 444.817621959 439.877929688 486.678710938 c 0
 439.877929688 515.897460938 438.729492188 539.474609375 437.615234375 560.48828125 c 1
 389.791992188 575.09765625 373.49609375 583.357421875 373.49609375 596.155273438 c 0
 373.49609375 612.268554688 401.907226562 625.338867188 494.575195312 653.846679688 c 1
 487.149298522 612.194158373 483.808579663 567.100461658 483.800794888 483.063183272 c 5
 553.658203125 483.06640625 l 5
 553.658203125 439.99609375 l 5
 482.8654065 439.993480843 l 5
 470.674496705 167.348762799 340.318398213 36.1527631862 150.543945312 -22.3876953125 c 1
 126.934570312 12.79296875 85.4814453125 51.451171875 21.787109375 68.517578125 c 0
 15.5117892405 70.1992942566 12.5985662792 74.6887938927 12.5985662792 79.2375362443 c 0
 12.5985662792 85.146205284 17.5140965723 91.1548355581 26.361328125 91.2392578125 c 0
 233.225463222 93.210414607 378.928761669 162.466309183 424.640356929 347.648839849 c 1
 315.55938433 375.799037963 209.343248369 408.243756553 112.75390625 456.923828125 c 1
 95.659649838 454.102288564 80.3125630849 452.160506343 68.617601933 452.160506343 c 0
EndSplineSet
Validated: 524289
EndChar

StartChar: d.medi
Encoding: 273 57354 113
GlifName: d.medi
Width: 228
VWidth: 800
Flags: W
HStem: -15.5254 21G<82.8047 109.15> 440 43.0654<0 65.1178 162.701 227.886> 683.302 45.585<207.717 323.006>
VStem: 65.1875 97.5098<-8.91321 440.005 483.079 583.229>
LayerCount: 2
Fore
SplineSet
314.823242188 728.88671875 m 0
 397.767578125 728.88671875 445.197265625 690.734375 445.197265625 677.262695312 c 0
 445.197265625 652.231445312 405.701171875 621.313476562 360.005859375 614.297851562 c 1
 339.84375 656.233398438 307.0234375 683.301757812 263.573242188 683.301757812 c 0
 208.578047239 683.301757812 162.889869169 642.999554418 162.700784336 483.07867695 c 1
 227.885742188 483.083984375 l 1
 227.885742188 440.017578125 l 1
 162.69873568 440.01254988 l 1
 162.69873568 433.294524694 162.698354253 426.766991918 162.697979979 420.361870345 c 0
 162.697619484 414.192557866 162.697265625 408.136809194 162.697265625 402.133789062 c 0
 162.697265625 218.209005319 165.987369678 114.444146381 167.798177164 57.3340427554 c 0
 168.485689918 35.6509401063 168.959960938 20.6931561834 168.959960938 10.626953125 c 0
 168.959960938 -6.6103515625 119.890625 -15.525390625 98.41015625 -15.525390625 c 0
 67.19921875 -15.525390625 59.8046875 -12.1904296875 59.8046875 -6.048828125 c 0
 59.8046875 -4.01971031677 59.9370782036 -1.40081498204 60.1603344229 3.01554247834 c 0
 61.3606502358 26.7596679929 65.1875 102.460746122 65.1875 417.803710938 c 0
 65.1875 423.731494124 65.160843944 429.931989269 65.1341179046 436.14876333 c 0
 65.1285916016 437.434242868 65.1230623065 438.720418432 65.1177650659 440.005022904 c 1
 0 440 l 1
 -9.34375 461.533203125 l 1
 0 483.065429688 l 1
 65.4926005137 483.070762161 l 1
 72.0614988215 643.150604006 177.22953357 728.88671875 314.823242188 728.88671875 c 0
EndSplineSet
Validated: 524289
EndChar

StartChar: d.fina
Encoding: 274 57355 114
GlifName: d.fina
Width: 228
VWidth: 800
Flags: W
HStem: -15.5254 21G<82.8052 109.151> 440 43.0654<0 65.118> 683.302 45.585<207.668 323.007>
VStem: 65.1875 97.5098<-8.91321 440.008 483.074 583.231>
LayerCount: 2
Fore
SplineSet
314.823242188 728.88671875 m 0
 397.768554688 728.88671875 445.197265625 690.734375 445.197265625 677.262695312 c 0
 445.197265625 652.231445312 405.701171875 621.313476562 360.006835938 614.297851562 c 1
 339.844726562 656.233398438 307.0234375 683.301757812 263.573242188 683.301757812 c 0
 208.463867188 683.301757812 162.701171875 642.83203125 162.701171875 482.081054688 c 0
 162.701171875 466.146853455 162.700087953 451.590045729 162.699062059 437.81253553 c 0
 162.698140426 425.435221722 162.697265625 413.686855739 162.697265625 402.133789062 c 0
 162.697265625 218.209005319 165.987369678 114.444146381 167.798177164 57.3340427554 c 0
 168.485689918 35.6509401063 168.959960938 20.6931561834 168.959960938 10.626953125 c 0
 168.959960938 -6.6103515625 119.891601562 -15.525390625 98.41015625 -15.525390625 c 0
 67.2001953125 -15.525390625 59.8056640625 -12.1904296875 59.8056640625 -6.048828125 c 0
 59.8056640625 -4.01971031677 59.9380307474 -1.40081498204 60.1612464631 3.01554247834 c 0
 61.3613445119 26.7596679929 65.1875 102.460746122 65.1875 417.803710938 c 0
 65.1875 423.723348193 65.1610060607 429.914948403 65.1344411513 436.123134239 c 0
 65.128899344 437.41824762 65.1233544481 438.714082802 65.1180463529 440.008321263 c 1
 0 440 l 1
 -9.34375 461.533203125 l 1
 0 483.065429688 l 1
 65.4936815489 483.074263911 l 1
 72.0630590528 643.151854325 177.231499978 728.88671875 314.823242188 728.88671875 c 0
EndSplineSet
Validated: 524289
EndChar

StartChar: e.init
Encoding: 275 57356 115
GlifName: e.init
Width: 446
VWidth: 800
Flags: W
HStem: -20.7344 53.9551<136.297 280.463> 439.998 43.0713<209.8 445.677>
VStem: 51.5615 82.0557<300.984 400.665> 313.938 97.1074<83.1288 184.784>
DStem2: 203.707 310.561 151.729 230.347 0.976526 -0.215399<-70.0884 124.794>
LayerCount: 2
Fore
SplineSet
48.5682512894 54.8865117304 m 0
 48.5682512894 86.5078429334 42.0671399269 112.046236365 38.5932974099 125.692573426 c 0
 37.3268091328 130.667734455 36.4626977992 134.06223333 36.4626977992 135.594566818 c 0
 36.4626977992 142.905216593 41.6468181549 147.124516997 47.116452389 147.124516997 c 0
 50.8719756422 147.124516997 54.7621009113 145.135379576 57.201171875 140.791992188 c 0
 104.4921875 56.587890625 163.444335938 33.220703125 213.663085938 33.220703125 c 0
 279.563476562 33.220703125 313.938476562 73.681640625 313.938476562 131.1875 c 0
 313.938476562 176.517578125 291.364257812 195.314453125 243.966796875 207.206054688 c 2
 151.729492188 230.346679688 l 2
 88.1943359375 246.286132812 51.5615234375 272.26171875 51.5615234375 331.2421875 c 0
 51.5615234375 377.210092839 70.9543565712 411.604120811 119.385743294 441.314189381 c 1
 73.0019756178 471.712518605 63.4804121236 481.190608827 63.4804121236 493.238688186 c 0
 63.4804121236 509.504263973 105.996974101 530.359315828 206.930664062 544.04296875 c 1
 209.012695312 483.069335938 l 1
 445.676757812 483.06640625 l 1
 445.676757812 439.998046875 l 1
 228.4921875 439.998046875 l 2
 157.720703125 439.998046875 133.6171875 406.720703125 133.6171875 376.720703125 c 0
 133.6171875 338.646484375 154.220703125 321.4765625 203.70703125 310.560546875 c 2
 302.130859375 288.850585938 l 2
 377.518554688 272.221679688 411.045898438 239.916992188 411.045898438 163.1328125 c 0
 411.045898438 61.2529296875 315.494140625 -20.734375 181.600585938 -20.734375 c 0
 138.497070312 -20.734375 70.2939453125 -10.5322265625 39.1376953125 2.5283203125 c 1
 45.6256621334 15.9344548209 48.5682512894 34.4311191184 48.5682512894 54.8865117304 c 0
EndSplineSet
Validated: 524289
EndChar

StartChar: e.medi
Encoding: 276 57357 116
GlifName: e.medi
Width: 591
VWidth: 800
Flags: W
HStem: -22.5742 48.0166<237.884 381.009> 439.989 43.0479<0.000976562 157.649 205.555 371.905 472.209 590.718>
VStem: 29.5273 102.194<145.269 337.928> 459.043 102.148<141.142 342.177>
LayerCount: 2
Fore
SplineSet
285.234375 439.985351562 m 0
 207.373046875 439.985351562 131.721679688 386.625976562 131.721679688 262.37109375 c 0
 131.721679688 90.91015625 238.033203125 25.4423828125 309.1875 25.4423828125 c 0
 393.69921875 25.4423828125 459.04296875 102.950195312 459.04296875 215.368164062 c 0
 459.04296875 350.349609375 407.190429688 439.985351562 285.234375 439.985351562 c 0
0.0009765625 483.037109375 m 1
 590.717773438 483.037109375 l 1
 590.717773438 439.966796875 l 1
 472.208984375 439.966796875 l 1
 517.9140625 411.857421875 561.19140625 350.232421875 561.19140625 249.022460938 c 0
 561.19140625 85.8828125 434.76953125 -22.57421875 288.709960938 -22.57421875 c 0
 131.888671875 -22.57421875 29.52734375 91.9345703125 29.52734375 228.73046875 c 0
 29.52734375 348.775390625 91.7001953125 413.75390625 157.649414062 439.994140625 c 1
 0.0009765625 439.989257812 l 1
 -9.341796875 461.513671875 l 1
 0.0009765625 483.037109375 l 1
EndSplineSet
Validated: 524289
EndChar

StartChar: e.fina
Encoding: 277 57358 117
GlifName: e.fina
Width: 472
VWidth: 800
Flags: W
HStem: -270.999 21G<81.6992 109.697> 439.995 43.0703<0 63.629>
VStem: 63.9297 97.5088<-265.674 194.446 215.655 435.625>
LayerCount: 2
Fore
SplineSet
486.243164062 187.999023438 m 1
 459.553231258 89.1767286884 447.058989393 52.1012951852 430.932070267 52.1012951852 c 0
 422.721402955 52.1012951852 415.829870136 64.4427739112 409.322265625 90.974609375 c 1
 330.153954789 114.217305656 240.327479044 151.164077233 161.719679373 194.446490302 c 1
 161.534573045 165.237203299 161.438476562 133.501766342 161.438476562 98.9697265625 c 0
 161.438476562 -34.4991187458 163.863019571 -130.735971997 165.337073721 -189.245279731 c 0
 165.980870795 -214.799375617 166.443359375 -233.156833258 166.443359375 -244.276367188 c 0
 166.443359375 -264.694335938 122.23828125 -270.999023438 97.1552734375 -270.999023438 c 0
 66.2431640625 -270.999023438 60.26171875 -267.8984375 60.26171875 -260.955078125 c 0
 60.26171875 -258.986234767 60.346652768 -254.901684115 60.4906720457 -247.97567204 c 0
 61.2930917218 -209.386613288 63.9296875 -82.5904336662 63.9296875 257.938476562 c 2
 63.9296875 439.99609375 l 1
 0 439.995117188 l 1
 -9.3427734375 461.530273438 l 1
 0 483.065429688 l 1
 42.8564453125 483.06640625 l 1
 59.7490234375 496.677734375 138.295898438 536.876953125 180.2109375 551.975585938 c 1
 171.036681802 504.898777911 163.787763263 438.215008933 161.912409466 220.326894903 c 1
 246.664440421 199.690084302 360.481730635 187.998103107 484.339439274 187.998103107 c 0
 484.973751718 187.998103107 485.608327499 187.998409761 486.243164062 187.999023438 c 1
EndSplineSet
Validated: 524289
EndChar

StartChar: f.init
Encoding: 278 57359 118
GlifName: f.init
Width: 438
VWidth: 800
Flags: W
HStem: -268.824 280.279<199.797 296.233> -17.5459 21G<77.1997 99.7627> 439.961 43.0915<236.767 438.283>
VStem: 195.487 106.875<-262.145 -48.1161>
LayerCount: 2
Fore
SplineSet
302.887695312 11.455078125 m 1xb0
 299.682617188 -6.9365234375 296.513671875 -57.5576171875 296.513671875 -105.651367188 c 0
 296.513671875 -145.584496406 299.407219683 -193.284161107 301.123805441 -221.581797956 c 0
 301.847711479 -233.515271179 302.362304688 -241.998256478 302.362304688 -244.993164062 c 0
 302.362304688 -262.955078125 254.583984375 -268.82421875 228.73046875 -268.82421875 c 0
 202.3984375 -268.82421875 195.487304688 -263.354492188 195.487304688 -255.754882812 c 0
 195.487304688 -253.856030407 195.651971356 -250.020498243 195.913035616 -243.939605364 c 0
 196.911358028 -220.685975583 199.319335938 -164.597655713 199.319335938 -58.4130859375 c 1
 165.963867188 -45.8017578125 147.293945312 -31.1044921875 147.293945312 -18.99609375 c 0
 147.293945312 -0.80078125 193.689453125 6.783203125 302.887695312 11.455078125 c 1xb0
375.619423443 285.311494874 m 1
 385.442258157 288.026835499 404.359085255 293.256041795 411.232200423 293.256041795 c 0
 420.839225629 293.256041795 425.765233019 288.489064047 425.765233019 282.851111024 c 0
 425.765233019 277.0300719 420.514097946 270.280571152 409.7421875 266.890625 c 0
 288.057617188 228.594726562 195.551757812 119.717773438 138.205078125 23.31640625 c 0
 121.2890625 -5.12109375 109.572265625 -17.5458984375 89.953125 -17.5458984375 c 0x70
 64.4462890625 -17.5458984375 42.3212890625 8.55078125 42.3212890625 38.828125 c 0
 42.3212890625 119.924184607 188.322561544 225.234214466 345.197705195 276.165260051 c 1
 276.357927494 310.57690922 183.827459404 370.386530193 120.780273438 431.455078125 c 1
 116.415711817 431.300256113 112.309963222 431.22070879 108.463295001 431.22070879 c 0
 80.0153473902 431.22070879 65.7373046875 435.571397326 65.7373046875 446.000976562 c 0
 65.7373046875 467.27734375 130.225585938 500.072265625 187.904296875 524.1640625 c 1
 194.204161269 510.467271564 201.398107232 496.725928354 209.32207637 483.052614972 c 1
 247.482264163 483.052614972 285.642451955 483.054353807 323.802639748 483.056092642 c 0
 361.96282754 483.057831477 400.123015333 483.059570312 438.283203125 483.059570312 c 1
 438.283203125 439.989257812 l 1
 236.767493469 439.961104095 l 1
 277.049103467 381.824609044 327.796148071 327.212039709 375.619423443 285.311494874 c 1
EndSplineSet
Validated: 524289
EndChar

StartChar: f.medi
Encoding: 279 57360 119
GlifName: f.medi
Width: 230
VWidth: 800
Flags: W
HStem: -15.2754 21G<83.4409 109.534> 440 43.0664<0 45.4804 166.056 230.494>
VStem: 63.3643 106.878<-8.59587 421.502>
LayerCount: 2
Fore
SplineSet
0 483.06640625 m 1
 230.494140625 483.06640625 l 1
 230.494140625 440 l 1
 166.055988677 440 l 1
 164.854904503 383.909421109 164.391601562 303.210152816 164.391601562 238.981445312 c 0
 164.391601562 142.502551393 167.136248326 84.0716725655 168.865782901 47.2515518571 c 0
 169.661389716 30.3138511718 170.2421875 17.9492272821 170.2421875 8.5576171875 c 0
 170.2421875 -9.4052734375 122.4609375 -15.275390625 96.607421875 -15.275390625 c 0
 70.2744140625 -15.275390625 63.3642578125 -9.8046875 63.3642578125 -2.2060546875 c 0
 63.3642578125 8.13500074459 63.6830427272 17.9861843593 64.1370713314 32.0167075755 c 0
 65.2602085082 66.7242173838 67.2109375 127.006208767 67.2109375 283.541992188 c 0
 67.2109375 362.04296875 67.1142578125 388.787109375 66.8583984375 405.822265625 c 1
 44.0599897898 418.081122174 29.4959970076 429.744349441 23.4061007245 440 c 1
 0 440 l 1
 -9.3427734375 461.887695312 l 1
 0 483.06640625 l 1
EndSplineSet
Validated: 524289
EndChar

StartChar: f.fina
Encoding: 280 57361 120
GlifName: f.fina
Width: 440
VWidth: 800
Flags: W
HStem: -17.5264 21G<77.355 99.9175> 440.007 42.9933<-0.000976562 60.8362 183.768 399.612> 474.677 20G<440.689 444.664>
VStem: 42.4766 95.8838<-7.67287 66.2801>
LayerCount: 2
Fore
SplineSet
349.275323783 299.975796578 m 1xd0
 364.597666596 305.458255291 368.151144834 306.424170894 372.996797115 306.424170894 c 0
 380.237803782 306.424170894 383.826993053 302.838308199 383.826993053 297.957360892 c 0
 383.826993053 292.191284843 378.818018164 284.617823948 368.903320312 279.013671875 c 0
 284.2734375 231.174804688 180.665039062 129.162109375 138.360351562 23.3349609375 c 0
 126.077148438 -7.388671875 109.7265625 -17.5263671875 90.1083984375 -17.5263671875 c 0
 64.6015625 -17.5263671875 42.4765625 8.5693359375 42.4765625 38.8466796875 c 0
 42.4765625 119.972877733 173.531237719 226.439882188 311.554439668 285.19113494 c 1
 232.684597956 319.413933723 128.042188888 380.758727108 64.7858302173 439.999213211 c 1
 53.9880290874 439.999213211 43.1902279574 439.998189205 32.3924268274 439.997165199 c 0
 21.5946256975 439.996141194 10.7968245675 439.995117188 -0.0009765625 439.995117188 c 1
 -9.34375 461.530273438 l 1
 -0.0009765625 483.065429688 l 1
 4.76435710593 483.065429688 9.52969077437 483.06594553 14.2950244428 483.066461372 c 0
 19.0603581112 483.066977215 23.8256917797 483.067493057 28.5910254481 483.067493057 c 1
 52.9882219194 500.465631906 91.533692728 522.28330159 122.03125 534.092773438 c 1
 129.870669192 517.297136862 139 500 151 483 c 1
 257 483 l 2xd0
 358 483 441.724609375 493.747070312 447.602539062 494.676757812 c 1xb0
 433.776320103 453.262179015 416.456897008 423.525078747 399.62087735 423.525078747 c 0
 399.459426907 423.525078747 398.160163442 423.810632343 395.903609726 424.306580275 c 0
 381.01345314 427.579155759 324.44107921 440.012696191 278.053681784 440.012696191 c 2
 183.767756495 440.006735619 l 1
 226.467052155 389.319935219 283.292063669 340.307224943 349.275323783 299.975796578 c 1xd0
EndSplineSet
Validated: 524289
EndChar

StartChar: g.init
Encoding: 281 57362 121
GlifName: g.init
Width: 511
VWidth: 800
Flags: W
HStem: -271.191 25.4785<396.896 453.292> -15.2744 21G<365.193 391.286> 440 43.0703<166.29 327.234 446.149 511.08> 596.997 131.896<209.17 306.784>
VStem: 62.9912 97.5088<6.38925 423.825> 192.029 131.896<614.138 711.753> 345.116 106.878<-8.59489 421.503>
LayerCount: 2
Fore
SplineSet
323.924804688 662.9453125 m 0
 323.924804688 626.547851562 294.375 596.998046875 257.977539062 596.997070312 c 0
 221.580078125 596.997070312 192.029296875 626.547851562 192.029296875 662.9453125 c 0
 192.029296875 699.342773438 221.580078125 728.893554688 257.977539062 728.893554688 c 0
 294.375 728.893554688 323.924804688 699.342773438 323.924804688 662.9453125 c 0
116.9921875 534.770507812 m 1
 166.290039062 483.0703125 l 1
 511.080078125 483.0703125 l 1
 511.080078125 440 l 1
 446.148818842 440 l 1
 446.300997343 172.263341348 449.713266667 78.1242276301 451.252577016 35.6570896942 c 0
 451.703843163 23.2073704451 451.994140625 15.1985226083 451.994140625 8.55859375 c 0
 451.994140625 -9.404296875 404.212890625 -15.2744140625 378.359375 -15.2744140625 c 0
 352.026367188 -15.2744140625 345.116210938 -9.8046875 345.116210938 -2.2041015625 c 0
 345.116210938 8.1365726427 345.43507061 17.9874654432 345.889207464 32.0176293692 c 0
 347.012627691 66.7247221681 348.963867188 127.006572788 348.963867188 283.54296875 c 0
 348.963867188 362.043945312 348.866210938 388.788085938 348.610351562 405.82421875 c 1
 325.813998561 418.081637422 311.250036429 429.744556349 305.159274528 440 c 1
 162.831054688 440 l 1
 160.862304688 390.399414062 160.5 319.185546875 160.5 243.909179688 c 0
 160.5 39.1181640625 176.623046875 -41.1689453125 220.2265625 -103.915039062 c 0
 276.552734375 -184.967773438 366.518554688 -230.557617188 439.323242188 -245.712890625 c 0
 448.824413329 -247.690669082 453.29687563 -253.159304453 453.29687563 -258.525392289 c 0
 453.29687563 -264.931473553 446.92281748 -271.19140625 435.12109375 -271.19140625 c 0
 334.926757812 -271.19140625 208.625 -216.66015625 145.504882812 -136.073242188 c 0
 89.73828125 -64.8740234375 62.9912109375 6.62109375 62.9912109375 270.0859375 c 0
 62.9912109375 309.705078125 62.6728515625 381.90625 61.8779296875 415.665039062 c 1
 30.8310546875 427.890625 9.4921875 436.79296875 9.4921875 451.01171875 c 0
 9.4921875 468.7421875 59.3740234375 503.357421875 116.9921875 534.770507812 c 1
EndSplineSet
Validated: 524289
EndChar

StartChar: g.medi
Encoding: 282 57363 122
GlifName: g.medi
Width: 516
VWidth: 800
Flags: W
HStem: -271.191 25.4795<400.854 457.807> -15.2764 21G<369.864 395.957> 440 43.0664<-0.000976562 41.1365 166.767 331.903 450.82 515.75> 596.995 131.896<213.841 311.456>
VStem: 66.9492 97.5098<6.38853 416.108> 196.7 131.896<614.136 711.751> 349.787 106.878<-8.59684 421.502>
LayerCount: 2
Fore
SplineSet
1459 875 m 1049
328.596679688 662.943359375 m 0
 328.596679688 626.545898438 299.045898438 596.995117188 262.6484375 596.995117188 c 0
 226.250976562 596.99609375 196.701171875 626.545898438 196.700195312 662.943359375 c 0
 196.700195312 699.340820312 226.250976562 728.891601562 262.6484375 728.891601562 c 0
 299.045898438 728.891601562 328.596679688 699.340820312 328.596679688 662.943359375 c 0
-0.0009765625 483.06640625 m 1
 515.75 483.06640625 l 1
 515.75 440 l 1
 450.819716169 440 l 1
 450.971879185 172.261846049 454.384161361 78.1223777697 455.923475453 35.655136569 c 0
 456.3747416 23.20541732 456.665039062 15.1965694832 456.665039062 8.556640625 c 0
 456.665039062 -9.40625 408.883789062 -15.2763671875 383.030273438 -15.2763671875 c 0
 356.697265625 -15.2763671875 349.787109375 -9.806640625 349.787109375 -2.2060546875 c 0
 349.787109375 8.13500074459 350.10589429 17.9861843593 350.559922894 32.0167075755 c 0
 351.68306007 66.7242173838 353.633789062 127.006208767 353.633789062 283.541992188 c 0
 353.633789062 362.04296875 353.537109375 388.787109375 353.28125 405.822265625 c 1
 330.482841352 418.081122174 315.91884857 429.744349441 309.828952287 440 c 1
 166.767284203 440 l 1
 164.806358225 390.407259603 164.458984375 319.087794818 164.458984375 243.907226562 c 0
 164.458984375 39.1162109375 180.581054688 -41.166015625 224.184570312 -103.913085938 c 0
 280.509765625 -184.96484375 370.477539062 -230.557617188 443.28125 -245.711914062 c 0
 453.008063265 -247.736567674 457.82582618 -253.419724762 457.82582618 -258.906178084 c 0
 457.82582618 -265.177287717 451.531476977 -271.19140625 439.079101562 -271.19140625 c 0
 338.883789062 -271.19140625 212.58203125 -216.658203125 149.462890625 -136.071289062 c 0
 93.6953125 -64.8720703125 66.94921875 6.6181640625 66.94921875 270.083007812 c 0
 66.94921875 326.219726562 66.7529296875 367.379882812 65.9404296875 405.99609375 c 1
 42.4569584219 415.244114014 26.37978784 428.121534493 19.9402652195 440 c 1
 -0.0009765625 440 l 1
 -9.34375 461.534179688 l 1
 -0.0009765625 483.06640625 l 1
EndSplineSet
Validated: 524289
EndChar

StartChar: g.fina
Encoding: 283 57364 123
GlifName: g.fina
Width: 516
VWidth: 800
Flags: W
HStem: -271.191 25.4795<400.853 457.666> -15.2754 21G<369.868 395.961> 439.998 43.0664<-0.00292969 41.1365 166.767 352.073> 596.995 131.896<213.841 311.455>
VStem: 66.9482 97.5098<6.38892 416.108> 196.7 131.896<614.136 711.751> 353.637 97.1797<-10.095 439.998>
LayerCount: 2
Fore
SplineSet
328.596679688 662.943359375 m 0
 328.596679688 626.545898438 299.044921875 596.995117188 262.647460938 596.995117188 c 0
 226.25 596.99609375 196.700195312 626.545898438 196.700195312 662.943359375 c 0
 196.700195312 699.340820312 226.25 728.891601562 262.647460938 728.891601562 c 0
 299.045898438 728.891601562 328.596679688 699.340820312 328.596679688 662.943359375 c 0
-0.0029296875 483.064453125 m 1
 336.040039062 483.064453125 l 1
 351.206054688 495.750976562 400.737304688 519.50390625 461.831054688 540.291992188 c 1
 455.147460938 487.193359375 450.81640625 396.743164062 450.81640625 301.024414062 c 0
 450.81640625 144.331378887 453.921986056 76.530833916 455.607121605 39.7412114467 c 0
 456.234533608 26.0436482382 456.665039062 16.6449187783 456.665039062 8.5576171875 c 0
 456.665039062 -9.4052734375 408.887695312 -15.275390625 383.034179688 -15.275390625 c 0
 356.701171875 -15.275390625 349.791015625 -9.8046875 349.791015625 -2.2041015625 c 0
 349.791015625 8.13658900028 350.109714448 17.9875775379 350.563621921 32.017868846 c 0
 351.686472224 66.7251996597 353.63671875 127.007368323 353.63671875 283.54296875 c 0
 353.63671875 356.323242188 353.5390625 417.615234375 353.327148438 439.998046875 c 1
 166.766923368 439.998046875 l 1
 164.8053714 390.405936803 164.458007812 319.086684328 164.458007812 243.907226562 c 0
 164.458007812 39.1162109375 180.580078125 -41.166015625 224.18359375 -103.913085938 c 0
 280.509765625 -184.96484375 370.4765625 -230.557617188 443.28125 -245.711914062 c 0
 452.953730246 -247.725352487 457.684333886 -253.356875466 457.684333886 -258.814987113 c 0
 457.684333886 -265.118854994 451.374093025 -271.19140625 439.079101562 -271.19140625 c 0
 338.883789062 -271.19140625 212.58203125 -216.657226562 149.461914062 -136.071289062 c 0
 93.6943359375 -64.8720703125 66.9482421875 6.619140625 66.9482421875 270.083007812 c 0
 66.9482421875 316.249404387 66.5288390488 353.36858176 66.1636782433 385.687054033 c 0
 66.0848163189 392.666710334 66.0084843028 399.422457683 65.939453125 405.997070312 c 1
 42.4565396388 415.243841424 26.3807850876 428.120170691 19.9410545585 439.998046875 c 1
 -0.0029296875 439.998046875 l 1
 -9.3427734375 461.534179688 l 1
 -0.0029296875 483.064453125 l 1
EndSplineSet
Validated: 524289
EndChar

StartChar: h.init
Encoding: 284 57365 124
GlifName: h.init
Width: 228
VWidth: 800
Flags: W
HStem: -15.5264 21G<82.8037 109.149> 439.998 43.0661<163.387 227.885>
VStem: 65.1865 97.5098<-8.91382 439.998 483.064 580.939>
LayerCount: 2
Fore
SplineSet
162.951579026 439.997986734 m 1
 162.696289062 376.775390625 l 1
 162.696289062 228.884102849 165.812296398 125.651861737 167.648418592 64.8217709864 c 0
 168.41534925 39.4136245774 168.958984375 21.4031816472 168.958984375 10.6259765625 c 0
 168.958984375 -6.6103515625 119.889648438 -15.5263671875 98.4091796875 -15.5263671875 c 0
 67.1982421875 -15.5263671875 59.8037109375 -12.19140625 59.8037109375 -6.0498046875 c 0
 59.8037109375 -3.65198962075 59.9885842977 1.57282488566 60.2898079387 10.0858829453 c 0
 61.6139702889 47.5088120715 65.1865234375 148.474832786 65.1865234375 352.166015625 c 0
 65.1865234375 516.920898438 64.6396484375 560.60546875 64.34765625 575.375976562 c 1
 62.8880574835 575.916810484 61.4573847498 576.446241432 60.0553776557 576.965064449 c 0
 20.7703298779 591.502784766 3.9921875 597.711659519 3.9921875 613.083007812 c 0
 3.9921875 627.059205898 3.9921875 647.070499782 168.903320312 654.55078125 c 1
 166.168329548 628.3749726 164.314598188 556.954624185 163.387165421 483.064096514 c 1
 227.884765625 483.065429688 l 1
 227.884765625 440 l 1
 162.951579026 439.997986734 l 1
EndSplineSet
Validated: 524289
EndChar

StartChar: h.medi
Encoding: 285 57366 125
GlifName: h.medi
Width: 228
VWidth: 800
Flags: W
HStem: -15.5264 21G<82.8047 109.15> 440 43.0654<0 65.0255 163.388 227.886>
VStem: 65.1875 97.5098<-8.91382 440 483.065 580.939>
LayerCount: 2
Fore
SplineSet
162.952476668 440 m 1
 162.78273438 418.012242962 162.697265625 396.55148261 162.697265625 376.775390625 c 0
 162.697265625 228.884102849 165.813272961 125.651861737 167.649395155 64.8217709864 c 0
 168.416325813 39.4136245774 168.959960938 21.4031816472 168.959960938 10.6259765625 c 0
 168.959960938 -6.6103515625 119.890625 -15.5263671875 98.41015625 -15.5263671875 c 0
 67.19921875 -15.5263671875 59.8046875 -12.19140625 59.8046875 -6.0498046875 c 0
 59.8046875 -3.65198962075 59.9895608602 1.57282488566 60.2907845012 10.0858829453 c 0
 61.6149468514 47.5088120715 65.1875 148.474832786 65.1875 352.166015625 c 0
 65.1875 386.39402391 65.1638544417 415.396574559 65.1237786727 440 c 1
 0 440 l 1
 -9.3427734375 461.533203125 l 1
 0 483.065429688 l 1
 65.0254543579 483.065429688 l 1
 64.8406331948 543.57911441 64.5394320604 565.691954331 64.3486328125 575.375976562 c 1
 62.889370056 575.916673515 61.4590198417 576.445973268 60.0573219343 576.964670262 c 0
 20.7706331682 591.502672532 3.9921875 597.71152059 3.9921875 613.083007812 c 0
 3.9921875 627.058671798 3.9921875 647.070455486 168.904296875 654.55078125 c 1
 166.168669197 628.375130026 164.315164578 556.955483253 163.387944023 483.065429688 c 1
 227.885742188 483.065429688 l 1
 227.885742188 440 l 1
 162.952476668 440 l 1
EndSplineSet
Validated: 524289
EndChar

StartChar: h.fina
Encoding: 286 57367 126
GlifName: h.fina
Width: 228
VWidth: 800
Flags: W
HStem: -15.5264 21G<82.8037 109.149> 440 43.0654<0 65.0247>
VStem: 65.1865 97.5098<-8.91382 440 483.065 583.236>
LayerCount: 2
Fore
SplineSet
168.903320312 654.55078125 m 1
 164.815429688 615.426757812 162.696289062 475.225585938 162.696289062 376.775390625 c 0
 162.696289062 228.884102849 165.812296398 125.651861737 167.648418592 64.8217709864 c 0
 168.41534925 39.4136245774 168.958984375 21.4031816472 168.958984375 10.6259765625 c 0
 168.958984375 -6.6103515625 119.889648438 -15.5263671875 98.4091796875 -15.5263671875 c 0
 67.1982421875 -15.5263671875 59.8046875 -12.19140625 59.8046875 -6.0498046875 c 0
 59.8046875 -3.65198962075 59.98952732 1.57282488566 60.2906963123 10.0858829453 c 0
 61.6146184299 47.5088120715 65.1865234375 148.474832786 65.1865234375 352.166015625 c 0
 65.1865234375 386.39402391 65.1629200282 415.396574559 65.1229022876 440 c 1
 0 440 l 1
 -9.3427734375 461.533203125 l 1
 0 483.065429688 l 1
 65.0247055811 483.065429688 l 1
 64.8400976061 543.57911441 64.5390957639 565.691954331 64.34765625 575.375976562 c 1
 62.8880574835 575.916810484 61.4573847498 576.446241432 60.0553776557 576.965064449 c 0
 20.7703298779 591.502784766 3.9921875 597.711659519 3.9921875 613.083007812 c 0
 3.9921875 627.058508795 3.9921875 647.070499782 168.903320312 654.55078125 c 1
EndSplineSet
Validated: 524289
EndChar

StartChar: i.init
Encoding: 287 57368 127
GlifName: i.init
Width: 568
VWidth: 800
Flags: W
HStem: -22.5811 45.6289<228.039 346.641> 439.992 43.3438<173.65 376.616 499.783 567.85>
VStem: 65.1898 99.4528<119.813 419.278> 403.425 97.0312<129.126 405.472>
LayerCount: 2
Fore
SplineSet
128.154296875 533.685546875 m 1
 173.650390625 483.3359375 l 1
 567.849609375 483.0625 l 1
 567.849609375 439.9921875 l 1
 499.782808356 439.9921875 l 1
 499.860437717 431.896070406 499.975451909 424.865552479 500.088542625 417.952611647 c 0
 500.274910487 406.56042977 500.456054688 395.487556678 500.456054688 380.491210938 c 0
 500.456054688 197.400390625 487.4765625 119.248046875 450.047851562 65.4677734375 c 0
 415.55859375 15.912109375 357.455078125 -22.5810546875 276.611328125 -22.5810546875 c 0
 210.592773438 -22.5810546875 149.35546875 7.5830078125 116.866210938 54.8115234375 c 0
 74.0263671875 117.084960938 66.052734375 196.420898438 66.052734375 345.944335938 c 0
 66.052734375 378.829030393 65.7963358479 385.553702602 65.1897573802 401.462691668 c 0
 65.1340409382 402.923990268 65.075369996 404.462777793 65.013671875 406.106445312 c 1
 35.970703125 423 20.833984375 435.073242188 20.833984375 445.09765625 c 0
 20.833984375 463.352539062 50.54296875 485.732421875 128.154296875 533.685546875 c 1
354.409935909 439.9921875 m 1
 164.642578125 439.9921875 l 1
 163.903320312 416.778320312 163.576171875 333.279296875 163.576171875 302.865234375 c 0
 163.576171875 201.717773438 167.140625 170.22265625 175.309570312 132.41796875 c 0
 189.03125 68.9130859375 233.176757812 23.0478515625 287.59375 23.0478515625 c 0
 345.540039062 23.0478515625 382.778320312 73.2958984375 393.432617188 129.669921875 c 0
 400.529296875 167.219726562 403.424804688 190.508789062 403.424804688 311.104492188 c 0
 403.424804688 345.43359375 400.846679688 384.716796875 397.657226562 406.505859375 c 1
 374.905686897 416.886373754 361.528977498 430.265393384 354.409935909 439.9921875 c 1
EndSplineSet
Validated: 524289
EndChar

StartChar: i.medi
Encoding: 288 57369 128
GlifName: i.medi
Width: 233
VWidth: 800
Flags: W
HStem: -15.5244 379.344<73.7816 166.532> 439.998 43.0654<0 67.4981 169.065 232.557>
VStem: 69.8584 97.5088<-8.91321 290.01 483.066 582.449>
LayerCount: 2
Fore
SplineSet
173.377929688 363.819335938 m 1
 169.288085938 324.6953125 167.3671875 249.534179688 167.3671875 186.533203125 c 0
 167.3671875 127.876242708 169.753179878 88.5534453146 171.58016516 58.4434698038 c 0
 172.713569511 39.7641856251 173.631835938 24.6305225924 173.631835938 10.6259765625 c 0
 173.631835938 -6.611328125 124.560546875 -15.5244140625 103.080078125 -15.5244140625 c 0
 71.869140625 -15.5244140625 64.4755859375 -12.189453125 64.4755859375 -6.0478515625 c 0
 64.4755859375 -2.66072862479 64.8444827352 7.78643117509 65.3891316741 23.2108928018 c 0
 66.9249881258 66.7063578848 69.8583984375 149.780557715 69.8583984375 225.731445312 c 0
 69.8583984375 276.015625 69.779296875 282.944335938 69.6728515625 284.640625 c 0
 67.4824139176 285.452261054 65.3548523071 286.238221269 63.2895213574 287.001192338 c 0
 25.4157508806 300.992456627 8.46875 307.252989055 8.46875 322.350585938 c 0
 8.46875 336.313538697 8.46875 356.339143062 173.377929688 363.819335938 c 1
173.573242188 654.546875 m 1
 169.486328125 615.421875 167.559570312 584.091796875 167.559570312 561.053710938 c 0
 167.559570312 526.852760852 168.878561471 502.397496103 170.589309207 483.065625602 c 1
 180.917197777 483.065625602 191.245086346 483.065820764 201.572974915 483.066015926 c 0
 211.900863485 483.066211088 222.228752054 483.06640625 232.556640625 483.06640625 c 1
 232.556640625 440 l 1
 0 439.998046875 l 1
 -9.3427734375 461.53125 l 1
 0 483.063476562 l 1
 11.2496906724 483.063476562 22.4993813448 483.063689143 33.7490720172 483.063901724 c 0
 44.9987626896 483.064114305 56.248453362 483.064326886 67.4981440344 483.064326886 c 1
 69.0539765342 513.067269281 70.05078125 546.985931363 70.05078125 575.373046875 c 1
 67.7032629059 576.242886986 65.4273859869 577.083236686 63.2224199137 577.897403111 c 0
 25.6411872097 591.773978481 8.6591796875 598.044451544 8.6591796875 613.083007812 c 0
 8.6591796875 627.059252739 8.6591796875 647.066460643 173.573242188 654.546875 c 1
EndSplineSet
Validated: 524289
EndChar

StartChar: i.fina
Encoding: 289 57370 129
GlifName: i.fina
Width: 562
VWidth: 800
Flags: W
HStem: -270.998 21G<416.228 444.225> -22.3994 61.0576<187.354 308.907> 296.545 52.8426<308.756 398.458> 439.996 43.0703<0 398.06>
VStem: 38.7119 96.9395<87.2129 188.716> 398.179 97.7878<-265.673 32.7573 67.4079 296.545 345.621 409.873>
LayerCount: 2
Fore
SplineSet
38.7119140625 120.373046875 m 0
 38.7119140625 253.418618084 262.494771443 324.809958992 398.458007812 349.387124157 c 1
 398.458007812 439.99609375 l 1
 0 439.99609375 l 1
 -9.3427734375 461.53125 l 1
 0 483.06640625 l 1
 383.166015625 483.067382812 l 1
 400.05859375 496.678710938 473.649414062 529.440429688 514.740234375 541.235351562 c 1
 514.358370204 538.47965986 513.979840457 535.761152336 513.604893885 533.068378295 c 0
 503.47923604 460.348394623 495.966796875 406.395904639 495.966796875 145.686523438 c 0
 495.966796875 12.2168951181 498.391343637 -106.650575085 499.865397457 -178.918535155 c 0
 500.509192748 -210.481678702 500.971679688 -233.155876402 500.971679688 -244.275390625 c 0
 500.971679688 -264.693359375 456.766601562 -270.998046875 431.68359375 -270.998046875 c 0
 400.771484375 -270.998046875 394.790039062 -267.897460938 394.790039062 -260.954101562 c 0
 394.790039062 -258.985258203 394.87497308 -254.90070755 395.018992358 -247.974695472 c 0
 395.611985837 -219.457124308 397.206679441 -142.7669247 397.998695034 32.7573263912 c 1
 308.037086546 -3.07828298188 249.483707602 -22.3994140625 214.053710938 -22.3994140625 c 0
 121.306640625 -22.3994140625 38.7119140625 26.0419921875 38.7119140625 120.373046875 c 0
398.458007812 296.544559409 m 1
 239.326984408 275.279757176 135.651367188 242.183261677 135.651367188 149.26953125 c 0
 135.651367188 82.80078125 196.4140625 38.658203125 265.3359375 38.658203125 c 0
 311.702743619 38.658203125 367.429449582 60.5305798504 398.179001037 78.7472361784 c 1
 398.353193454 130.644610084 398.458007812 190.043701418 398.458007812 257.939453125 c 2
 398.458007812 296.544559409 l 1
EndSplineSet
Validated: 524289
EndChar

StartChar: j.fina
Encoding: 290 57373 130
GlifName: j.fina
Width: 578
VWidth: 800
Flags: W
HStem: -22.582 47.3828<229.738 352.892> 439.991 43.0703<0 49.3947 166.865 408.206>
VStem: 69.335 93.5918<109.068 418.752> 410.945 97.5293<119.702 438.847>
LayerCount: 2
Fore
SplineSet
276.662109375 -22.58203125 m 0
 69.3349609375 -22.58203125 69.3349609375 180.975850746 69.3349609375 276.359375 c 0
 69.3349609375 295.800183511 69.1816841043 312.985973709 69.0400061002 328.871273543 c 0
 68.9182618928 342.521545159 68.8050822621 355.211534546 68.8050822621 367.546898061 c 0
 68.8050822621 381.930666647 68.9589720291 395.832252242 69.4326171875 410.211914062 c 1
 48.9458915858 415.727537963 32.9445866847 428.218808571 28.1397279071 439.991210938 c 1
 0 439.991210938 l 1
 -9.3427734375 461.551757812 l 1
 0 483.061523438 l 1
 393.81640625 483.334960938 l 1
 399.647460938 492.306640625 442.12109375 514.719726562 515.907226562 543.892578125 c 1
 510.990234375 508.229492188 508.474609375 421.18359375 508.474609375 344.014648438 c 0
 508.474609375 176.095703125 497.752929688 111.674804688 449.587890625 52.8798828125 c 0
 416.499023438 12.490234375 360.767578125 -22.58203125 276.662109375 -22.58203125 c 0
168.296929284 439.991210938 m 1
 165.77637532 403.85436486 162.926757812 358.648197585 162.926757812 311.021484375 c 0
 162.926757812 224.421875 167.587890625 168.693359375 176.583007812 131.551757812 c 0
 191.643554688 69.3662109375 233.82421875 24.80078125 291.803710938 24.80078125 c 0
 342.119140625 24.80078125 373.74609375 58.2822265625 390.638671875 101.552734375 c 0
 404.705078125 137.58203125 410.9453125 188.370117188 410.9453125 300.935546875 c 0
 410.9453125 322.461875765 409.943845022 364.876653825 409.096103021 400.780754119 c 0
 408.74612801 415.603115049 408.42235247 429.315859563 408.206054688 439.991210938 c 1
 168.296929284 439.991210938 l 1
EndSplineSet
Validated: 524289
EndChar

StartChar: k.init
Encoding: 291 57374 131
GlifName: k.init
Width: 531
VWidth: 800
Flags: W
HStem: -18.8271 128.829<374.445 447.212> 2.56709 74.045<73.909 170.228> 440.015 43.0537<223.786 531.388>
VStem: 57.6709 43.9688<20.2224 220.991>
LayerCount: 2
Fore
SplineSet
250.982677051 13.0662306956 m 0xb0
 162.942571586 13.0662306956 105.139763191 5.73888769196 86.1115190652 3.32678220193 c 0
 82.3624620704 2.85153493794 80.1186029018 2.56709329511 79.4452379024 2.56709329511 c 0x70
 68.3726867614 2.56709329511 57.6708984375 7.70058090296 57.6708984375 32.744140625 c 0
 57.6708984375 167.002929688 94.8671875 304.491210938 142.7578125 424.048828125 c 1
 139.130255466 426.505457622 135.651237595 428.835437517 132.335627623 431.055979308 c 0
 107.299190694 447.823468537 91.580078125 458.350927034 91.580078125 470.048828125 c 0
 91.580078125 483.0078125 130.806640625 511.49609375 181.139648438 541.690429688 c 1
 223.786132812 483.068359375 l 1
 531.387695312 483.067382812 l 1
 531.387695312 439.997070312 l 1
 210.911132812 440.014648438 l 1
 156.815429688 358.850585938 101.639648438 184.486328125 101.639648438 88.4365234375 c 0
 101.639648438 81.3496582342 102.137937753 76.612139516 108.903217833 76.612139516 c 0
 110.127350435 76.612139516 113.959356227 77.4627396314 120.431276132 78.8993282268 c 0
 149.919355997 85.4448726486 234.211973505 104.155520302 376.33984375 110.001953125 c 0
 437.786132812 112.530273438 459.739257812 120.5234375 484.752929688 166.81640625 c 0
 490.801901795 178.011308209 498.941234593 182.706565685 505.11081184 182.706565685 c 0
 510.290716318 182.706565685 514.082123551 179.396839221 514.082123551 173.845281719 c 0
 514.082123551 172.279989262 513.780710721 170.53647363 513.124023438 168.638671875 c 0
 458.462890625 10.6953125 441.466796875 -18.8271484375 425.53515625 -18.8271484375 c 0
 421.314326845 -18.8271484375 418.524454372 -17.0338909348 414.05639199 -14.1619365832 c 0
 407.248154899 -9.78577876175 396.543441932 -2.90506753581 370.942382812 3.9521484375 c 0
 346.864873042 10.4015365838 300.687439213 13.0662306956 250.982677051 13.0662306956 c 0xb0
EndSplineSet
Validated: 524289
EndChar

StartChar: k.medi
Encoding: 292 57375 132
GlifName: k.medi
Width: 534
VWidth: 800
Flags: W
HStem: -18.8223 128.829<376.584 449.351> 2.57198 74.2708<59.395 111.136> 440.003 43.0703<-0.000976562 221.356 288.843 533.529>
VStem: 37.6201 66.2041<18.9979 111.043>
LayerCount: 2
Fore
SplineSet
243.617812343 13.0707158244 m 0xb0
 142.755043497 13.0707158244 80.6808686779 5.2166246173 63.9117616423 3.09487114247 c 0
 61.2929784961 2.76352301354 59.7791030125 2.57197610761 59.3949540298 2.57197610761 c 0x70
 48.3219055114 2.57197610761 37.6201171875 7.70546371546 37.6201171875 32.7490234375 c 0
 37.6201171875 81.751953125 79.2294921875 163.948242188 221.356445312 440.020507812 c 1
 -0.0009765625 440.002929688 l 1
 -9.3447265625 461.538085938 l 1
 -0.0009765625 483.073242188 l 1
 533.529296875 483.037109375 l 1
 533.529296875 439.966796875 l 1
 406.942382812 440.01953125 l 2
 296.052734375 440.01953125 267.086914062 435.243164062 163.114257812 248.385742188 c 0
 128.270507812 185.765625 103.82421875 125.590820312 103.82421875 88.62890625 c 0
 103.82421875 81.5210971944 104.309608077 76.8427530064 111.136369407 76.8427530064 c 0
 112.409039041 76.8427530064 116.532825987 77.7277821852 123.465900389 79.2157283922 c 0
 154.262281761 85.8251135208 240.488530145 104.330615089 378.478515625 110.006835938 c 0
 439.924804688 112.534179688 461.877929688 120.528320312 486.891601562 166.821289062 c 0
 492.940492665 178.016041106 501.07991499 182.711096226 507.249588124 182.711096226 c 0
 512.429567852 182.711096226 516.221057634 179.401519118 516.221057634 173.850407875 c 0
 516.221057634 172.285050183 515.919564649 170.541449411 515.262695312 168.643554688 c 0
 460.6015625 10.7001953125 443.60546875 -18.822265625 427.673828125 -18.822265625 c 0
 423.453074371 -18.822265625 420.663379572 -17.0290724035 416.195581815 -14.1572081934 c 0
 409.38754585 -9.78105781815 398.683004561 -2.9002653814 373.081054688 3.95703125 c 0
 349.003155954 10.4060822003 298.291697119 13.0707158244 243.617812343 13.0707158244 c 0xb0
EndSplineSet
Validated: 524289
EndChar

StartChar: k.fina
Encoding: 293 57376 133
GlifName: k.fina
Width: 534
VWidth: 800
Flags: W
HStem: -18.8262 128.829<376.584 449.351> 13.0665 65.5243<113.996 248.985> 440.003 43.0693<-0.000976562 323.776> 473.315 20G<428.34 440.089>
VStem: 37.6211 74.3779<19.4222 118.28>
LayerCount: 2
Fore
SplineSet
243.62249265 13.0664815954 m 0x48
 142.746369212 13.0664815954 80.661469163 5.21030966315 63.9034017681 3.08975766737 c 0
 61.2888566365 2.75891528763 59.7776271918 2.56768556289 59.3945334873 2.56768556289 c 0
 48.3223023476 2.56768556289 37.62109375 7.70203908963 37.62109375 32.744140625 c 0
 37.62109375 100.71484375 68.6298828125 152.975585938 190.361328125 288.32421875 c 0
 245.147637885 349.239170265 280.454519116 384.595594313 300.894717281 405.064474279 c 0
 316.887585447 421.079783729 323.779296875 427.981165645 323.779296875 430.879882812 c 0
 323.779296875 437.290039062 320 440 273 440 c 2
 -0.0009765625 440.002929688 l 1
 -9.3447265625 461.538085938 l 1
 -0.0009765625 483.072265625 l 1x68
 263 483 l 2
 329.729849154 483 380.6550096 488.426426181 408.63080278 491.407439401 c 0
 419.225049922 492.536329316 426.528159021 493.314525832 430.152117531 493.314525832 c 0
 450.026738425 493.314525832 455.391601562 485.710078406 455.391601562 476.90625 c 0
 455.391601562 470.267245236 443.241024317 462.567328902 427.299763305 452.46522646 c 0
 415.838812584 445.202331876 402.418505189 436.697777563 390.145507812 426.453125 c 0
 190.689453125 259.961914062 111.999023438 140.185546875 111.999023438 90.3759765625 c 0
 111.999023438 83.2689747354 112.484409604 78.590792405 119.311107427 78.590792405 c 0
 119.628909478 78.590792405 121.245995532 78.954912541 124.141267975 79.6068425938 c 0
 145.029722258 84.3103070751 232.449769719 103.994726163 378.478515625 110.002929688 c 0
 439.924804688 112.530273438 461.87890625 120.5234375 486.892578125 166.81640625 c 0
 492.941620511 178.011438275 501.081072161 182.706674786 507.250566214 182.706674786 c 0
 512.430057247 182.706674786 516.221092831 179.397402174 516.221092831 173.846641651 c 0
 516.221092831 172.281261353 515.919589159 170.537613978 515.262695312 168.639648438 c 0
 460.602539062 10.6953125 443.606445312 -18.826171875 427.673828125 -18.826171875 c 0x98
 423.45345145 -18.826171875 420.663833783 -17.0331235905 416.195973662 -14.161372017 c 0
 409.387869015 -9.78541021362 398.682965301 -2.90475073612 373.081054688 3.953125 c 0
 349.004177858 10.4020204602 298.294825725 13.0664815954 243.62249265 13.0664815954 c 0x48
EndSplineSet
Validated: 524289
EndChar

StartChar: l.init
Encoding: 294 57377 134
GlifName: l.init
Width: 548
VWidth: 800
Flags: W
HStem: -22.5596 21G<285.156 301.311> 440.015 43.0664<159.534 464.065 499.42 548.223>
LayerCount: 2
Fore
SplineSet
508.544791844 440.014648438 m 1
 310.811131333 -22.5595703125 310.811131333 -22.5595703125 291.811523438 -22.5595703125 c 0
 278.5 -22.5595703125 266.311523438 -10.3017578125 246.865234375 27.8720703125 c 9
 51.0791015625 424.42578125 l 1
 3.1953125 429.096679688 -26.4462890625 436.234375 -26.4462890625 452.825195312 c 0
 -26.4462890625 472.31640625 -7.6064453125 483.739257812 121.161132812 532.396484375 c 1
 121.668484167 531.11833534 122.171568948 529.850494684 122.671348917 528.590982596 c 0
 128.711323242 513.369442827 134.268617553 499.364320981 141.040833388 483.081054688 c 1
 548.22265625 483.081054688 l 1
 548.22265625 440.014648438 l 1
 508.544791844 440.014648438 l 1
464.064672145 440.014648438 m 1
 159.534385551 440.014648438 l 1
 184.820205325 382.712376757 227.442674863 291.256752493 318.088867188 102.477539062 c 1
 464.064672145 440.014648438 l 1
EndSplineSet
Validated: 524289
EndChar

StartChar: l.medi
Encoding: 295 57378 135
GlifName: l.medi
Width: 534
VWidth: 800
Flags: W
HStem: -22.5596 21G<275.812 292.645> 440.015 43.0664<0.000976562 33.0868 153.031 450.181 486.211 534.207>
DStem2: 153.031 440.015 54.5977 412.634 0.429367 -0.90313<0 370.336>
LayerCount: 2
Fore
SplineSet
494.685510958 440.014648438 m 1
 311.179060081 -2.41181857305 302.822321299 -22.5595703125 282.467773438 -22.5595703125 c 0
 269.157226562 -22.5595703125 256.96875 -10.3017578125 237.521484375 27.8720703125 c 0
 227.019130312 48.4874072614 180.272009134 147.332513852 133.986902581 245.200707131 c 0
 104.003917207 308.598651442 74.2148073346 371.586652978 54.59765625 412.633789062 c 1
 24.1435546875 418.657226562 6.6025390625 431.979492188 3.25 440.014648438 c 1
 0.0009765625 440.014648438 l 1
 -9.341796875 461.51953125 l 1
 0.0009765625 483.081054688 l 1
 534.20703125 483.081054688 l 1
 534.20703125 440.014648438 l 1
 494.685510958 440.014648438 l 1
450.180706052 440.014648438 m 1
 153.031099596 440.014648438 l 1
 308.204101562 103.728515625 l 1
 450.180706052 440.014648438 l 1
EndSplineSet
Validated: 524289
EndChar

StartChar: l.fina
Encoding: 296 57379 136
GlifName: l.fina
Width: 534
VWidth: 800
Flags: W
HStem: -22.5586 21G<275.812 290.24> 440.014 43.0664<-0.000976562 33.0861 153.03 439.78> 468.185 32.8687<522.107 540.893>
DStem2: 153.03 440.014 54.5967 412.633 0.429368 -0.90313<0 370.337> 308.205 103.728 324.993 36.3008 0.385099 0.922875<0 359.118>
LayerCount: 2
Fore
SplineSet
381.34765625 483.080078125 m 2xc0
 434.430878903 483.080078125 481.444269188 494.056692471 511.41115598 501.053315294 c 0
 525.429510539 504.326299242 535.717544677 506.728333693 541.151593295 506.728333693 c 0
 550.409646804 506.728333693 557.719834807 499.924967414 557.719834807 490.7715699 c 0
 557.719834807 483.935026293 553.64193007 475.787544651 543.251953125 468.184570312 c 0xa0
 541.503796905 466.90534467 539.67633554 465.633901273 537.766316067 464.305018654 c 0
 517.699681707 450.343798881 488.520638105 430.042684445 446.45703125 327.770507812 c 0
 400.012695312 214.842773438 339.017578125 66.685546875 324.993164062 36.30078125 c 0
 324.430460847 35.0815330241 323.843031641 33.7998307111 323.232340474 32.4673734983 c 0
 313.547698956 11.3366103136 298.012864854 -22.55859375 282.466796875 -22.55859375 c 0
 269.15625 -22.55859375 256.96875 -10.3037109375 237.521484375 27.8701171875 c 0
 227.0246327 48.4746533591 180.320982643 147.227727014 134.05943404 245.045994129 c 0
 104.051750309 308.496088458 74.230080975 371.552862492 54.5966796875 412.6328125 c 1
 24.142578125 418.65625 6.603515625 431.978515625 3.2509765625 440.013671875 c 1
 -0.0009765625 440.013671875 l 1
 -9.3408203125 461.51953125 l 1
 -0.0009765625 483.080078125 l 1
 381.34765625 483.080078125 l 2xc0
153.030234539 440.013671875 m 1xc0
 308.205078125 103.727539062 l 1
 367.25 243.583007812 l 2
 394.3984375 307.884765625 427.975585938 401.993164062 439.780273438 440.013671875 c 1
 153.030234539 440.013671875 l 1xc0
EndSplineSet
Validated: 524289
EndChar

StartChar: m.init
Encoding: 297 57380 137
GlifName: m.init
Width: 675
VWidth: 800
Flags: W
HStem: -271.003 21G<533.19 557.711> -10.2012 21G<116.444 206.981> 71.8308 21.8098<3.30192 51.0594> 439.997 43.0667<340.113 444.726 613.02 674.767> 596.993 131.896<501.738 599.352>
VStem: 484.597 131.896<614.135 711.749> 508.401 106.183<-261.77 423.383>
LayerCount: 2
Fore
SplineSet
616.4921875 662.942382812 m 0xfc
 616.4921875 626.544921875 586.942382812 596.994140625 550.544921875 596.993164062 c 0
 514.147460938 596.993164062 484.596679688 626.543945312 484.596679688 662.942382812 c 0
 484.596679688 699.33984375 514.147460938 728.889648438 550.544921875 728.889648438 c 0
 586.942382812 728.889648438 616.4921875 699.33984375 616.4921875 662.942382812 c 0xfc
134.245117188 -10.201171875 m 1
 98.6437718871 45.3016308938 51.1211466641 62.2244343338 24.1444295584 71.830841364 c 0
 11.2807680657 76.4115903007 3.08882170015 79.328741815 3.08882170015 83.9720293046 c 0
 3.08882170015 88.5019589368 7.68430636568 93.18715501 14.3017578125 93.640625 c 0
 215.132540692 107.405680514 386.645364616 260.61300864 444.726153007 439.99543852 c 1
 400.757634016 439.99543852 356.789115026 439.996090609 312.820596035 439.996742697 c 0
 268.852077045 439.997394786 224.883558054 439.998046875 180.915039062 439.998046875 c 0
 158.205078125 439.998046875 152.448242188 444.661132812 152.448242188 450.36328125 c 0
 152.448242188 464.8046875 248.700195312 551.314453125 263.803710938 562.107421875 c 1
 340.11328125 483.063476562 l 1
 674.766601562 483.0625 l 1
 674.766601562 439.993164062 l 1
 664.475545133 439.993164062 654.184488705 439.993316687 643.893432277 439.993469312 c 0
 633.602375848 439.993621936 623.31131942 439.993774561 613.020262991 439.993774561 c 1
 610.691406489 389.708173801 609.579101562 296.959779254 609.579101562 98.966796875 c 0
 609.579101562 -34.5028314445 612.003648324 -130.238469754 613.477702144 -188.442949707 c 0
 614.121497435 -213.863846521 614.583984375 -232.125602965 614.583984375 -243.245117188 c 0
 614.583984375 -259.459960938 570.129882812 -271.002929688 545.291992188 -271.002929688 c 0
 521.087890625 -271.002929688 508.401367188 -268.981445312 508.401367188 -259.919921875 c 0xfa
 508.401367188 -257.951292141 508.486295596 -253.891153391 508.630306214 -247.006494807 c 0
 509.432708901 -208.646347384 512.069335938 -82.5981630354 512.069335938 257.93359375 c 2
 512.069335938 411.8671875 l 1
 495.403695335 418.940547909 481.140628389 425.325951506 472.555844386 432.329285378 c 1
 432.177837055 194.47577993 279.717333912 38.3011946786 134.245117188 -10.201171875 c 1
EndSplineSet
Validated: 524289
EndChar

StartChar: m.medi
Encoding: 298 57381 138
GlifName: m.medi
Width: 231
VWidth: 800
Flags: W
HStem: -223.246 131.896<70.0988 167.714> -15.2744 21G<83.4404 109.533> 440 43.0664<0 45.4804 166.055 230.494>
VStem: 52.958 131.896<-206.106 -108.491> 63.3633 106.878<-8.59489 421.502>
LayerCount: 2
Fore
SplineSet
184.854492188 -157.298828125 m 0xf0
 184.854492188 -193.696289062 155.303710938 -223.24609375 118.90625 -223.24609375 c 0
 82.5087890625 -223.24609375 52.9580078125 -193.696289062 52.9580078125 -157.298828125 c 0
 52.9580078125 -120.901367188 82.5087890625 -91.3505859375 118.90625 -91.3505859375 c 0
 155.303710938 -91.3505859375 184.854492188 -120.901367188 184.854492188 -157.298828125 c 0xf0
63.36328125 -2.205078125 m 0xe8
 63.36328125 8.1359773071 63.6821470951 17.9871609218 64.1362909643 32.017684138 c 0
 65.2597132737 66.7251939463 67.2109375 127.007185329 67.2109375 283.54296875 c 0
 67.2109375 362.043945312 67.11328125 388.788085938 66.857421875 405.823242188 c 1
 44.0604562115 418.081709635 29.4963239215 429.744585609 23.4058537834 440 c 1
 0 440 l 1
 -9.3427734375 461.534179688 l 1
 0 483.06640625 l 1
 230.494140625 483.06640625 l 1
 230.494140625 440 l 1
 166.054991204 440 l 1
 164.853922563 383.909461001 164.390625 303.210756629 164.390625 238.982421875 c 0
 164.390625 142.503527956 167.135271764 84.072649128 168.864806339 47.2525284196 c 0
 169.660413154 30.3148277342 170.241210938 17.9502038446 170.241210938 8.55859375 c 0
 170.241210938 -9.404296875 122.459960938 -15.2744140625 96.6064453125 -15.2744140625 c 0
 70.2744140625 -15.2744140625 63.36328125 -9.8046875 63.36328125 -2.205078125 c 0xe8
EndSplineSet
Validated: 524289
EndChar

StartChar: m.fina
Encoding: 299 57382 139
GlifName: m.fina
Width: 440
VWidth: 800
Flags: W
HStem: -223.222 131.896<134.523 232.137> -17.5264 21G<77.355 99.918> 440.007 42.9933<0 60.8373 183.769 399.613> 474.677 20G<440.69 444.1>
VStem: 42.4766 95.8838<-7.67287 66.2801> 117.382 131.896<-206.08 -108.466>
LayerCount: 2
Fore
SplineSet
249.27734375 -157.2734375 m 0xc4
 249.27734375 -193.670898438 219.727539062 -223.220703125 183.330078125 -223.221679688 c 0
 146.932617188 -223.221679688 117.381835938 -193.670898438 117.381835938 -157.2734375 c 0
 117.381835938 -120.875976562 146.932617188 -91.3251953125 183.330078125 -91.3251953125 c 0
 219.727539062 -91.3251953125 249.27734375 -120.875976562 249.27734375 -157.2734375 c 0xc4
349.276299582 299.97579705 m 1
 364.598625061 305.458247715 368.152112259 306.424170894 372.997773678 306.424170894 c 0
 380.238780345 306.424170894 383.827969615 302.838308199 383.827969615 297.957360892 c 0
 383.827969615 292.191284843 378.818994727 284.617823948 368.904296875 279.013671875 c 0
 284.2734375 231.174804688 180.666015625 129.162109375 138.360351562 23.3349609375 c 0
 126.078125 -7.388671875 109.727539062 -17.5263671875 90.1083984375 -17.5263671875 c 0
 64.6015625 -17.5263671875 42.4765625 8.5693359375 42.4765625 38.8466796875 c 0
 42.4765625 119.972880803 173.532024677 226.439890246 311.555400162 285.191141692 c 1
 232.685555767 319.413941798 128.043094768 380.758730939 64.7858985755 439.999213168 c 1
 0 439.995117188 l 1
 -9.3427734375 461.530273438 l 1
 0 483.065429688 l 1
 28.5918273182 483.067493052 l 1
 52.9893416431 500.465631902 91.5350432032 522.283301589 122.033203125 534.092773438 c 1
 129.872423834 517.297136887 139 500 151 483 c 1
 257 483 l 2xe8
 358 483 440.596679688 493.508789062 447.603515625 494.676757812 c 1xd8
 433.777296666 453.262179015 416.45787357 423.525078747 399.621853913 423.525078747 c 0
 399.460402389 423.525078747 398.161133832 423.81063166 395.904570862 424.306578497 c 0
 381.014332717 427.579151253 324.441581281 440.012696191 278.053681784 440.012696191 c 2
 183.768972657 440.006735675 l 1xe8
 226.468036172 389.319935452 283.29304001 340.30722534 349.276299582 299.97579705 c 1
EndSplineSet
Validated: 524289
EndChar

StartChar: n.fina
Encoding: 300 57385 140
GlifName: n.fina
Width: 228
VWidth: 800
Flags: W
HStem: -270.999 21G<81.6992 109.697> 439.995 43.0703<0 63.5317>
VStem: 60.2617 106.182<-264.065 414.978>
LayerCount: 2
Fore
SplineSet
180.211914062 541.234375 m 1
 179.830109605 538.479149083 179.451638529 535.761093228 179.076749469 533.068762241 c 0
 168.951002729 460.348950951 161.438476562 406.396437703 161.438476562 145.685546875 c 0
 161.438476562 12.2167015667 163.863019571 -106.650954394 165.337073721 -178.919155476 c 0
 165.980870795 -210.482484654 166.443359375 -233.156833258 166.443359375 -244.276367188 c 0
 166.443359375 -264.694335938 122.23828125 -270.999023438 97.1552734375 -270.999023438 c 0
 66.2431640625 -270.999023438 60.26171875 -267.8984375 60.26171875 -260.955078125 c 0
 60.26171875 -258.986234767 60.346652768 -254.901684115 60.4906720457 -247.97567204 c 0
 61.2930917218 -209.386613288 63.9296875 -82.5904336662 63.9296875 257.938476562 c 2
 63.9296875 439.99609375 l 1
 0 439.995117188 l 1
 -9.3427734375 461.530273438 l 1
 0 483.065429688 l 1
 48.6376953125 483.06640625 l 1
 65.5302734375 496.677734375 139.12109375 529.439453125 180.211914062 541.234375 c 1
EndSplineSet
Validated: 524289
EndChar

StartChar: o.init
Encoding: 301 57386 141
GlifName: o.init
Width: 626
VWidth: 800
Flags: W
HStem: -22.5801 77.0127<224.402 329.013> 439.993 43.0654<174.261 416.509 541.765 625.835> 596.999 131.896<258.922 356.536>
VStem: 70.2139 96.9297<125.428 418.021> 241.781 131.896<614.14 711.755> 441.98 97.5127<98.9727 417.03>
LayerCount: 2
Fore
SplineSet
373.676757812 662.947265625 m 0
 373.676757812 626.549804688 344.126953125 597 307.729492188 596.999023438 c 0
 271.33203125 596.999023438 241.78125 626.549804688 241.78125 662.947265625 c 0
 241.78125 699.344726562 271.33203125 728.895507812 307.729492188 728.895507812 c 0
 344.126953125 728.895507812 373.676757812 699.344726562 373.676757812 662.947265625 c 0
167.143554688 324.491210938 m 0
 167.143554688 115.194936427 192.656619689 54.4326171875 310.133789062 54.4326171875 c 0
 347.796875 54.4326171875 401.54296875 77.3515625 439.899414062 115.849609375 c 1
 441.653320312 176.603515625 441.98046875 192.548828125 441.98046875 300.357421875 c 0
 441.98046875 342.7421875 441.794921875 380.650390625 441.043945312 409.180664062 c 1
 417.012695312 416.681640625 397.580078125 426.982421875 393.375 439.993164062 c 1
 171.0859375 439.993164062 l 1
 168.64453125 401.142578125 167.143554688 360.827148438 167.143554688 324.491210938 c 0
134.888671875 538.463867188 m 1
 174.260742188 483.05859375 l 1
 625.834960938 483.063476562 l 1
 625.834960938 439.993164062 l 1
 541.764648438 439.993164062 l 1
 540.596679688 418.677734375 539.493164062 380.92578125 539.493164062 306.991210938 c 0
 539.493164062 184.98828125 540.078125 135.215820312 543.581054688 80.91015625 c 1
 589.315429688 66.443359375 l 2
 599.44921875 63.23828125 601.84765625 54.5126953125 601.84765625 47.693359375 c 0
 601.84765625 17.8359375 532.529296875 -18.0224609375 510.213867188 -24.00390625 c 1
 498.925658797 -11.9459549698 479.582955771 15.4757031251 464.257026272 37.2028835598 c 0
 457.475353352 46.8170887646 451.480177992 55.3162963853 447.317382812 60.8759765625 c 1
 411.836914062 40.32421875 335.704101562 1.3037109375 306.12109375 -12.609375 c 0
 287.327148438 -21.44921875 276.265625 -22.580078125 250.583007812 -22.580078125 c 0
 197.776367188 -22.580078125 150.197265625 -1.9013671875 121.952148438 34.1806640625 c 0
 81.98046875 85.2412109375 70.2138671875 134.532226562 70.2138671875 309.919921875 c 0
 70.2138671875 326.815993172 70.2208196315 339.433902717 70.2262737113 349.332448716 c 0
 70.2297937282 355.720886369 70.2326896312 360.976626939 70.2326896312 365.518714463 c 0
 70.2326896312 383.663458824 70.1864755081 390.419406633 69.94921875 412.500976562 c 1
 23.8193359375 425.404296875 14.572265625 433.458007812 14.572265625 446.5390625 c 0
 14.572265625 462.506835938 35.044921875 478.154296875 134.888671875 538.463867188 c 1
EndSplineSet
Validated: 524289
EndChar

StartChar: o.medi
Encoding: 302 57387 142
GlifName: o.medi
Width: 591
VWidth: 800
Flags: W
HStem: -22.5742 48.0166<237.884 381.009> 439.989 43.0479<0.000976562 157.649 205.555 371.905 472.209 590.718> 597.026 131.896<247.891 345.521>
VStem: 29.5273 102.194<145.269 337.928> 230.757 131.896<614.159 711.791> 459.043 102.148<141.142 342.177>
LayerCount: 2
Fore
SplineSet
362.653320312 662.975585938 m 0
 362.653320312 626.552734375 333.126953125 597.026367188 296.705078125 597.026367188 c 0
 260.282828876 597.026367188 230.756835913 626.551757847 230.756835913 662.973779004 c 0
 230.757324317 699.405758708 260.288875347 728.922851562 296.705078125 728.922851562 c 0
 333.126953125 728.922851562 362.653320312 699.397460938 362.653320312 662.975585938 c 0
285.234375 439.985351562 m 0
 207.373046875 439.985351562 131.721679688 386.625976562 131.721679688 262.37109375 c 0
 131.721679688 90.91015625 238.033203125 25.4423828125 309.1875 25.4423828125 c 0
 393.69921875 25.4423828125 459.04296875 102.950195312 459.04296875 215.368164062 c 0
 459.04296875 350.349609375 407.190429688 439.985351562 285.234375 439.985351562 c 0
0.0009765625 483.037109375 m 1
 590.717773438 483.037109375 l 1
 590.717773438 439.966796875 l 1
 472.208984375 439.966796875 l 1
 517.9140625 411.856445312 561.19140625 350.232421875 561.19140625 249.022460938 c 0
 561.19140625 85.8828125 434.76953125 -22.57421875 288.709960938 -22.57421875 c 0
 131.889648438 -22.57421875 29.52734375 91.9345703125 29.52734375 228.73046875 c 0
 29.52734375 348.774414062 91.7001953125 413.75390625 157.649414062 439.994140625 c 1
 0.0009765625 439.989257812 l 1
 -9.341796875 461.512695312 l 1
 0.0009765625 483.037109375 l 1
EndSplineSet
Validated: 524289
EndChar

StartChar: o.fina
Encoding: 303 57388 143
GlifName: o.fina
Width: 577
VWidth: 800
Flags: W
HStem: -22.582 47.3828<229.738 352.892> 439.991 43.0703<0 49.3944 166.865 408.205> 597.002 131.896<240.066 337.68>
VStem: 69.335 93.5918<109.067 418.752> 222.925 131.896<614.143 711.758> 410.945 97.5283<119.702 438.847>
LayerCount: 2
Fore
SplineSet
276.662109375 -22.58203125 m 0
 69.3349609375 -22.58203125 69.3349609375 180.97413755 69.3349609375 276.359375 c 0
 69.3349609375 295.805631066 69.1814788436 312.995604874 69.0396124037 328.884627009 c 0
 68.9177083374 342.537865983 68.8043809808 355.230514635 68.8043809808 367.568707804 c 0
 68.8043809808 381.944719421 68.9582348627 395.839520204 69.431640625 410.211914062 c 1
 48.9457728187 415.727537963 32.9445722406 428.218808571 28.1397261504 439.991210938 c 1
 0 439.991210938 l 1
 -9.3427734375 461.551757812 l 1
 0 483.061523438 l 1
 393.815429688 483.334960938 l 1
 399.646484375 492.306640625 442.120117188 514.719726562 515.907226562 543.892578125 c 1
 510.990234375 508.229492188 508.473632812 421.18359375 508.473632812 344.014648438 c 0
 508.473632812 176.095703125 497.751953125 111.674804688 449.586914062 52.8798828125 c 0
 416.499023438 12.490234375 360.767578125 -22.58203125 276.662109375 -22.58203125 c 0
354.821289062 662.950195312 m 0
 354.821289062 626.552734375 325.270507812 597.002929688 288.873046875 597.001953125 c 0
 252.475585938 597.001953125 222.924804688 626.552734375 222.924804688 662.950195312 c 0
 222.924804688 699.34765625 252.475585938 728.8984375 288.873046875 728.8984375 c 0
 325.271484375 728.8984375 354.821289062 699.34765625 354.821289062 662.950195312 c 0
168.29660176 439.991210938 m 1
 165.775682151 403.85436486 162.926757812 358.648197585 162.926757812 311.021484375 c 0
 162.926757812 224.421875 167.587890625 168.693359375 176.583007812 131.551757812 c 0
 191.643554688 69.365234375 233.82421875 24.80078125 291.803710938 24.80078125 c 0
 342.119140625 24.80078125 373.74609375 58.2822265625 390.638671875 101.552734375 c 0
 404.704101562 137.58203125 410.9453125 188.370117188 410.9453125 300.935546875 c 0
 410.9453125 322.479224503 409.942230143 364.945034172 409.093706538 400.867550113 c 0
 408.744374244 415.656643547 408.421238447 429.336699997 408.205078125 439.991210938 c 1
 168.29660176 439.991210938 l 1
EndSplineSet
Validated: 524289
EndChar

StartChar: p.fina
Encoding: 304 57391 144
GlifName: p.fina
Width: 462
VWidth: 800
Flags: W
HStem: -21.6728 26.8555<360.16 426.105> 439.997 43.0703<0.000976562 67.4106>
VStem: 68.6204 97.6267<247.352 439.297>
LayerCount: 2
Fore
SplineSet
174.397460938 540.768554688 m 1
 167.791992188 480.071289062 166.247070312 414.663085938 166.247070312 358.829101562 c 0
 166.247070312 141.748046875 271.547851562 25.828125 410.57421875 5.1826171875 c 0
 418.932254038 3.94141634808 426.444253824 -3.75365359441 426.444253824 -10.5902142515 c 0
 426.444253824 -16.4465108578 420.932036228 -21.6728433901 405.71755146 -21.6728433901 c 0
 403.044796914 -21.6728433901 400.072625072 -21.5115558965 396.778320312 -21.1640625 c 0
 190.885742188 0.556640625 100.307617188 123.44140625 74.708984375 328.125976562 c 0
 71.5515294792 353.370124202 69.9101920913 387.013847171 68.6203683203 413.452332 c 0
 68.1214041091 423.679975517 67.6750440703 432.829351873 67.2138671875 439.997070312 c 1
 0.0009765625 439.997070312 l 1
 -9.341796875 461.532226562 l 1
 0.0009765625 483.067382812 l 1
 50.0009765625 483.067382812 l 1
 56.9814453125 499.5078125 109.606445312 519.634765625 174.397460938 540.768554688 c 1
EndSplineSet
Validated: 524289
EndChar

StartChar: q.fina
Encoding: 305 57394 145
GlifName: q.fina
Width: 591
VWidth: 800
Flags: W
HStem: -270.999 21G<81.6987 109.696> -20.1996 73.0511<162.365 275.576> 439.995 43.0703<0.000976562 62.5227> 449.414 56.2314<245.165 389.822> 627 43<274 450.297>
VStem: 63.9287 97.5098<-265.674 -18.1279 55.0468 412.05> 459.462 97.3359<205.758 376.371>
LayerCount: 2
Fore
SplineSet
450.305614404 610.34616227 m 0xce
 450.143573559 610.34616227 448.833068624 610.636608327 446.558192734 611.140787071 c 0
 431.607160362 614.454371234 375.000750941 627 329 627 c 2
 115 627 l 2
 92 627 86.5048828125 631.485351562 86.5048828125 637.1875 c 0
 86.5048828125 651.627929688 182.755859375 738.13671875 197.860351562 748.9296875 c 1
 274 670 l 1
 308 670 l 2
 389.722394737 670 460.0975849 677.524523926 486.962241063 680.396896243 c 0
 493.299380824 681.074464 497.215388902 681.493164062 498.288085938 681.493164062 c 1
 484.462129773 640.080287816 467.142244224 610.34616227 450.305614404 610.34616227 c 0xce
351.91796875 505.645507812 m 0xde
 451.453125 505.645507812 556.797851562 462.545898438 556.797851562 310.728515625 c 0
 556.797851562 159.861328125 434.370117188 75.259765625 418.061523438 65.8447265625 c 0
 396.041015625 53.130859375 318.178710938 17.1279296875 284.927734375 4.65625 c 0
 254.864018011 -6.62050575726 207.742094421 -15.994157595 162.100315168 -20.1995586361 c 1
 162.924751035 -93.5049983659 164.345356621 -149.903788609 165.336313019 -189.245279731 c 0
 165.979984474 -214.799375618 166.442382812 -233.156833259 166.442382812 -244.276367188 c 0
 166.442382812 -264.694335938 122.23828125 -270.999023438 97.154296875 -270.999023438 c 0
 66.2431640625 -270.999023438 60.2607421875 -267.8984375 60.2607421875 -260.955078125 c 0
 60.2607421875 -258.986234767 60.3456762055 -254.901684115 60.4896954832 -247.97567204 c 0
 61.2921151593 -209.386613288 63.9287109375 -82.5904336662 63.9287109375 257.938476562 c 2
 63.9287109375 439.99609375 l 1
 0.0009765625 439.995117188 l 1
 -9.341796875 461.530273438 l 1
 0.0009765625 483.065429688 l 1xee
 51.6572265625 483.06640625 l 1
 72.0595703125 500.393554688 133.373046875 530.811523438 174.875976562 544.670898438 c 1
 174.725589582 543.132547177 174.574334258 541.590528895 174.42234773 540.041056138 c 0
 172.394808764 519.370695147 170.237143064 497.373717709 168.27493198 465.058461566 c 1
 246.02103911 484.713583342 334.572300657 505.645507812 351.91796875 505.645507812 c 0xde
161.515845992 57.8673248642 m 1
 179.559238413 54.832643968 202.552314299 52.8515625 224.837890625 52.8515625 c 0
 366.446289062 52.8515625 459.461914062 142.047851562 459.461914062 278.145507812 c 0
 459.461914062 415.11328125 373.900390625 449.4140625 304.89453125 449.4140625 c 0xde
 258.038359938 449.4140625 208.813450847 433.787690214 165.249621323 400.336948577 c 1
 162.989803644 336.483254266 161.438476563 243.786456245 161.438476562 98.9697265625 c 0
 161.438476562 84.8521726102 161.465597472 71.1511765616 161.515845992 57.8673248642 c 1
EndSplineSet
Validated: 524289
EndChar

